<?xml version="1.0" encoding="utf-8" ?>
<svg baseProfile="tiny" height="1564" version="1.2" width="2014" xmlns="http://www.w3.org/2000/svg" xmlns:ev="http://www.w3.org/2001/xml-events" xmlns:xlink="http://www.w3.org/1999/xlink"><defs /><polyline fill="none" points="1088.0,1439.0 1087.0,1439.0 1085.0,1437.0 1080.0,1437.0 1079.0,1438.0 1079.0,1439.0 1078.0,1440.0 1076.0,1440.0 1074.0,1442.0 1074.0,1443.0 1073.0,1444.0 1072.0,1444.0 1071.0,1445.0 1070.0,1445.0 1066.0,1449.0 1066.0,1453.0 1067.0,1454.0 1067.0,1458.0 1070.0,1458.0 1070.0,1450.0 1073.0,1447.0 1080.0,1447.0 1081.0,1448.0 1081.0,1450.0 1082.0,1451.0 1083.0,1451.0 1084.0,1452.0 1084.0,1454.0 1085.0,1455.0 1087.0,1455.0 1087.0,1445.0 1088.0,1444.0" stroke="black" /><polyline fill="none" points="929.0,1343.0 929.0,1341.0 928.0,1340.0 927.0,1340.0 925.0,1338.0 925.0,1336.0 924.0,1335.0 924.0,1329.0 922.0,1329.0 922.0,1333.0 920.0,1335.0 918.0,1335.0 917.0,1336.0 917.0,1337.0 916.0,1338.0 903.0,1338.0 902.0,1337.0 887.0,1337.0 886.0,1336.0 881.0,1336.0 880.0,1335.0 871.0,1335.0 870.0,1334.0 869.0,1334.0 868.0,1333.0 866.0,1333.0 865.0,1332.0 863.0,1332.0 862.0,1333.0 859.0,1333.0 859.0,1335.0 865.0,1335.0 867.0,1337.0 867.0,1341.0 868.0,1342.0 868.0,1344.0 869.0,1345.0 871.0,1345.0 873.0,1347.0 881.0,1347.0 882.0,1348.0 889.0,1348.0 890.0,1349.0 890.0,1356.0 892.0,1356.0 893.0,1355.0 894.0,1355.0 894.0,1354.0 896.0,1352.0 896.0,1351.0 898.0,1349.0 899.0,1349.0 900.0,1348.0 901.0,1348.0 901.0,1342.0 902.0,1341.0 923.0,1341.0 924.0,1342.0 925.0,1342.0 926.0,1343.0" stroke="black" /><polyline fill="none" points="1032.0,1334.0 1025.0,1334.0 1024.0,1335.0 1018.0,1335.0 1016.0,1333.0 1016.0,1332.0 1010.0,1332.0 1009.0,1331.0 1009.0,1330.0 1008.0,1329.0 1008.0,1328.0 1002.0,1328.0 1001.0,1329.0 999.0,1329.0 999.0,1331.0 998.0,1332.0 993.0,1332.0 993.0,1335.0 994.0,1336.0 994.0,1343.0 993.0,1344.0 990.0,1344.0 989.0,1345.0 986.0,1345.0 986.0,1348.0 985.0,1349.0 980.0,1349.0 979.0,1350.0 977.0,1350.0 974.0,1353.0 973.0,1353.0 972.0,1354.0 969.0,1354.0 969.0,1356.0 970.0,1357.0 972.0,1357.0 973.0,1356.0 980.0,1356.0 981.0,1355.0 988.0,1355.0 989.0,1356.0 989.0,1358.0 993.0,1358.0 994.0,1359.0 998.0,1359.0 998.0,1357.0 999.0,1356.0 1002.0,1356.0 1003.0,1355.0 1010.0,1355.0 1010.0,1351.0 1011.0,1350.0 1018.0,1350.0 1019.0,1349.0 1027.0,1349.0 1027.0,1348.0 1028.0,1347.0 1030.0,1347.0 1030.0,1345.0 1029.0,1344.0 1029.0,1338.0 1030.0,1337.0 1031.0,1337.0 1032.0,1336.0" stroke="black" /><polyline fill="none" points="1707.0,1320.0 1705.0,1320.0 1704.0,1321.0 1698.0,1321.0 1697.0,1320.0 1694.0,1320.0 1694.0,1321.0 1693.0,1322.0 1693.0,1323.0 1692.0,1324.0 1691.0,1324.0 1691.0,1330.0 1693.0,1332.0 1693.0,1336.0 1695.0,1336.0 1695.0,1333.0 1696.0,1332.0 1698.0,1332.0 1699.0,1331.0 1699.0,1330.0 1701.0,1328.0 1707.0,1328.0 1708.0,1327.0 1708.0,1325.0 1707.0,1324.0" stroke="black" /><polyline fill="none" points="1274.0,1311.0 1272.0,1311.0 1268.0,1315.0 1267.0,1315.0 1266.0,1316.0 1261.0,1316.0 1261.0,1319.0 1260.0,1320.0 1258.0,1320.0 1257.0,1321.0 1256.0,1321.0 1253.0,1324.0 1252.0,1324.0 1251.0,1325.0 1249.0,1325.0 1249.0,1326.0 1248.0,1327.0 1246.0,1327.0 1246.0,1329.0 1245.0,1330.0 1244.0,1330.0 1243.0,1331.0 1242.0,1331.0 1241.0,1332.0 1241.0,1334.0 1240.0,1335.0 1240.0,1337.0 1241.0,1337.0 1242.0,1338.0 1242.0,1339.0 1243.0,1339.0 1244.0,1340.0 1245.0,1340.0 1246.0,1341.0 1246.0,1343.0 1248.0,1343.0 1250.0,1341.0 1252.0,1341.0 1252.0,1339.0 1251.0,1338.0 1251.0,1328.0 1252.0,1327.0 1254.0,1327.0 1255.0,1326.0 1256.0,1326.0 1260.0,1322.0 1262.0,1322.0 1264.0,1320.0 1265.0,1320.0 1266.0,1319.0 1267.0,1319.0 1269.0,1317.0 1270.0,1317.0 1271.0,1316.0 1272.0,1316.0 1274.0,1314.0" stroke="black" /><polyline fill="none" points="1139.0,1299.0 1131.0,1299.0 1130.0,1298.0 1130.0,1296.0 1128.0,1296.0 1128.0,1298.0 1124.0,1302.0 1119.0,1302.0 1117.0,1304.0 1114.0,1304.0 1114.0,1305.0 1113.0,1306.0 1112.0,1306.0 1111.0,1307.0 1111.0,1317.0 1110.0,1318.0 1103.0,1318.0 1103.0,1321.0 1102.0,1322.0 1101.0,1322.0 1099.0,1324.0 1094.0,1324.0 1090.0,1328.0 1086.0,1328.0 1084.0,1330.0 1078.0,1330.0 1075.0,1333.0 1069.0,1333.0 1067.0,1335.0 1065.0,1335.0 1064.0,1336.0 1061.0,1336.0 1060.0,1337.0 1059.0,1337.0 1058.0,1338.0 1058.0,1341.0 1060.0,1343.0 1063.0,1343.0 1063.0,1340.0 1064.0,1339.0 1066.0,1339.0 1067.0,1338.0 1069.0,1338.0 1071.0,1336.0 1082.0,1336.0 1083.0,1337.0 1086.0,1337.0 1087.0,1336.0 1090.0,1336.0 1092.0,1334.0 1099.0,1334.0 1100.0,1333.0 1102.0,1333.0 1103.0,1332.0 1106.0,1332.0 1106.0,1331.0 1108.0,1329.0 1108.0,1328.0 1109.0,1327.0 1109.0,1323.0 1111.0,1321.0 1120.0,1321.0 1121.0,1322.0 1123.0,1322.0 1124.0,1321.0 1124.0,1320.0 1125.0,1319.0 1126.0,1319.0 1127.0,1318.0 1129.0,1318.0 1130.0,1317.0 1131.0,1317.0 1132.0,1316.0 1132.0,1313.0 1134.0,1311.0 1137.0,1311.0 1138.0,1310.0 1138.0,1304.0 1139.0,1303.0" stroke="black" /><polyline fill="none" points="1608.0,1287.0 1608.0,1288.0 1607.0,1289.0 1606.0,1289.0 1604.0,1291.0 1604.0,1297.0 1603.0,1298.0 1598.0,1298.0 1598.0,1303.0 1603.0,1303.0 1604.0,1304.0 1604.0,1306.0 1606.0,1308.0 1607.0,1308.0 1609.0,1311.0 1612.0,1311.0 1613.0,1312.0 1613.0,1316.0 1614.0,1316.0 1615.0,1317.0 1615.0,1323.0 1617.0,1326.0 1617.0,1331.0 1618.0,1332.0 1618.0,1333.0 1620.0,1336.0 1620.0,1344.0 1621.0,1345.0 1621.0,1354.0 1620.0,1355.0 1620.0,1357.0 1621.0,1358.0 1622.0,1358.0 1624.0,1361.0 1624.0,1363.0 1625.0,1364.0 1625.0,1367.0 1627.0,1369.0 1627.0,1372.0 1628.0,1372.0 1630.0,1374.0 1630.0,1375.0 1632.0,1377.0 1632.0,1379.0 1633.0,1380.0 1633.0,1381.0 1636.0,1383.0 1636.0,1385.0 1638.0,1387.0 1638.0,1389.0 1639.0,1390.0 1639.0,1391.0 1641.0,1393.0 1641.0,1396.0 1642.0,1397.0 1642.0,1399.0 1643.0,1400.0 1643.0,1406.0 1642.0,1407.0 1639.0,1407.0 1639.0,1410.0 1640.0,1411.0 1640.0,1417.0 1642.0,1419.0 1642.0,1426.0 1643.0,1426.0 1645.0,1429.0 1645.0,1436.0 1646.0,1437.0 1646.0,1445.0 1649.0,1448.0 1649.0,1453.0 1651.0,1455.0 1651.0,1461.0 1658.0,1461.0 1659.0,1462.0 1659.0,1466.0 1660.0,1467.0 1660.0,1469.0 1661.0,1469.0 1663.0,1471.0 1663.0,1481.0 1662.0,1482.0 1656.0,1482.0 1655.0,1481.0 1655.0,1477.0 1654.0,1476.0 1654.0,1474.0 1653.0,1474.0 1651.0,1472.0 1649.0,1472.0 1649.0,1474.0 1648.0,1475.0 1648.0,1477.0 1649.0,1478.0 1649.0,1483.0 1652.0,1486.0 1656.0,1486.0 1659.0,1489.0 1659.0,1490.0 1660.0,1490.0 1661.0,1491.0 1661.0,1492.0 1668.0,1492.0 1669.0,1493.0 1669.0,1507.0 1670.0,1508.0 1672.0,1508.0 1672.0,1500.0 1673.0,1499.0 1675.0,1499.0 1677.0,1497.0 1677.0,1494.0 1678.0,1493.0 1678.0,1491.0 1677.0,1491.0 1676.0,1490.0 1675.0,1490.0 1673.0,1487.0 1673.0,1482.0 1672.0,1481.0 1672.0,1480.0 1668.0,1476.0 1668.0,1469.0 1666.0,1469.0 1664.0,1467.0 1663.0,1467.0 1662.0,1466.0 1662.0,1459.0 1661.0,1458.0 1661.0,1456.0 1659.0,1453.0 1659.0,1451.0 1657.0,1448.0 1657.0,1443.0 1656.0,1442.0 1656.0,1439.0 1655.0,1438.0 1655.0,1433.0 1653.0,1431.0 1653.0,1425.0 1652.0,1424.0 1652.0,1422.0 1651.0,1421.0 1651.0,1413.0 1652.0,1412.0 1652.0,1410.0 1651.0,1410.0 1648.0,1408.0 1648.0,1401.0 1647.0,1400.0 1647.0,1399.0 1645.0,1397.0 1645.0,1396.0 1643.0,1393.0 1643.0,1391.0 1641.0,1388.0 1641.0,1374.0 1642.0,1373.0 1642.0,1371.0 1639.0,1371.0 1637.0,1368.0 1630.0,1368.0 1628.0,1366.0 1628.0,1365.0 1627.0,1364.0 1627.0,1361.0 1626.0,1360.0 1626.0,1350.0 1627.0,1349.0 1631.0,1349.0 1633.0,1347.0 1635.0,1347.0 1635.0,1343.0 1634.0,1343.0 1633.0,1342.0 1629.0,1342.0 1628.0,1341.0 1628.0,1335.0 1626.0,1332.0 1626.0,1325.0 1625.0,1324.0 1625.0,1317.0 1626.0,1316.0 1630.0,1316.0 1631.0,1315.0 1632.0,1315.0 1632.0,1311.0 1629.0,1311.0 1627.0,1309.0 1627.0,1301.0 1621.0,1301.0 1620.0,1300.0 1620.0,1292.0 1619.0,1291.0 1619.0,1289.0 1618.0,1288.0 1611.0,1288.0 1610.0,1287.0" stroke="black" /><polyline fill="none" points="1068.0,1274.0 1068.0,1281.0 1066.0,1283.0 1065.0,1283.0 1065.0,1285.0 1064.0,1286.0 1061.0,1286.0 1060.0,1287.0 1060.0,1288.0 1059.0,1289.0 1058.0,1289.0 1055.0,1292.0 1054.0,1292.0 1051.0,1295.0 1048.0,1295.0 1047.0,1296.0 1047.0,1298.0 1046.0,1299.0 1033.0,1299.0 1032.0,1298.0 1032.0,1292.0 1033.0,1291.0 1035.0,1291.0 1035.0,1290.0 1036.0,1289.0 1038.0,1289.0 1038.0,1288.0 1039.0,1287.0 1039.0,1286.0 1040.0,1285.0 1042.0,1285.0 1045.0,1282.0 1045.0,1281.0 1046.0,1280.0 1046.0,1279.0 1047.0,1278.0 1051.0,1278.0 1053.0,1276.0 1053.0,1275.0 1055.0,1273.0 1067.0,1273.0" stroke="black" /><polyline fill="none" points="1566.0,1271.0 1564.0,1271.0 1564.0,1274.0 1563.0,1275.0 1561.0,1275.0 1560.0,1276.0 1559.0,1276.0 1556.0,1279.0 1556.0,1281.0 1554.0,1283.0 1553.0,1283.0 1552.0,1284.0 1551.0,1284.0 1550.0,1285.0 1548.0,1285.0 1548.0,1286.0 1547.0,1287.0 1546.0,1287.0 1545.0,1288.0 1540.0,1288.0 1540.0,1293.0 1539.0,1294.0 1530.0,1294.0 1530.0,1301.0 1529.0,1302.0 1525.0,1302.0 1524.0,1303.0 1523.0,1303.0 1522.0,1304.0 1521.0,1304.0 1520.0,1305.0 1519.0,1305.0 1518.0,1306.0 1517.0,1306.0 1517.0,1308.0 1516.0,1309.0 1515.0,1309.0 1515.0,1311.0 1516.0,1312.0 1518.0,1312.0 1519.0,1311.0 1519.0,1310.0 1520.0,1309.0 1522.0,1309.0 1523.0,1308.0 1523.0,1307.0 1524.0,1306.0 1525.0,1306.0 1526.0,1305.0 1527.0,1305.0 1528.0,1304.0 1530.0,1304.0 1530.0,1301.0 1531.0,1300.0 1534.0,1300.0 1534.0,1298.0 1535.0,1297.0 1541.0,1297.0 1542.0,1296.0 1545.0,1296.0 1545.0,1295.0 1546.0,1294.0 1546.0,1292.0 1549.0,1289.0 1550.0,1289.0 1551.0,1288.0 1552.0,1288.0 1554.0,1286.0 1555.0,1286.0 1556.0,1285.0 1557.0,1285.0 1558.0,1284.0 1558.0,1282.0 1562.0,1278.0 1563.0,1278.0 1564.0,1277.0 1566.0,1277.0 1567.0,1276.0 1567.0,1273.0 1566.0,1272.0" stroke="black" /><polyline fill="none" points="1719.0,1252.0 1717.0,1252.0 1717.0,1258.0 1716.0,1259.0 1716.0,1260.0 1713.0,1263.0 1712.0,1263.0 1712.0,1276.0 1711.0,1277.0 1711.0,1279.0 1710.0,1280.0 1707.0,1280.0 1707.0,1284.0 1706.0,1285.0 1706.0,1287.0 1707.0,1288.0 1717.0,1288.0 1717.0,1287.0 1718.0,1286.0 1726.0,1286.0 1726.0,1284.0 1725.0,1283.0 1718.0,1283.0 1716.0,1281.0 1716.0,1273.0 1717.0,1272.0 1718.0,1272.0 1718.0,1262.0 1720.0,1260.0 1720.0,1258.0 1719.0,1257.0" stroke="black" /><polyline fill="none" points="1629.0,1218.0 1624.0,1218.0 1624.0,1219.0 1623.0,1220.0 1623.0,1221.0 1622.0,1222.0 1622.0,1239.0 1621.0,1240.0 1621.0,1242.0 1620.0,1243.0 1619.0,1243.0 1619.0,1251.0 1617.0,1253.0 1617.0,1258.0 1616.0,1259.0 1616.0,1261.0 1617.0,1262.0 1617.0,1264.0 1619.0,1264.0 1619.0,1257.0 1620.0,1256.0 1626.0,1256.0 1627.0,1255.0 1627.0,1253.0 1630.0,1250.0 1630.0,1232.0 1631.0,1231.0 1631.0,1226.0 1632.0,1225.0 1632.0,1223.0 1631.0,1222.0 1631.0,1221.0 1630.0,1220.0 1630.0,1219.0" stroke="black" /><polyline fill="none" points="1261.0,1215.0 1259.0,1215.0 1257.0,1217.0 1257.0,1218.0 1254.0,1221.0 1254.0,1222.0 1249.0,1227.0 1247.0,1227.0 1247.0,1228.0 1245.0,1230.0 1244.0,1230.0 1244.0,1231.0 1242.0,1233.0 1240.0,1233.0 1239.0,1234.0 1239.0,1235.0 1237.0,1237.0 1237.0,1239.0 1236.0,1240.0 1235.0,1240.0 1232.0,1243.0 1231.0,1243.0 1230.0,1244.0 1229.0,1244.0 1228.0,1245.0 1227.0,1245.0 1226.0,1246.0 1226.0,1247.0 1222.0,1251.0 1222.0,1252.0 1221.0,1253.0 1218.0,1253.0 1218.0,1254.0 1216.0,1256.0 1214.0,1256.0 1214.0,1262.0 1213.0,1263.0 1204.0,1263.0 1201.0,1260.0 1201.0,1259.0 1199.0,1259.0 1197.0,1261.0 1188.0,1261.0 1188.0,1269.0 1187.0,1270.0 1187.0,1273.0 1185.0,1275.0 1181.0,1275.0 1179.0,1277.0 1179.0,1278.0 1178.0,1279.0 1178.0,1282.0 1177.0,1283.0 1176.0,1283.0 1176.0,1284.0 1173.0,1287.0 1173.0,1288.0 1172.0,1289.0 1172.0,1290.0 1171.0,1291.0 1171.0,1293.0 1173.0,1293.0 1175.0,1291.0 1181.0,1291.0 1182.0,1292.0 1184.0,1292.0 1184.0,1290.0 1185.0,1289.0 1187.0,1289.0 1189.0,1287.0 1198.0,1287.0 1198.0,1286.0 1199.0,1285.0 1205.0,1285.0 1206.0,1284.0 1207.0,1284.0 1207.0,1281.0 1208.0,1280.0 1208.0,1272.0 1209.0,1271.0 1211.0,1271.0 1212.0,1270.0 1214.0,1270.0 1216.0,1268.0 1217.0,1268.0 1221.0,1264.0 1221.0,1263.0 1222.0,1262.0 1224.0,1262.0 1225.0,1261.0 1225.0,1260.0 1227.0,1258.0 1228.0,1258.0 1235.0,1251.0 1236.0,1251.0 1237.0,1250.0 1240.0,1250.0 1240.0,1249.0 1242.0,1247.0 1243.0,1247.0 1244.0,1246.0 1244.0,1243.0 1247.0,1240.0 1247.0,1239.0 1248.0,1238.0 1249.0,1238.0 1251.0,1236.0 1253.0,1236.0 1255.0,1234.0 1255.0,1233.0 1256.0,1232.0 1258.0,1232.0 1258.0,1230.0 1259.0,1229.0 1260.0,1229.0 1261.0,1228.0 1261.0,1227.0 1262.0,1226.0 1262.0,1223.0 1261.0,1222.0" stroke="black" /><polyline fill="none" points="519.0,1171.0 517.0,1170.0 513.0,1170.0 509.0,1168.0 483.0,1168.0 482.0,1169.0 457.0,1170.0 453.0,1172.0 442.0,1173.0 436.0,1176.0 433.0,1176.0 428.0,1179.0 426.0,1179.0 424.0,1181.0 421.0,1181.0 406.0,1187.0 402.0,1187.0 392.0,1192.0 387.0,1192.0 376.0,1196.0 371.0,1196.0 370.0,1197.0 361.0,1197.0 360.0,1194.0 358.0,1194.0 358.0,1198.0 357.0,1199.0 352.0,1199.0 346.0,1202.0 341.0,1203.0 341.0,1205.0 339.0,1207.0 337.0,1207.0 332.0,1211.0 328.0,1219.0 322.0,1226.0 322.0,1229.0 320.0,1231.0 319.0,1234.0 296.0,1258.0 296.0,1259.0 284.0,1272.0 278.0,1282.0 275.0,1285.0 274.0,1288.0 271.0,1291.0 270.0,1294.0 266.0,1298.0 257.0,1311.0 257.0,1314.0 253.0,1319.0 253.0,1321.0 251.0,1324.0 251.0,1327.0 241.0,1345.0 239.0,1352.0 236.0,1356.0 235.0,1360.0 232.0,1365.0 232.0,1368.0 230.0,1370.0 229.0,1374.0 226.0,1379.0 225.0,1386.0 221.0,1391.0 216.0,1391.0 216.0,1393.0 218.0,1394.0 218.0,1401.0 215.0,1406.0 213.0,1412.0 213.0,1415.0 211.0,1417.0 206.0,1417.0 206.0,1420.0 208.0,1421.0 208.0,1431.0 207.0,1432.0 206.0,1439.0 202.0,1448.0 201.0,1454.0 199.0,1456.0 194.0,1456.0 194.0,1458.0 196.0,1459.0 195.0,1471.0 190.0,1482.0 189.0,1489.0 186.0,1493.0 186.0,1496.0 184.0,1498.0 183.0,1503.0 182.0,1504.0 178.0,1504.0 178.0,1506.0 181.0,1507.0 181.0,1515.0 180.0,1516.0 174.0,1516.0 174.0,1518.0 177.0,1519.0 177.0,1529.0 176.0,1530.0 175.0,1547.0 172.0,1553.0 172.0,1563.0 175.0,1563.0 175.0,1552.0 177.0,1549.0 178.0,1532.0 179.0,1531.0 179.0,1527.0 181.0,1525.0 182.0,1518.0 184.0,1515.0 185.0,1504.0 186.0,1501.0 189.0,1498.0 189.0,1494.0 191.0,1491.0 191.0,1487.0 194.0,1482.0 194.0,1479.0 196.0,1477.0 198.0,1466.0 202.0,1460.0 204.0,1450.0 209.0,1439.0 210.0,1429.0 212.0,1426.0 212.0,1424.0 214.0,1422.0 214.0,1418.0 215.0,1417.0 216.0,1411.0 220.0,1404.0 220.0,1402.0 222.0,1400.0 223.0,1394.0 227.0,1389.0 228.0,1381.0 230.0,1379.0 230.0,1377.0 234.0,1370.0 234.0,1367.0 236.0,1365.0 236.0,1363.0 240.0,1357.0 241.0,1352.0 246.0,1343.0 246.0,1341.0 248.0,1339.0 248.0,1337.0 251.0,1334.0 254.0,1324.0 260.0,1316.0 260.0,1313.0 263.0,1308.0 272.0,1297.0 273.0,1294.0 276.0,1291.0 277.0,1288.0 280.0,1285.0 286.0,1275.0 298.0,1262.0 303.0,1255.0 305.0,1254.0 317.0,1241.0 318.0,1241.0 324.0,1232.0 324.0,1229.0 327.0,1226.0 331.0,1226.0 331.0,1219.0 334.0,1214.0 340.0,1209.0 342.0,1209.0 344.0,1205.0 347.0,1204.0 358.0,1204.0 359.0,1201.0 362.0,1201.0 367.0,1199.0 372.0,1199.0 373.0,1198.0 378.0,1198.0 389.0,1194.0 394.0,1194.0 402.0,1190.0 407.0,1190.0 409.0,1188.0 412.0,1188.0 420.0,1184.0 425.0,1184.0 435.0,1178.0 438.0,1178.0 444.0,1175.0 450.0,1175.0 459.0,1172.0 480.0,1171.0 481.0,1172.0 481.0,1175.0 484.0,1176.0 486.0,1170.0 493.0,1170.0 494.0,1171.0 497.0,1170.0 507.0,1170.0 514.0,1173.0 519.0,1173.0" stroke="black" /><polyline fill="none" points="1526.0,1161.0 1526.0,1163.0 1530.0,1163.0 1531.0,1164.0 1533.0,1164.0 1534.0,1165.0 1539.0,1165.0 1541.0,1167.0 1542.0,1167.0 1543.0,1168.0 1546.0,1168.0 1548.0,1170.0 1551.0,1170.0 1552.0,1171.0 1553.0,1171.0 1554.0,1172.0 1555.0,1172.0 1556.0,1173.0 1557.0,1173.0 1558.0,1174.0 1558.0,1175.0 1559.0,1175.0 1560.0,1176.0 1560.0,1180.0 1562.0,1180.0 1562.0,1177.0 1563.0,1176.0 1572.0,1176.0 1572.0,1174.0 1570.0,1174.0 1568.0,1172.0 1567.0,1172.0 1566.0,1171.0 1558.0,1171.0 1557.0,1170.0 1556.0,1170.0 1554.0,1168.0 1551.0,1168.0 1549.0,1166.0 1545.0,1166.0 1544.0,1165.0 1543.0,1165.0 1541.0,1163.0 1539.0,1163.0 1538.0,1162.0 1533.0,1162.0 1532.0,1161.0 1530.0,1161.0 1529.0,1160.0 1527.0,1160.0" stroke="black" /><polyline fill="none" points="1557.0,1154.0 1557.0,1156.0 1559.0,1158.0 1563.0,1158.0 1565.0,1160.0 1570.0,1160.0 1571.0,1161.0 1573.0,1161.0 1575.0,1163.0 1577.0,1163.0 1580.0,1166.0 1585.0,1168.0 1590.0,1173.0 1590.0,1175.0 1591.0,1176.0 1593.0,1176.0 1595.0,1178.0 1598.0,1178.0 1602.0,1181.0 1603.0,1183.0 1605.0,1183.0 1606.0,1184.0 1606.0,1186.0 1613.0,1191.0 1613.0,1197.0 1614.0,1198.0 1614.0,1202.0 1615.0,1204.0 1617.0,1204.0 1617.0,1201.0 1616.0,1200.0 1616.0,1189.0 1619.0,1187.0 1619.0,1182.0 1620.0,1181.0 1626.0,1181.0 1627.0,1182.0 1631.0,1182.0 1636.0,1185.0 1638.0,1185.0 1639.0,1186.0 1639.0,1191.0 1640.0,1192.0 1642.0,1192.0 1643.0,1193.0 1652.0,1193.0 1655.0,1196.0 1657.0,1196.0 1659.0,1198.0 1661.0,1198.0 1662.0,1199.0 1662.0,1205.0 1663.0,1205.0 1665.0,1208.0 1680.0,1208.0 1681.0,1209.0 1681.0,1217.0 1696.0,1218.0 1706.0,1225.0 1706.0,1227.0 1708.0,1229.0 1710.0,1229.0 1711.0,1231.0 1719.0,1235.0 1723.0,1239.0 1723.0,1242.0 1724.0,1243.0 1727.0,1243.0 1728.0,1244.0 1728.0,1249.0 1729.0,1251.0 1731.0,1251.0 1732.0,1252.0 1732.0,1254.0 1734.0,1254.0 1736.0,1256.0 1739.0,1256.0 1743.0,1260.0 1743.0,1261.0 1744.0,1261.0 1749.0,1266.0 1748.0,1278.0 1750.0,1278.0 1751.0,1276.0 1757.0,1276.0 1760.0,1280.0 1762.0,1280.0 1763.0,1281.0 1764.0,1284.0 1766.0,1284.0 1766.0,1279.0 1767.0,1278.0 1773.0,1278.0 1777.0,1282.0 1777.0,1284.0 1780.0,1286.0 1782.0,1286.0 1784.0,1289.0 1788.0,1292.0 1789.0,1298.0 1790.0,1298.0 1793.0,1302.0 1794.0,1302.0 1796.0,1305.0 1802.0,1310.0 1804.0,1314.0 1813.0,1324.0 1817.0,1332.0 1820.0,1334.0 1821.0,1337.0 1823.0,1339.0 1823.0,1349.0 1825.0,1353.0 1826.0,1353.0 1828.0,1356.0 1833.0,1356.0 1834.0,1357.0 1834.0,1361.0 1837.0,1364.0 1837.0,1366.0 1841.0,1370.0 1842.0,1373.0 1845.0,1377.0 1847.0,1393.0 1851.0,1393.0 1857.0,1399.0 1857.0,1402.0 1860.0,1405.0 1860.0,1410.0 1861.0,1412.0 1863.0,1412.0 1869.0,1418.0 1869.0,1419.0 1871.0,1420.0 1871.0,1422.0 1874.0,1425.0 1874.0,1428.0 1877.0,1432.0 1877.0,1441.0 1881.0,1441.0 1882.0,1442.0 1883.0,1456.0 1885.0,1457.0 1885.0,1463.0 1889.0,1463.0 1890.0,1464.0 1890.0,1476.0 1893.0,1481.0 1893.0,1486.0 1895.0,1489.0 1898.0,1489.0 1902.0,1491.0 1902.0,1494.0 1906.0,1497.0 1906.0,1499.0 1909.0,1503.0 1909.0,1505.0 1911.0,1507.0 1913.0,1507.0 1913.0,1504.0 1911.0,1503.0 1911.0,1500.0 1908.0,1497.0 1908.0,1494.0 1904.0,1491.0 1903.0,1482.0 1901.0,1482.0 1899.0,1480.0 1899.0,1473.0 1898.0,1472.0 1898.0,1470.0 1896.0,1468.0 1896.0,1462.0 1892.0,1454.0 1892.0,1451.0 1890.0,1447.0 1889.0,1447.0 1887.0,1444.0 1887.0,1440.0 1885.0,1440.0 1884.0,1439.0 1884.0,1434.0 1883.0,1434.0 1882.0,1433.0 1882.0,1431.0 1881.0,1431.0 1876.0,1426.0 1875.0,1421.0 1872.0,1419.0 1872.0,1417.0 1870.0,1414.0 1865.0,1409.0 1865.0,1406.0 1862.0,1404.0 1860.0,1400.0 1860.0,1398.0 1854.0,1391.0 1854.0,1387.0 1849.0,1382.0 1849.0,1380.0 1847.0,1378.0 1847.0,1374.0 1846.0,1372.0 1843.0,1369.0 1842.0,1366.0 1839.0,1364.0 1836.0,1358.0 1836.0,1354.0 1834.0,1353.0 1834.0,1350.0 1830.0,1347.0 1828.0,1343.0 1828.0,1340.0 1826.0,1340.0 1825.0,1339.0 1825.0,1336.0 1819.0,1328.0 1817.0,1327.0 1817.0,1325.0 1814.0,1320.0 1810.0,1316.0 1810.0,1315.0 1807.0,1313.0 1806.0,1310.0 1803.0,1306.0 1795.0,1299.0 1793.0,1296.0 1793.0,1293.0 1791.0,1293.0 1789.0,1291.0 1789.0,1288.0 1787.0,1287.0 1785.0,1284.0 1781.0,1283.0 1779.0,1281.0 1778.0,1278.0 1774.0,1274.0 1772.0,1274.0 1759.0,1261.0 1759.0,1260.0 1755.0,1257.0 1754.0,1255.0 1752.0,1255.0 1751.0,1253.0 1741.0,1247.0 1737.0,1243.0 1731.0,1240.0 1722.0,1233.0 1714.0,1229.0 1712.0,1226.0 1710.0,1226.0 1705.0,1220.0 1696.0,1215.0 1693.0,1212.0 1691.0,1211.0 1687.0,1211.0 1685.0,1209.0 1685.0,1207.0 1681.0,1206.0 1679.0,1203.0 1677.0,1203.0 1674.0,1201.0 1670.0,1196.0 1667.0,1195.0 1665.0,1193.0 1661.0,1191.0 1659.0,1191.0 1654.0,1187.0 1648.0,1187.0 1647.0,1186.0 1647.0,1184.0 1644.0,1184.0 1640.0,1182.0 1636.0,1182.0 1633.0,1180.0 1629.0,1180.0 1624.0,1177.0 1622.0,1177.0 1618.0,1175.0 1615.0,1175.0 1612.0,1173.0 1606.0,1172.0 1600.0,1169.0 1590.0,1169.0 1586.0,1165.0 1583.0,1164.0 1580.0,1161.0 1577.0,1161.0 1574.0,1158.0 1572.0,1158.0 1568.0,1155.0 1560.0,1155.0 1559.0,1154.0" stroke="black" /><polyline fill="none" points="577.0,1145.0 574.0,1145.0 573.0,1146.0 572.0,1146.0 571.0,1147.0 571.0,1149.0 570.0,1150.0 569.0,1150.0 568.0,1151.0 563.0,1151.0 563.0,1152.0 562.0,1153.0 561.0,1153.0 561.0,1154.0 560.0,1155.0 557.0,1155.0 556.0,1156.0 553.0,1156.0 552.0,1157.0 551.0,1157.0 550.0,1158.0 546.0,1158.0 545.0,1159.0 543.0,1159.0 541.0,1161.0 534.0,1161.0 533.0,1162.0 532.0,1162.0 532.0,1163.0 530.0,1165.0 528.0,1165.0 527.0,1166.0 527.0,1168.0 529.0,1168.0 530.0,1167.0 532.0,1167.0 533.0,1166.0 534.0,1166.0 534.0,1165.0 535.0,1164.0 541.0,1164.0 542.0,1163.0 543.0,1163.0 545.0,1161.0 547.0,1161.0 548.0,1160.0 552.0,1160.0 553.0,1159.0 554.0,1159.0 555.0,1158.0 558.0,1158.0 559.0,1157.0 562.0,1157.0 562.0,1156.0 563.0,1155.0 567.0,1155.0 568.0,1154.0 569.0,1154.0 571.0,1152.0 572.0,1152.0 573.0,1151.0 575.0,1151.0 575.0,1148.0 576.0,1147.0 577.0,1147.0" stroke="black" /><polyline fill="none" points="615.0,1117.0 616.0,1116.0 620.0,1116.0 621.0,1115.0 622.0,1115.0 623.0,1114.0 634.0,1114.0 635.0,1115.0 635.0,1123.0 634.0,1124.0 616.0,1124.0 615.0,1123.0" stroke="black" /><polyline fill="none" points="589.0,1128.0 588.0,1130.0 588.0,1134.0 587.0,1135.0 587.0,1139.0 588.0,1140.0 588.0,1148.0 586.0,1150.0 585.0,1155.0 583.0,1157.0 583.0,1159.0 586.0,1159.0 587.0,1158.0 587.0,1156.0 589.0,1154.0 591.0,1154.0 591.0,1140.0 595.0,1137.0 595.0,1135.0 597.0,1134.0 598.0,1132.0 598.0,1125.0 608.0,1118.0 614.0,1118.0 615.0,1119.0 614.0,1135.0 612.0,1136.0 612.0,1139.0 614.0,1139.0 615.0,1140.0 615.0,1142.0 620.0,1150.0 620.0,1155.0 624.0,1158.0 624.0,1162.0 630.0,1170.0 630.0,1172.0 632.0,1174.0 634.0,1178.0 634.0,1181.0 635.0,1183.0 636.0,1183.0 641.0,1189.0 642.0,1192.0 644.0,1194.0 644.0,1196.0 647.0,1199.0 650.0,1204.0 656.0,1209.0 659.0,1214.0 662.0,1214.0 662.0,1211.0 655.0,1204.0 655.0,1203.0 653.0,1203.0 652.0,1202.0 652.0,1193.0 651.0,1191.0 649.0,1190.0 648.0,1187.0 643.0,1182.0 643.0,1180.0 640.0,1175.0 639.0,1175.0 637.0,1173.0 637.0,1170.0 635.0,1168.0 635.0,1166.0 632.0,1163.0 632.0,1158.0 628.0,1154.0 627.0,1149.0 625.0,1147.0 623.0,1142.0 619.0,1137.0 619.0,1130.0 620.0,1129.0 629.0,1129.0 630.0,1128.0 633.0,1128.0 635.0,1126.0 638.0,1125.0 639.0,1124.0 639.0,1122.0 643.0,1119.0 658.0,1119.0 660.0,1121.0 663.0,1121.0 665.0,1123.0 669.0,1132.0 671.0,1134.0 674.0,1140.0 674.0,1142.0 676.0,1144.0 679.0,1150.0 679.0,1152.0 684.0,1157.0 684.0,1159.0 686.0,1163.0 691.0,1168.0 692.0,1171.0 693.0,1171.0 696.0,1175.0 699.0,1181.0 699.0,1183.0 702.0,1186.0 702.0,1191.0 706.0,1191.0 711.0,1197.0 711.0,1198.0 712.0,1198.0 716.0,1202.0 716.0,1208.0 718.0,1210.0 718.0,1211.0 722.0,1211.0 724.0,1214.0 726.0,1214.0 728.0,1216.0 728.0,1219.0 730.0,1219.0 731.0,1220.0 735.0,1220.0 737.0,1222.0 737.0,1223.0 739.0,1224.0 742.0,1224.0 746.0,1228.0 746.0,1229.0 748.0,1229.0 749.0,1231.0 754.0,1231.0 758.0,1235.0 758.0,1236.0 768.0,1237.0 772.0,1241.0 778.0,1243.0 780.0,1245.0 780.0,1248.0 786.0,1248.0 791.0,1252.0 793.0,1252.0 796.0,1255.0 802.0,1257.0 805.0,1260.0 807.0,1260.0 812.0,1263.0 814.0,1263.0 815.0,1264.0 815.0,1266.0 820.0,1270.0 827.0,1270.0 828.0,1272.0 832.0,1273.0 834.0,1275.0 834.0,1276.0 839.0,1280.0 839.0,1281.0 843.0,1282.0 843.0,1280.0 841.0,1278.0 841.0,1277.0 839.0,1275.0 838.0,1275.0 835.0,1271.0 832.0,1271.0 831.0,1270.0 831.0,1268.0 822.0,1267.0 821.0,1266.0 821.0,1262.0 819.0,1262.0 818.0,1261.0 814.0,1261.0 809.0,1258.0 807.0,1258.0 805.0,1255.0 803.0,1254.0 800.0,1254.0 797.0,1251.0 792.0,1249.0 785.0,1243.0 783.0,1243.0 778.0,1239.0 775.0,1239.0 771.0,1235.0 769.0,1235.0 768.0,1234.0 761.0,1234.0 757.0,1229.0 749.0,1227.0 747.0,1224.0 743.0,1222.0 741.0,1222.0 739.0,1220.0 739.0,1219.0 737.0,1218.0 734.0,1218.0 733.0,1217.0 733.0,1214.0 731.0,1214.0 728.0,1211.0 728.0,1210.0 718.0,1200.0 718.0,1199.0 713.0,1195.0 713.0,1194.0 710.0,1191.0 708.0,1187.0 704.0,1184.0 704.0,1183.0 701.0,1180.0 701.0,1178.0 699.0,1176.0 698.0,1172.0 696.0,1170.0 696.0,1169.0 694.0,1168.0 693.0,1165.0 688.0,1160.0 686.0,1156.0 686.0,1154.0 681.0,1149.0 680.0,1145.0 678.0,1141.0 676.0,1139.0 673.0,1131.0 671.0,1129.0 666.0,1118.0 663.0,1114.0 663.0,1111.0 661.0,1109.0 661.0,1106.0 660.0,1105.0 660.0,1098.0 659.0,1097.0 657.0,1097.0 655.0,1093.0 653.0,1092.0 648.0,1093.0 648.0,1094.0 646.0,1095.0 644.0,1098.0 643.0,1098.0 643.0,1099.0 638.0,1104.0 638.0,1105.0 632.0,1110.0 630.0,1110.0 629.0,1111.0 624.0,1111.0 618.0,1114.0 607.0,1114.0 605.0,1115.0 603.0,1118.0 601.0,1118.0" stroke="black" /><polyline fill="none" points="1313.0,1087.0 1313.0,1089.0 1315.0,1089.0 1316.0,1090.0 1319.0,1090.0 1320.0,1091.0 1321.0,1091.0 1322.0,1092.0 1323.0,1092.0 1324.0,1093.0 1327.0,1093.0 1328.0,1094.0 1330.0,1094.0 1333.0,1097.0 1336.0,1097.0 1338.0,1099.0 1339.0,1099.0 1340.0,1100.0 1341.0,1100.0 1342.0,1101.0 1343.0,1101.0 1344.0,1102.0 1346.0,1102.0 1347.0,1103.0 1348.0,1103.0 1350.0,1105.0 1351.0,1105.0 1352.0,1106.0 1353.0,1106.0 1354.0,1107.0 1355.0,1107.0 1356.0,1108.0 1357.0,1108.0 1359.0,1110.0 1361.0,1110.0 1362.0,1111.0 1364.0,1111.0 1365.0,1112.0 1366.0,1112.0 1369.0,1115.0 1378.0,1115.0 1379.0,1114.0 1385.0,1114.0 1386.0,1115.0 1393.0,1115.0 1394.0,1116.0 1398.0,1116.0 1399.0,1117.0 1405.0,1117.0 1406.0,1118.0 1408.0,1118.0 1409.0,1119.0 1413.0,1119.0 1414.0,1120.0 1415.0,1120.0 1416.0,1121.0 1419.0,1121.0 1420.0,1122.0 1421.0,1122.0 1422.0,1123.0 1424.0,1123.0 1425.0,1124.0 1428.0,1124.0 1429.0,1125.0 1433.0,1125.0 1434.0,1126.0 1436.0,1126.0 1437.0,1127.0 1439.0,1127.0 1440.0,1128.0 1443.0,1128.0 1444.0,1129.0 1446.0,1129.0 1447.0,1130.0 1449.0,1130.0 1450.0,1131.0 1451.0,1131.0 1452.0,1132.0 1453.0,1132.0 1454.0,1133.0 1457.0,1133.0 1458.0,1134.0 1460.0,1134.0 1461.0,1135.0 1462.0,1135.0 1463.0,1136.0 1465.0,1136.0 1466.0,1137.0 1467.0,1137.0 1468.0,1138.0 1470.0,1138.0 1471.0,1139.0 1473.0,1139.0 1474.0,1140.0 1475.0,1140.0 1476.0,1141.0 1478.0,1141.0 1480.0,1143.0 1481.0,1143.0 1482.0,1144.0 1485.0,1144.0 1486.0,1145.0 1488.0,1145.0 1489.0,1146.0 1491.0,1146.0 1492.0,1147.0 1493.0,1147.0 1494.0,1148.0 1495.0,1148.0 1496.0,1149.0 1498.0,1149.0 1499.0,1150.0 1502.0,1150.0 1503.0,1151.0 1511.0,1151.0 1513.0,1153.0 1515.0,1153.0 1515.0,1152.0 1516.0,1151.0 1521.0,1151.0 1522.0,1150.0 1522.0,1148.0 1516.0,1148.0 1515.0,1149.0 1508.0,1149.0 1507.0,1148.0 1501.0,1148.0 1500.0,1147.0 1499.0,1147.0 1498.0,1146.0 1496.0,1146.0 1495.0,1145.0 1494.0,1145.0 1493.0,1144.0 1491.0,1144.0 1490.0,1143.0 1488.0,1143.0 1487.0,1142.0 1485.0,1142.0 1484.0,1141.0 1483.0,1141.0 1482.0,1140.0 1481.0,1140.0 1480.0,1139.0 1479.0,1139.0 1478.0,1138.0 1476.0,1138.0 1475.0,1137.0 1473.0,1137.0 1472.0,1136.0 1470.0,1136.0 1469.0,1135.0 1468.0,1135.0 1467.0,1134.0 1465.0,1134.0 1464.0,1133.0 1463.0,1133.0 1462.0,1132.0 1460.0,1132.0 1459.0,1131.0 1456.0,1131.0 1455.0,1130.0 1454.0,1130.0 1453.0,1129.0 1452.0,1129.0 1451.0,1128.0 1449.0,1128.0 1448.0,1127.0 1446.0,1127.0 1445.0,1126.0 1442.0,1126.0 1441.0,1125.0 1439.0,1125.0 1438.0,1124.0 1436.0,1124.0 1435.0,1123.0 1431.0,1123.0 1430.0,1122.0 1427.0,1122.0 1426.0,1121.0 1424.0,1121.0 1423.0,1120.0 1422.0,1120.0 1421.0,1119.0 1418.0,1119.0 1417.0,1118.0 1416.0,1118.0 1415.0,1117.0 1411.0,1117.0 1410.0,1116.0 1408.0,1116.0 1407.0,1115.0 1401.0,1115.0 1400.0,1114.0 1396.0,1114.0 1395.0,1113.0 1388.0,1113.0 1387.0,1112.0 1370.0,1112.0 1368.0,1110.0 1367.0,1110.0 1366.0,1109.0 1364.0,1109.0 1363.0,1108.0 1362.0,1108.0 1361.0,1107.0 1360.0,1107.0 1358.0,1105.0 1356.0,1105.0 1354.0,1103.0 1353.0,1103.0 1352.0,1102.0 1351.0,1102.0 1350.0,1101.0 1349.0,1101.0 1348.0,1100.0 1346.0,1100.0 1345.0,1099.0 1344.0,1099.0 1342.0,1097.0 1341.0,1097.0 1340.0,1096.0 1339.0,1096.0 1338.0,1095.0 1335.0,1095.0 1334.0,1094.0 1334.0,1093.0 1333.0,1093.0 1332.0,1092.0 1330.0,1092.0 1329.0,1091.0 1326.0,1091.0 1325.0,1090.0 1324.0,1090.0 1323.0,1089.0 1322.0,1089.0 1321.0,1088.0 1318.0,1088.0 1317.0,1087.0" stroke="black" /><polyline fill="none" points="1261.0,1080.0 1259.0,1080.0 1258.0,1082.0 1258.0,1087.0 1259.0,1088.0 1259.0,1090.0 1260.0,1091.0 1260.0,1095.0 1261.0,1096.0 1261.0,1105.0 1259.0,1109.0 1259.0,1112.0 1254.0,1122.0 1248.0,1129.0 1247.0,1132.0 1241.0,1139.0 1239.0,1143.0 1233.0,1149.0 1233.0,1150.0 1228.0,1154.0 1225.0,1159.0 1223.0,1161.0 1222.0,1161.0 1212.0,1171.0 1212.0,1172.0 1210.0,1173.0 1199.0,1184.0 1198.0,1184.0 1187.0,1194.0 1186.0,1194.0 1184.0,1197.0 1182.0,1197.0 1169.0,1208.0 1161.0,1212.0 1152.0,1219.0 1148.0,1220.0 1143.0,1224.0 1140.0,1225.0 1137.0,1228.0 1134.0,1229.0 1129.0,1233.0 1125.0,1234.0 1120.0,1238.0 1116.0,1239.0 1101.0,1247.0 1099.0,1247.0 1095.0,1250.0 1093.0,1250.0 1091.0,1252.0 1089.0,1252.0 1084.0,1255.0 1078.0,1256.0 1073.0,1259.0 1069.0,1259.0 1069.0,1260.0 1067.0,1262.0 1062.0,1262.0 1058.0,1264.0 1055.0,1264.0 1054.0,1265.0 1051.0,1265.0 1050.0,1266.0 1046.0,1266.0 1046.0,1267.0 1043.0,1269.0 1031.0,1270.0 1029.0,1272.0 1024.0,1272.0 1018.0,1275.0 1011.0,1275.0 1009.0,1277.0 991.0,1278.0 988.0,1281.0 984.0,1281.0 983.0,1282.0 977.0,1282.0 976.0,1281.0 962.0,1282.0 961.0,1283.0 942.0,1283.0 941.0,1282.0 937.0,1282.0 937.0,1284.0 939.0,1284.0 940.0,1285.0 940.0,1287.0 942.0,1287.0 943.0,1286.0 950.0,1286.0 951.0,1285.0 963.0,1285.0 964.0,1284.0 970.0,1284.0 971.0,1285.0 971.0,1295.0 970.0,1296.0 966.0,1296.0 966.0,1301.0 968.0,1301.0 970.0,1299.0 974.0,1299.0 974.0,1296.0 976.0,1294.0 983.0,1294.0 984.0,1295.0 984.0,1300.0 987.0,1300.0 992.0,1296.0 998.0,1293.0 1000.0,1291.0 1000.0,1288.0 1004.0,1286.0 1004.0,1283.0 1005.0,1282.0 1007.0,1282.0 1007.0,1280.0 1008.0,1279.0 1015.0,1279.0 1016.0,1280.0 1016.0,1288.0 1014.0,1290.0 1014.0,1293.0 1016.0,1293.0 1016.0,1292.0 1018.0,1291.0 1018.0,1287.0 1019.0,1286.0 1026.0,1286.0 1027.0,1287.0 1027.0,1294.0 1031.0,1294.0 1032.0,1295.0 1032.0,1303.0 1029.0,1305.0 1026.0,1305.0 1023.0,1307.0 1021.0,1307.0 1020.0,1309.0 1017.0,1310.0 1017.0,1312.0 1023.0,1311.0 1024.0,1309.0 1026.0,1309.0 1028.0,1307.0 1040.0,1307.0 1041.0,1308.0 1043.0,1308.0 1046.0,1306.0 1046.0,1304.0 1051.0,1301.0 1052.0,1299.0 1061.0,1291.0 1068.0,1291.0 1069.0,1292.0 1073.0,1292.0 1074.0,1291.0 1076.0,1291.0 1076.0,1290.0 1083.0,1284.0 1093.0,1284.0 1093.0,1282.0 1091.0,1281.0 1081.0,1281.0 1080.0,1282.0 1074.0,1282.0 1073.0,1281.0 1073.0,1271.0 1074.0,1270.0 1081.0,1270.0 1081.0,1269.0 1083.0,1267.0 1085.0,1267.0 1085.0,1266.0 1087.0,1264.0 1091.0,1262.0 1097.0,1262.0 1098.0,1263.0 1098.0,1265.0 1100.0,1265.0 1103.0,1261.0 1103.0,1259.0 1107.0,1255.0 1110.0,1254.0 1113.0,1251.0 1121.0,1251.0 1126.0,1245.0 1127.0,1245.0 1132.0,1241.0 1136.0,1241.0 1140.0,1237.0 1145.0,1235.0 1146.0,1233.0 1149.0,1232.0 1149.0,1224.0 1151.0,1222.0 1155.0,1221.0 1164.0,1214.0 1172.0,1210.0 1181.0,1202.0 1182.0,1202.0 1185.0,1199.0 1190.0,1196.0 1196.0,1190.0 1197.0,1190.0 1202.0,1185.0 1203.0,1185.0 1213.0,1175.0 1214.0,1175.0 1214.0,1174.0 1226.0,1162.0 1227.0,1162.0 1230.0,1157.0 1232.0,1155.0 1233.0,1155.0 1233.0,1154.0 1240.0,1147.0 1243.0,1142.0 1247.0,1138.0 1250.0,1132.0 1256.0,1125.0 1260.0,1117.0 1261.0,1111.0 1263.0,1108.0 1263.0,1094.0 1262.0,1093.0 1262.0,1089.0 1261.0,1088.0" stroke="black" /><polyline fill="none" points="777.0,863.0 774.0,863.0 774.0,865.0 775.0,865.0 779.0,870.0 779.0,875.0 781.0,877.0 781.0,879.0 782.0,880.0 782.0,881.0 785.0,886.0 785.0,888.0 787.0,890.0 788.0,893.0 790.0,895.0 790.0,897.0 791.0,898.0 791.0,899.0 793.0,901.0 793.0,903.0 796.0,906.0 797.0,909.0 805.0,918.0 805.0,919.0 807.0,921.0 807.0,922.0 809.0,924.0 809.0,925.0 818.0,934.0 818.0,935.0 822.0,939.0 822.0,940.0 823.0,941.0 823.0,943.0 825.0,945.0 825.0,950.0 826.0,951.0 826.0,953.0 827.0,954.0 827.0,956.0 829.0,959.0 829.0,992.0 830.0,993.0 830.0,1002.0 829.0,1003.0 829.0,1008.0 830.0,1009.0 830.0,1015.0 829.0,1016.0 829.0,1030.0 828.0,1031.0 828.0,1036.0 827.0,1037.0 827.0,1040.0 825.0,1042.0 824.0,1045.0 821.0,1048.0 821.0,1049.0 818.0,1052.0 817.0,1052.0 815.0,1054.0 814.0,1054.0 811.0,1057.0 810.0,1057.0 807.0,1060.0 806.0,1060.0 804.0,1062.0 803.0,1062.0 801.0,1064.0 800.0,1064.0 797.0,1067.0 794.0,1068.0 792.0,1070.0 789.0,1071.0 787.0,1073.0 786.0,1073.0 785.0,1074.0 783.0,1074.0 782.0,1075.0 779.0,1076.0 779.0,1077.0 778.0,1078.0 775.0,1078.0 774.0,1079.0 773.0,1079.0 771.0,1081.0 769.0,1081.0 768.0,1082.0 767.0,1082.0 762.0,1085.0 760.0,1085.0 758.0,1087.0 757.0,1087.0 756.0,1088.0 754.0,1088.0 751.0,1090.0 749.0,1090.0 746.0,1092.0 744.0,1092.0 743.0,1093.0 742.0,1093.0 739.0,1095.0 737.0,1095.0 736.0,1096.0 735.0,1096.0 730.0,1099.0 726.0,1099.0 724.0,1101.0 718.0,1103.0 717.0,1104.0 717.0,1107.0 719.0,1107.0 719.0,1106.0 720.0,1105.0 722.0,1105.0 723.0,1104.0 725.0,1104.0 727.0,1102.0 728.0,1102.0 729.0,1101.0 732.0,1101.0 733.0,1100.0 735.0,1100.0 736.0,1099.0 737.0,1099.0 740.0,1097.0 742.0,1097.0 743.0,1096.0 744.0,1096.0 749.0,1093.0 751.0,1093.0 754.0,1091.0 756.0,1091.0 757.0,1090.0 759.0,1090.0 760.0,1089.0 761.0,1089.0 763.0,1087.0 764.0,1087.0 765.0,1086.0 767.0,1086.0 769.0,1084.0 771.0,1084.0 772.0,1083.0 774.0,1083.0 776.0,1081.0 777.0,1081.0 778.0,1080.0 780.0,1080.0 782.0,1078.0 783.0,1078.0 784.0,1077.0 786.0,1077.0 787.0,1076.0 790.0,1075.0 793.0,1072.0 794.0,1072.0 795.0,1071.0 798.0,1070.0 800.0,1068.0 801.0,1068.0 804.0,1065.0 805.0,1065.0 807.0,1063.0 808.0,1063.0 810.0,1061.0 811.0,1061.0 813.0,1059.0 814.0,1059.0 817.0,1056.0 818.0,1056.0 820.0,1054.0 821.0,1054.0 822.0,1053.0 822.0,1052.0 826.0,1048.0 826.0,1047.0 829.0,1042.0 829.0,1039.0 830.0,1038.0 830.0,1033.0 831.0,1032.0 831.0,1018.0 832.0,1017.0 832.0,970.0 831.0,969.0 831.0,957.0 830.0,956.0 830.0,953.0 828.0,951.0 828.0,942.0 827.0,942.0 825.0,940.0 824.0,937.0 822.0,935.0 822.0,934.0 820.0,932.0 820.0,931.0 810.0,921.0 810.0,920.0 809.0,919.0 809.0,918.0 807.0,916.0 807.0,915.0 803.0,911.0 803.0,910.0 799.0,906.0 798.0,903.0 795.0,900.0 795.0,898.0 793.0,896.0 793.0,895.0 792.0,894.0 792.0,893.0 791.0,892.0 790.0,889.0 787.0,886.0 787.0,883.0 786.0,882.0 786.0,881.0 784.0,879.0 784.0,877.0 783.0,876.0 783.0,871.0 782.0,871.0 781.0,870.0 781.0,868.0 780.0,867.0 779.0,864.0 778.0,864.0" stroke="black" /><polyline fill="none" points="590.0,857.0 588.0,857.0 588.0,858.0 587.0,859.0 587.0,870.0 588.0,871.0 588.0,890.0 587.0,891.0 587.0,894.0 588.0,895.0 588.0,904.0 587.0,905.0 587.0,913.0 586.0,914.0 586.0,916.0 587.0,917.0 589.0,917.0 589.0,907.0 590.0,906.0 590.0,869.0 591.0,868.0 592.0,868.0 592.0,858.0 591.0,858.0" stroke="black" /><polyline fill="none" points="959.0,848.0 963.0,848.0 964.0,849.0 966.0,849.0 967.0,848.0 975.0,848.0 976.0,849.0 978.0,849.0 979.0,848.0 980.0,848.0 981.0,847.0 991.0,847.0 993.0,849.0 995.0,849.0 996.0,848.0 999.0,848.0 1000.0,847.0 1004.0,847.0 1005.0,846.0 1007.0,846.0 1007.0,845.0 1008.0,844.0 1014.0,844.0 1014.0,842.0 1006.0,842.0 1004.0,844.0 1003.0,844.0 1002.0,845.0 990.0,845.0 989.0,844.0 981.0,844.0 980.0,843.0 970.0,843.0 969.0,842.0 962.0,842.0 961.0,843.0 960.0,843.0 960.0,844.0 959.0,845.0" stroke="black" /><polyline fill="none" points="934.0,826.0 936.0,826.0 937.0,825.0 938.0,825.0 939.0,824.0 941.0,824.0 941.0,823.0 942.0,822.0 942.0,821.0 943.0,820.0 943.0,819.0 945.0,817.0 945.0,816.0 948.0,813.0 949.0,813.0 951.0,811.0 952.0,811.0 953.0,810.0 954.0,810.0 955.0,809.0 955.0,808.0 956.0,807.0 960.0,807.0 961.0,806.0 963.0,806.0 965.0,804.0 965.0,803.0 966.0,802.0 969.0,802.0 970.0,801.0 971.0,801.0 972.0,800.0 973.0,800.0 974.0,799.0 975.0,799.0 976.0,798.0 977.0,798.0 978.0,797.0 980.0,797.0 981.0,796.0 985.0,796.0 986.0,795.0 997.0,795.0 998.0,796.0 1000.0,796.0 1001.0,797.0 1004.0,797.0 1005.0,798.0 1011.0,798.0 1012.0,799.0 1017.0,799.0 1018.0,800.0 1018.0,802.0 1020.0,802.0 1022.0,800.0 1025.0,800.0 1029.0,796.0 1029.0,792.0 1030.0,791.0 1030.0,789.0 1024.0,789.0 1023.0,788.0 1020.0,788.0 1019.0,787.0 1014.0,787.0 1013.0,788.0 1007.0,788.0 1006.0,787.0 1005.0,787.0 1004.0,786.0 996.0,786.0 995.0,785.0 995.0,784.0 994.0,783.0 992.0,783.0 992.0,784.0 991.0,785.0 980.0,785.0 979.0,786.0 977.0,786.0 976.0,787.0 967.0,787.0 966.0,786.0 965.0,786.0 964.0,785.0 962.0,785.0 960.0,783.0 960.0,781.0 958.0,781.0 958.0,786.0 959.0,787.0 961.0,787.0 962.0,788.0 963.0,788.0 966.0,791.0 968.0,791.0 969.0,792.0 969.0,798.0 968.0,799.0 964.0,799.0 963.0,800.0 963.0,801.0 960.0,804.0 959.0,804.0 958.0,805.0 953.0,805.0 953.0,806.0 951.0,808.0 950.0,808.0 949.0,809.0 948.0,809.0 946.0,811.0 945.0,811.0 943.0,813.0 943.0,814.0 941.0,816.0 941.0,817.0 939.0,819.0 938.0,819.0 938.0,821.0 936.0,823.0 935.0,823.0 934.0,824.0" stroke="black" /><polyline fill="none" points="959.0,727.0 959.0,731.0 961.0,731.0 961.0,729.0 963.0,727.0 965.0,727.0 965.0,725.0 966.0,724.0 969.0,724.0 970.0,723.0 971.0,723.0 972.0,722.0 974.0,722.0 975.0,721.0 976.0,721.0 977.0,720.0 989.0,720.0 990.0,721.0 991.0,721.0 992.0,722.0 993.0,722.0 995.0,724.0 996.0,724.0 997.0,725.0 998.0,725.0 1000.0,727.0 1000.0,728.0 1001.0,729.0 1002.0,729.0 1005.0,732.0 1006.0,732.0 1007.0,733.0 1007.0,734.0 1008.0,734.0 1009.0,735.0 1010.0,735.0 1011.0,736.0 1013.0,736.0 1013.0,733.0 1012.0,732.0 1011.0,732.0 1010.0,731.0 1010.0,730.0 1008.0,730.0 1005.0,727.0 1004.0,727.0 1002.0,725.0 1002.0,724.0 1001.0,723.0 1000.0,723.0 999.0,722.0 998.0,722.0 996.0,720.0 995.0,720.0 994.0,719.0 993.0,719.0 992.0,718.0 989.0,718.0 988.0,717.0 974.0,717.0 973.0,716.0 971.0,716.0 970.0,717.0 969.0,717.0 969.0,720.0 968.0,721.0 967.0,721.0 966.0,722.0 964.0,722.0 963.0,723.0 960.0,723.0 960.0,726.0" stroke="black" /><polyline fill="none" points="692.0,583.0 691.0,584.0 688.0,584.0 687.0,585.0 686.0,585.0 684.0,587.0 683.0,587.0 674.0,597.0 674.0,601.0 673.0,602.0 673.0,603.0 672.0,604.0 672.0,606.0 671.0,607.0 671.0,611.0 670.0,612.0 670.0,617.0 669.0,618.0 669.0,623.0 668.0,624.0 668.0,627.0 667.0,628.0 667.0,659.0 668.0,660.0 668.0,662.0 669.0,663.0 669.0,666.0 670.0,667.0 670.0,669.0 675.0,678.0 675.0,683.0 676.0,684.0 676.0,685.0 680.0,689.0 680.0,690.0 682.0,690.0 684.0,692.0 684.0,694.0 686.0,697.0 686.0,701.0 688.0,703.0 688.0,705.0 692.0,710.0 692.0,713.0 693.0,713.0 694.0,714.0 694.0,716.0 696.0,718.0 696.0,720.0 698.0,722.0 700.0,727.0 702.0,729.0 702.0,730.0 703.0,731.0 703.0,733.0 706.0,735.0 706.0,738.0 707.0,739.0 707.0,740.0 709.0,742.0 709.0,743.0 711.0,745.0 711.0,746.0 712.0,747.0 712.0,749.0 714.0,751.0 714.0,753.0 715.0,754.0 715.0,766.0 716.0,767.0 716.0,770.0 717.0,771.0 717.0,773.0 718.0,774.0 718.0,776.0 719.0,777.0 719.0,778.0 723.0,782.0 725.0,782.0 726.0,783.0 734.0,783.0 735.0,782.0 737.0,782.0 737.0,780.0 726.0,780.0 721.0,775.0 721.0,774.0 719.0,771.0 719.0,769.0 718.0,768.0 718.0,765.0 717.0,764.0 717.0,752.0 716.0,751.0 716.0,748.0 714.0,746.0 714.0,745.0 713.0,744.0 713.0,742.0 710.0,739.0 710.0,738.0 708.0,735.0 708.0,732.0 707.0,732.0 705.0,730.0 705.0,728.0 703.0,726.0 703.0,725.0 702.0,724.0 700.0,719.0 696.0,714.0 696.0,712.0 694.0,710.0 694.0,707.0 693.0,706.0 693.0,700.0 694.0,699.0 704.0,699.0 704.0,693.0 705.0,692.0 706.0,692.0 706.0,689.0 705.0,688.0 703.0,688.0 702.0,687.0 697.0,687.0 696.0,686.0 696.0,678.0 698.0,676.0 701.0,676.0 702.0,675.0 704.0,675.0 706.0,673.0 706.0,671.0 710.0,667.0 712.0,662.0 714.0,660.0 714.0,657.0 715.0,656.0 715.0,647.0 714.0,647.0 713.0,646.0 711.0,646.0 710.0,645.0 710.0,638.0 712.0,635.0 712.0,624.0 711.0,623.0 711.0,621.0 709.0,619.0 709.0,615.0 707.0,615.0 707.0,617.0 706.0,618.0 706.0,620.0 707.0,621.0 707.0,627.0 705.0,629.0 702.0,629.0 702.0,635.0 700.0,637.0 700.0,639.0 699.0,640.0 699.0,641.0 697.0,643.0 697.0,649.0 698.0,649.0 699.0,650.0 699.0,652.0 701.0,652.0 702.0,653.0 702.0,662.0 701.0,663.0 700.0,663.0 700.0,665.0 698.0,667.0 698.0,668.0 697.0,669.0 697.0,671.0 693.0,678.0 693.0,683.0 690.0,685.0 680.0,685.0 679.0,684.0 679.0,678.0 676.0,675.0 676.0,674.0 674.0,671.0 674.0,669.0 671.0,664.0 671.0,661.0 670.0,660.0 670.0,655.0 669.0,654.0 669.0,634.0 670.0,633.0 670.0,626.0 671.0,625.0 671.0,620.0 672.0,619.0 672.0,614.0 673.0,613.0 673.0,609.0 674.0,608.0 674.0,606.0 676.0,603.0 676.0,600.0 678.0,598.0 684.0,598.0 688.0,602.0 689.0,602.0 691.0,604.0 694.0,604.0 695.0,605.0 701.0,605.0 701.0,604.0 702.0,603.0 703.0,603.0 703.0,602.0 704.0,601.0 704.0,595.0 703.0,594.0 703.0,593.0 698.0,593.0 698.0,599.0 697.0,600.0 691.0,600.0 690.0,599.0 690.0,597.0 689.0,597.0 686.0,595.0 686.0,589.0 687.0,588.0 689.0,588.0 691.0,586.0 693.0,586.0 694.0,585.0 702.0,585.0 702.0,583.0" stroke="black" /><polyline fill="none" points="613.0,578.0 611.0,578.0 611.0,580.0 610.0,581.0 610.0,582.0 609.0,583.0 609.0,585.0 608.0,586.0 608.0,587.0 607.0,588.0 607.0,589.0 606.0,590.0 606.0,591.0 605.0,592.0 605.0,593.0 604.0,594.0 604.0,595.0 603.0,596.0 603.0,603.0 602.0,604.0 602.0,606.0 601.0,607.0 601.0,610.0 600.0,611.0 600.0,612.0 599.0,613.0 599.0,614.0 598.0,615.0 598.0,619.0 597.0,620.0 597.0,622.0 596.0,623.0 596.0,625.0 595.0,626.0 595.0,629.0 594.0,630.0 594.0,631.0 593.0,632.0 593.0,635.0 591.0,637.0 591.0,642.0 590.0,643.0 590.0,646.0 592.0,646.0 592.0,645.0 593.0,644.0 593.0,639.0 595.0,637.0 595.0,634.0 596.0,633.0 596.0,632.0 597.0,631.0 597.0,628.0 598.0,627.0 598.0,625.0 599.0,624.0 599.0,622.0 600.0,621.0 600.0,617.0 601.0,616.0 601.0,615.0 602.0,614.0 602.0,613.0 603.0,612.0 603.0,609.0 604.0,608.0 604.0,606.0 605.0,605.0 605.0,598.0 606.0,597.0 606.0,596.0 607.0,595.0 607.0,594.0 608.0,593.0 608.0,592.0 609.0,591.0 609.0,590.0 611.0,588.0 611.0,585.0 612.0,584.0 612.0,583.0 613.0,582.0" stroke="black" /><polyline fill="none" points="838.0,570.0 844.0,570.0 845.0,571.0 845.0,572.0 847.0,572.0 848.0,573.0 848.0,577.0 849.0,578.0 849.0,579.0 851.0,581.0 851.0,590.0 850.0,591.0 844.0,591.0 842.0,589.0 841.0,589.0 840.0,588.0 839.0,588.0 837.0,586.0 836.0,586.0 834.0,584.0 834.0,578.0 836.0,576.0 836.0,572.0" stroke="black" /><polyline fill="none" points="1120.0,564.0 1121.0,563.0 1125.0,563.0 1126.0,562.0 1127.0,562.0 1128.0,561.0 1134.0,561.0 1135.0,562.0 1135.0,564.0 1136.0,565.0 1136.0,566.0 1138.0,568.0 1138.0,569.0 1139.0,570.0 1140.0,570.0 1143.0,573.0 1143.0,579.0 1142.0,580.0 1134.0,580.0 1133.0,579.0 1132.0,579.0 1131.0,578.0 1129.0,578.0 1128.0,577.0 1126.0,577.0 1124.0,575.0 1123.0,575.0 1121.0,573.0 1121.0,572.0 1120.0,571.0" stroke="black" /><polyline fill="none" points="744.0,535.0 743.0,536.0 742.0,536.0 740.0,539.0 738.0,539.0 738.0,545.0 737.0,546.0 737.0,547.0 736.0,548.0 736.0,549.0 734.0,552.0 734.0,557.0 733.0,558.0 733.0,573.0 732.0,574.0 732.0,578.0 731.0,579.0 731.0,582.0 730.0,583.0 730.0,585.0 731.0,586.0 731.0,597.0 730.0,598.0 730.0,601.0 729.0,602.0 729.0,629.0 728.0,630.0 728.0,636.0 729.0,637.0 729.0,648.0 730.0,649.0 730.0,656.0 731.0,657.0 731.0,668.0 732.0,669.0 732.0,672.0 733.0,673.0 733.0,678.0 734.0,679.0 734.0,682.0 736.0,685.0 736.0,697.0 737.0,698.0 737.0,707.0 736.0,708.0 729.0,708.0 729.0,710.0 731.0,712.0 731.0,719.0 730.0,720.0 723.0,720.0 722.0,719.0 722.0,716.0 721.0,715.0 721.0,714.0 717.0,710.0 717.0,709.0 715.0,707.0 714.0,707.0 713.0,706.0 713.0,705.0 711.0,705.0 711.0,709.0 712.0,709.0 715.0,711.0 715.0,713.0 716.0,714.0 716.0,722.0 726.0,722.0 727.0,723.0 727.0,729.0 726.0,730.0 726.0,733.0 728.0,733.0 729.0,734.0 729.0,736.0 730.0,737.0 730.0,738.0 736.0,738.0 737.0,739.0 737.0,740.0 739.0,742.0 739.0,745.0 741.0,748.0 741.0,753.0 742.0,754.0 742.0,763.0 750.0,763.0 752.0,765.0 752.0,769.0 753.0,770.0 753.0,782.0 755.0,782.0 755.0,768.0 754.0,767.0 754.0,760.0 752.0,758.0 752.0,751.0 751.0,750.0 751.0,747.0 750.0,746.0 750.0,739.0 749.0,738.0 749.0,735.0 748.0,734.0 748.0,733.0 746.0,730.0 746.0,726.0 744.0,723.0 744.0,712.0 745.0,711.0 745.0,709.0 744.0,709.0 742.0,707.0 742.0,704.0 741.0,703.0 741.0,702.0 739.0,700.0 739.0,687.0 738.0,686.0 738.0,683.0 736.0,680.0 736.0,677.0 735.0,676.0 735.0,671.0 734.0,670.0 734.0,658.0 733.0,657.0 733.0,652.0 732.0,651.0 732.0,647.0 731.0,646.0 731.0,634.0 732.0,633.0 732.0,628.0 731.0,627.0 731.0,612.0 732.0,611.0 732.0,600.0 733.0,599.0 733.0,591.0 734.0,590.0 734.0,576.0 735.0,575.0 735.0,560.0 736.0,559.0 736.0,557.0 737.0,556.0 740.0,556.0 740.0,543.0 741.0,542.0 745.0,542.0 746.0,541.0 746.0,535.0" stroke="black" /><polyline fill="none" points="1211.0,555.0 1206.0,550.0 1203.0,550.0 1199.0,546.0 1198.0,546.0 1196.0,544.0 1195.0,544.0 1194.0,543.0 1193.0,543.0 1192.0,542.0 1189.0,542.0 1189.0,543.0 1188.0,544.0 1188.0,553.0 1187.0,554.0 1186.0,554.0 1185.0,555.0 1185.0,558.0 1184.0,559.0 1184.0,562.0 1183.0,563.0 1183.0,564.0 1181.0,566.0 1181.0,567.0 1176.0,572.0 1175.0,572.0 1173.0,574.0 1172.0,574.0 1171.0,575.0 1169.0,575.0 1168.0,576.0 1166.0,576.0 1165.0,577.0 1159.0,577.0 1158.0,576.0 1153.0,576.0 1151.0,574.0 1150.0,574.0 1148.0,572.0 1147.0,572.0 1143.0,568.0 1142.0,568.0 1141.0,567.0 1141.0,561.0 1142.0,560.0 1152.0,560.0 1153.0,559.0 1153.0,548.0 1150.0,545.0 1150.0,538.0 1151.0,537.0 1154.0,537.0 1155.0,536.0 1158.0,536.0 1159.0,535.0 1164.0,535.0 1165.0,534.0 1175.0,534.0 1176.0,535.0 1182.0,535.0 1183.0,536.0 1186.0,536.0 1186.0,534.0 1185.0,534.0 1184.0,533.0 1182.0,533.0 1181.0,532.0 1175.0,532.0 1174.0,531.0 1170.0,531.0 1169.0,532.0 1163.0,532.0 1162.0,533.0 1157.0,533.0 1156.0,534.0 1153.0,534.0 1152.0,535.0 1146.0,535.0 1145.0,536.0 1142.0,536.0 1140.0,538.0 1136.0,538.0 1134.0,540.0 1129.0,540.0 1128.0,541.0 1125.0,541.0 1124.0,542.0 1123.0,542.0 1122.0,543.0 1121.0,543.0 1120.0,544.0 1118.0,544.0 1117.0,545.0 1115.0,545.0 1114.0,546.0 1113.0,546.0 1111.0,548.0 1110.0,548.0 1107.0,551.0 1106.0,551.0 1103.0,554.0 1102.0,554.0 1093.0,563.0 1093.0,564.0 1091.0,566.0 1091.0,567.0 1090.0,568.0 1090.0,570.0 1089.0,571.0 1089.0,575.0 1090.0,576.0 1091.0,576.0 1092.0,577.0 1092.0,583.0 1094.0,583.0 1094.0,582.0 1095.0,581.0 1095.0,579.0 1096.0,578.0 1104.0,578.0 1105.0,577.0 1106.0,577.0 1106.0,573.0 1104.0,573.0 1104.0,574.0 1102.0,576.0 1096.0,576.0 1094.0,574.0 1094.0,568.0 1095.0,567.0 1095.0,566.0 1099.0,562.0 1099.0,561.0 1100.0,560.0 1101.0,560.0 1108.0,553.0 1109.0,553.0 1110.0,552.0 1117.0,552.0 1118.0,553.0 1118.0,561.0 1117.0,562.0 1116.0,562.0 1116.0,563.0 1115.0,564.0 1115.0,572.0 1116.0,573.0 1117.0,573.0 1119.0,575.0 1119.0,576.0 1120.0,577.0 1121.0,577.0 1122.0,578.0 1123.0,578.0 1124.0,579.0 1126.0,579.0 1127.0,580.0 1128.0,580.0 1129.0,581.0 1131.0,581.0 1132.0,582.0 1136.0,582.0 1137.0,583.0 1142.0,583.0 1143.0,584.0 1146.0,584.0 1147.0,585.0 1154.0,585.0 1155.0,586.0 1166.0,586.0 1167.0,585.0 1172.0,585.0 1173.0,584.0 1176.0,584.0 1176.0,576.0 1178.0,574.0 1179.0,574.0 1183.0,570.0 1183.0,569.0 1185.0,567.0 1185.0,566.0 1187.0,564.0 1187.0,562.0 1188.0,561.0 1189.0,561.0 1190.0,560.0 1194.0,560.0 1195.0,559.0 1203.0,559.0 1204.0,560.0 1204.0,567.0 1207.0,567.0 1209.0,565.0 1209.0,563.0 1210.0,562.0 1211.0,562.0" stroke="black" /><polyline fill="none" points="916.0,526.0 913.0,526.0 907.0,522.0 904.0,522.0 903.0,521.0 900.0,521.0 897.0,519.0 893.0,519.0 892.0,518.0 881.0,518.0 880.0,519.0 854.0,519.0 852.0,521.0 848.0,521.0 847.0,522.0 842.0,522.0 841.0,523.0 838.0,523.0 837.0,524.0 834.0,524.0 833.0,525.0 830.0,525.0 825.0,528.0 822.0,528.0 819.0,531.0 818.0,531.0 817.0,532.0 815.0,532.0 814.0,533.0 812.0,533.0 811.0,534.0 811.0,536.0 818.0,536.0 819.0,537.0 819.0,543.0 818.0,544.0 818.0,545.0 814.0,549.0 813.0,552.0 810.0,555.0 810.0,556.0 807.0,558.0 807.0,561.0 811.0,561.0 812.0,562.0 812.0,572.0 814.0,572.0 814.0,571.0 816.0,569.0 817.0,569.0 817.0,567.0 818.0,566.0 820.0,566.0 821.0,565.0 824.0,564.0 826.0,562.0 833.0,562.0 834.0,563.0 834.0,569.0 832.0,571.0 831.0,571.0 827.0,575.0 827.0,582.0 830.0,586.0 833.0,587.0 836.0,590.0 838.0,590.0 842.0,594.0 844.0,594.0 845.0,595.0 848.0,595.0 849.0,596.0 853.0,596.0 854.0,597.0 856.0,597.0 857.0,598.0 880.0,598.0 881.0,597.0 885.0,597.0 886.0,596.0 893.0,596.0 897.0,593.0 902.0,593.0 903.0,592.0 906.0,592.0 908.0,590.0 911.0,590.0 912.0,589.0 915.0,588.0 915.0,587.0 917.0,585.0 917.0,583.0 914.0,583.0 912.0,586.0 911.0,586.0 908.0,588.0 906.0,588.0 903.0,590.0 896.0,590.0 895.0,589.0 895.0,583.0 898.0,580.0 898.0,579.0 900.0,577.0 900.0,576.0 902.0,573.0 902.0,567.0 903.0,566.0 903.0,565.0 904.0,564.0 913.0,564.0 917.0,568.0 920.0,568.0 920.0,566.0 918.0,564.0 917.0,564.0 916.0,563.0 916.0,562.0 912.0,562.0 911.0,561.0 907.0,561.0 906.0,560.0 906.0,555.0 902.0,555.0 902.0,559.0 901.0,560.0 901.0,564.0 900.0,565.0 900.0,567.0 899.0,568.0 899.0,572.0 896.0,576.0 896.0,577.0 892.0,581.0 892.0,582.0 890.0,584.0 889.0,584.0 882.0,588.0 879.0,588.0 878.0,589.0 868.0,589.0 867.0,588.0 865.0,588.0 859.0,583.0 858.0,583.0 851.0,576.0 851.0,571.0 850.0,570.0 850.0,568.0 848.0,565.0 848.0,563.0 846.0,563.0 843.0,561.0 843.0,555.0 844.0,554.0 846.0,554.0 848.0,552.0 853.0,551.0 856.0,549.0 862.0,549.0 863.0,548.0 876.0,548.0 877.0,549.0 888.0,549.0 890.0,551.0 895.0,551.0 896.0,552.0 899.0,552.0 899.0,550.0 898.0,550.0 897.0,549.0 892.0,549.0 890.0,547.0 884.0,547.0 883.0,546.0 861.0,546.0 860.0,547.0 854.0,547.0 851.0,549.0 849.0,549.0 848.0,550.0 846.0,550.0 843.0,552.0 841.0,552.0 837.0,555.0 833.0,555.0 832.0,556.0 830.0,556.0 829.0,557.0 828.0,557.0 825.0,560.0 823.0,560.0 822.0,561.0 816.0,561.0 815.0,560.0 815.0,554.0 816.0,553.0 817.0,550.0 820.0,548.0 820.0,547.0 824.0,543.0 824.0,542.0 832.0,535.0 835.0,534.0 837.0,532.0 841.0,532.0 842.0,531.0 844.0,531.0 845.0,530.0 852.0,530.0 856.0,527.0 858.0,527.0 858.0,523.0 859.0,522.0 867.0,522.0 868.0,521.0 882.0,521.0 883.0,520.0 890.0,520.0 891.0,521.0 895.0,521.0 898.0,523.0 901.0,523.0 904.0,525.0 904.0,527.0 910.0,527.0 911.0,528.0 916.0,528.0" stroke="black" /><polyline fill="none" points="866.0,494.0 861.0,494.0 860.0,493.0 858.0,493.0 857.0,492.0 854.0,492.0 853.0,491.0 850.0,491.0 849.0,490.0 839.0,490.0 838.0,491.0 833.0,491.0 832.0,492.0 832.0,494.0 831.0,495.0 825.0,495.0 824.0,494.0 819.0,494.0 818.0,493.0 817.0,493.0 816.0,492.0 814.0,492.0 812.0,494.0 800.0,494.0 800.0,497.0 801.0,498.0 801.0,499.0 803.0,501.0 805.0,501.0 806.0,502.0 812.0,502.0 812.0,498.0 814.0,496.0 822.0,496.0 823.0,497.0 837.0,497.0 837.0,495.0 839.0,493.0 840.0,493.0 841.0,492.0 847.0,492.0 848.0,493.0 851.0,493.0 852.0,494.0 855.0,494.0 856.0,495.0 858.0,495.0 859.0,496.0 866.0,496.0" stroke="black" /><polyline fill="none" points="1273.0,482.0 1273.0,486.0 1274.0,487.0 1274.0,491.0 1275.0,492.0 1275.0,496.0 1276.0,497.0 1276.0,501.0 1277.0,502.0 1277.0,503.0 1278.0,503.0 1279.0,504.0 1279.0,508.0 1280.0,509.0 1280.0,513.0 1281.0,514.0 1281.0,519.0 1282.0,520.0 1282.0,523.0 1283.0,524.0 1283.0,527.0 1284.0,528.0 1284.0,532.0 1285.0,533.0 1285.0,536.0 1286.0,537.0 1286.0,539.0 1287.0,540.0 1287.0,545.0 1288.0,546.0 1288.0,550.0 1289.0,551.0 1289.0,555.0 1290.0,556.0 1290.0,558.0 1291.0,559.0 1291.0,563.0 1292.0,564.0 1292.0,568.0 1293.0,569.0 1293.0,573.0 1294.0,574.0 1294.0,581.0 1295.0,582.0 1295.0,587.0 1296.0,588.0 1296.0,600.0 1297.0,601.0 1297.0,629.0 1296.0,630.0 1296.0,640.0 1295.0,641.0 1295.0,643.0 1297.0,643.0 1298.0,642.0 1298.0,641.0 1299.0,640.0 1299.0,599.0 1298.0,598.0 1298.0,586.0 1297.0,585.0 1297.0,580.0 1296.0,579.0 1296.0,572.0 1295.0,571.0 1295.0,567.0 1294.0,566.0 1294.0,562.0 1293.0,561.0 1293.0,557.0 1292.0,556.0 1292.0,554.0 1291.0,553.0 1291.0,549.0 1290.0,548.0 1290.0,544.0 1289.0,543.0 1289.0,538.0 1288.0,537.0 1288.0,535.0 1287.0,534.0 1287.0,531.0 1286.0,530.0 1286.0,526.0 1285.0,525.0 1285.0,522.0 1284.0,521.0 1284.0,518.0 1283.0,517.0 1283.0,512.0 1282.0,511.0 1282.0,507.0 1281.0,506.0 1281.0,502.0 1279.0,500.0 1279.0,497.0 1278.0,496.0 1278.0,495.0 1277.0,494.0 1277.0,490.0 1276.0,489.0 1276.0,485.0 1275.0,484.0 1275.0,482.0" stroke="black" /><polyline fill="none" points="947.0,460.0 944.0,457.0 943.0,457.0 942.0,456.0 941.0,456.0 935.0,450.0 934.0,450.0 932.0,447.0 928.0,447.0 928.0,450.0 926.0,452.0 919.0,452.0 917.0,450.0 913.0,450.0 913.0,451.0 912.0,452.0 905.0,452.0 903.0,450.0 900.0,450.0 900.0,455.0 899.0,456.0 896.0,456.0 895.0,457.0 885.0,457.0 884.0,456.0 884.0,454.0 881.0,454.0 880.0,455.0 877.0,455.0 875.0,457.0 867.0,457.0 866.0,456.0 866.0,452.0 864.0,452.0 863.0,451.0 861.0,451.0 859.0,453.0 857.0,453.0 856.0,454.0 836.0,454.0 835.0,453.0 833.0,453.0 832.0,452.0 829.0,452.0 828.0,453.0 827.0,453.0 824.0,455.0 822.0,455.0 821.0,456.0 818.0,456.0 818.0,459.0 817.0,460.0 815.0,460.0 814.0,461.0 811.0,461.0 810.0,462.0 809.0,462.0 800.0,471.0 800.0,472.0 796.0,476.0 795.0,476.0 792.0,479.0 791.0,479.0 790.0,480.0 788.0,480.0 787.0,481.0 786.0,481.0 785.0,482.0 784.0,482.0 783.0,483.0 783.0,484.0 780.0,486.0 780.0,491.0 777.0,494.0 771.0,494.0 770.0,493.0 770.0,490.0 768.0,490.0 768.0,492.0 767.0,493.0 767.0,494.0 766.0,495.0 766.0,496.0 764.0,499.0 764.0,501.0 763.0,502.0 763.0,503.0 762.0,504.0 762.0,505.0 760.0,507.0 760.0,509.0 759.0,510.0 759.0,511.0 757.0,514.0 757.0,517.0 767.0,517.0 767.0,516.0 768.0,515.0 768.0,514.0 769.0,513.0 769.0,512.0 771.0,509.0 771.0,505.0 783.0,493.0 783.0,492.0 784.0,491.0 784.0,488.0 785.0,487.0 785.0,486.0 787.0,484.0 788.0,484.0 791.0,482.0 793.0,482.0 794.0,481.0 795.0,481.0 798.0,478.0 799.0,478.0 802.0,475.0 802.0,474.0 803.0,473.0 808.0,473.0 811.0,470.0 811.0,469.0 812.0,468.0 814.0,468.0 817.0,466.0 828.0,466.0 831.0,464.0 838.0,464.0 839.0,465.0 839.0,469.0 845.0,469.0 846.0,468.0 847.0,468.0 849.0,465.0 852.0,465.0 853.0,464.0 859.0,464.0 860.0,463.0 872.0,463.0 872.0,462.0 873.0,461.0 882.0,461.0 883.0,460.0 892.0,460.0 893.0,461.0 900.0,461.0 901.0,462.0 905.0,462.0 908.0,464.0 910.0,464.0 911.0,465.0 913.0,465.0 914.0,466.0 916.0,466.0 917.0,467.0 920.0,467.0 923.0,469.0 923.0,471.0 924.0,472.0 927.0,472.0 929.0,474.0 929.0,476.0 931.0,479.0 933.0,479.0 933.0,477.0 932.0,476.0 932.0,474.0 931.0,473.0 931.0,471.0 926.0,466.0 923.0,466.0 922.0,465.0 919.0,465.0 918.0,464.0 916.0,464.0 915.0,463.0 915.0,457.0 916.0,456.0 918.0,456.0 918.0,455.0 919.0,454.0 934.0,454.0 938.0,458.0 940.0,458.0 941.0,459.0 941.0,462.0 943.0,464.0 943.0,466.0 945.0,466.0 945.0,463.0 946.0,462.0 947.0,462.0" stroke="black" /><polyline fill="none" points="1326.0,387.0 1323.0,379.0 1320.0,378.0 1319.0,371.0 1312.0,360.0 1312.0,352.0 1308.0,344.0 1308.0,338.0 1311.0,337.0 1310.0,331.0 1299.0,308.0 1291.0,286.0 1278.0,268.0 1275.0,259.0 1264.0,247.0 1261.0,246.0 1259.0,239.0 1252.0,234.0 1252.0,230.0 1249.0,224.0 1226.0,200.0 1226.0,197.0 1220.0,190.0 1212.0,185.0 1203.0,175.0 1194.0,171.0 1187.0,163.0 1180.0,160.0 1161.0,145.0 1129.0,125.0 1115.0,119.0 1106.0,112.0 1097.0,108.0 1096.0,104.0 1089.0,104.0 1081.0,96.0 1058.0,88.0 1044.0,89.0 1043.0,94.0 1037.0,94.0 1036.0,92.0 1022.0,92.0 1021.0,88.0 999.0,90.0 994.0,93.0 993.0,97.0 977.0,98.0 975.0,100.0 964.0,103.0 954.0,112.0 945.0,112.0 944.0,109.0 929.0,110.0 927.0,112.0 918.0,114.0 913.0,119.0 902.0,120.0 894.0,128.0 881.0,128.0 879.0,130.0 872.0,130.0 871.0,137.0 866.0,138.0 865.0,143.0 856.0,145.0 850.0,154.0 841.0,158.0 840.0,160.0 837.0,160.0 836.0,164.0 823.0,175.0 815.0,175.0 814.0,182.0 811.0,182.0 804.0,190.0 799.0,190.0 799.0,196.0 790.0,205.0 788.0,205.0 788.0,209.0 779.0,213.0 772.0,220.0 771.0,225.0 767.0,226.0 759.0,234.0 758.0,239.0 748.0,247.0 746.0,252.0 741.0,255.0 734.0,264.0 732.0,270.0 726.0,276.0 726.0,282.0 723.0,286.0 721.0,286.0 714.0,298.0 711.0,311.0 708.0,312.0 696.0,331.0 694.0,340.0 686.0,348.0 682.0,356.0 680.0,372.0 674.0,376.0 670.0,382.0 663.0,398.0 661.0,407.0 651.0,425.0 651.0,430.0 645.0,443.0 644.0,455.0 647.0,453.0 647.0,445.0 657.0,420.0 664.0,419.0 666.0,424.0 669.0,424.0 669.0,420.0 673.0,414.0 678.0,400.0 684.0,396.0 684.0,393.0 681.0,392.0 681.0,386.0 685.0,381.0 690.0,367.0 711.0,328.0 715.0,315.0 726.0,301.0 738.0,279.0 739.0,274.0 736.0,273.0 736.0,267.0 743.0,258.0 750.0,258.0 755.0,254.0 763.0,242.0 778.0,228.0 778.0,224.0 783.0,223.0 810.0,192.0 822.0,184.0 834.0,173.0 847.0,165.0 851.0,160.0 858.0,157.0 884.0,139.0 895.0,134.0 901.0,134.0 913.0,129.0 920.0,129.0 920.0,126.0 927.0,121.0 961.0,120.0 962.0,118.0 975.0,116.0 976.0,122.0 978.0,122.0 981.0,119.0 988.0,117.0 992.0,109.0 1017.0,107.0 1018.0,104.0 1022.0,103.0 1023.0,100.0 1038.0,99.0 1041.0,102.0 1045.0,102.0 1047.0,105.0 1061.0,105.0 1075.0,108.0 1077.0,111.0 1081.0,111.0 1090.0,116.0 1098.0,118.0 1101.0,121.0 1108.0,121.0 1135.0,140.0 1161.0,155.0 1181.0,171.0 1187.0,173.0 1189.0,177.0 1198.0,184.0 1239.0,228.0 1239.0,230.0 1253.0,245.0 1268.0,267.0 1269.0,271.0 1281.0,289.0 1281.0,292.0 1284.0,293.0 1285.0,301.0 1291.0,309.0 1303.0,341.0 1309.0,352.0 1309.0,360.0 1317.0,374.0 1318.0,382.0 1323.0,392.0 1323.0,397.0 1325.0,397.0" stroke="black" /></svg>