<?xml version="1.0" encoding="utf-8" ?>
<svg baseProfile="tiny" height="800" version="1.2" width="600" xmlns="http://www.w3.org/2000/svg" xmlns:ev="http://www.w3.org/2001/xml-events" xmlns:xlink="http://www.w3.org/1999/xlink"><defs /><polyline fill="none" points="185.0,336.0 186.0,337.0 187.0,337.0 188.0,338.0 189.0,338.0 191.0,340.0 191.0,341.0 192.0,342.0 192.0,341.0 190.0,339.0 191.0,338.0 193.0,338.0 195.0,340.0 195.0,341.0 197.0,343.0 197.0,346.0 198.0,347.0 199.0,347.0 203.0,351.0 203.0,355.0 206.0,358.0 206.0,359.0 207.0,359.0 208.0,358.0 209.0,359.0 209.0,360.0 210.0,360.0 212.0,362.0 213.0,362.0 211.0,360.0 210.0,360.0 209.0,359.0 209.0,358.0 208.0,358.0 207.0,359.0 206.0,358.0 206.0,357.0 203.0,354.0 203.0,350.0 200.0,347.0 199.0,347.0 197.0,345.0 197.0,342.0 195.0,340.0 195.0,339.0 194.0,339.0 193.0,338.0 188.0,338.0 187.0,337.0 186.0,337.0" stroke="black" /></svg>