<?xml version="1.0" encoding="utf-8" ?>
<svg baseProfile="tiny" height="187" version="1.2" width="250" xmlns="http://www.w3.org/2000/svg" xmlns:ev="http://www.w3.org/2001/xml-events" xmlns:xlink="http://www.w3.org/1999/xlink"><defs /><circle cx="151" cy="77" fill="black" r="0.5" /><circle cx="164" cy="77" fill="black" r="0.5" /><circle cx="165" cy="77" fill="black" r="0.5" /><circle cx="175" cy="77" fill="black" r="0.5" /><circle cx="188" cy="77" fill="black" r="0.5" /><circle cx="189" cy="77" fill="black" r="0.5" /><circle cx="190" cy="77" fill="black" r="0.5" /><circle cx="191" cy="77" fill="black" r="0.5" /><circle cx="192" cy="77" fill="black" r="0.5" /><circle cx="104" cy="78" fill="black" r="0.5" /><circle cx="105" cy="78" fill="black" r="0.5" /><circle cx="106" cy="78" fill="black" r="0.5" /><circle cx="107" cy="78" fill="black" r="0.5" /><circle cx="108" cy="78" fill="black" r="0.5" /><circle cx="109" cy="78" fill="black" r="0.5" /><circle cx="110" cy="78" fill="black" r="0.5" /><circle cx="111" cy="78" fill="black" r="0.5" /><circle cx="112" cy="78" fill="black" r="0.5" /><circle cx="113" cy="78" fill="black" r="0.5" /><circle cx="114" cy="78" fill="black" r="0.5" /><circle cx="115" cy="78" fill="black" r="0.5" /><circle cx="116" cy="78" fill="black" r="0.5" /><circle cx="125" cy="78" fill="black" r="0.5" /><circle cx="126" cy="78" fill="black" r="0.5" /><circle cx="139" cy="78" fill="black" r="0.5" /><circle cx="140" cy="78" fill="black" r="0.5" /><circle cx="142" cy="78" fill="black" r="0.5" /><circle cx="150" cy="78" fill="black" r="0.5" /><circle cx="152" cy="78" fill="black" r="0.5" /><circle cx="153" cy="78" fill="black" r="0.5" /><circle cx="163" cy="78" fill="black" r="0.5" /><circle cx="164" cy="78" fill="black" r="0.5" /><circle cx="166" cy="78" fill="black" r="0.5" /><circle cx="167" cy="78" fill="black" r="0.5" /><circle cx="175" cy="78" fill="black" r="0.5" /><circle cx="176" cy="78" fill="black" r="0.5" /><circle cx="177" cy="78" fill="black" r="0.5" /><circle cx="188" cy="78" fill="black" r="0.5" /><circle cx="192" cy="78" fill="black" r="0.5" /><circle cx="205" cy="78" fill="black" r="0.5" /><circle cx="206" cy="78" fill="black" r="0.5" /><circle cx="80" cy="79" fill="black" r="0.5" /><circle cx="81" cy="79" fill="black" r="0.5" /><circle cx="82" cy="79" fill="black" r="0.5" /><circle cx="83" cy="79" fill="black" r="0.5" /><circle cx="84" cy="79" fill="black" r="0.5" /><circle cx="102" cy="79" fill="black" r="0.5" /><circle cx="103" cy="79" fill="black" r="0.5" /><circle cx="116" cy="79" fill="black" r="0.5" /><circle cx="117" cy="79" fill="black" r="0.5" /><circle cx="118" cy="79" fill="black" r="0.5" /><circle cx="125" cy="79" fill="black" r="0.5" /><circle cx="127" cy="79" fill="black" r="0.5" /><circle cx="128" cy="79" fill="black" r="0.5" /><circle cx="139" cy="79" fill="black" r="0.5" /><circle cx="142" cy="79" fill="black" r="0.5" /><circle cx="150" cy="79" fill="black" r="0.5" /><circle cx="153" cy="79" fill="black" r="0.5" /><circle cx="163" cy="79" fill="black" r="0.5" /><circle cx="167" cy="79" fill="black" r="0.5" /><circle cx="174" cy="79" fill="black" r="0.5" /><circle cx="178" cy="79" fill="black" r="0.5" /><circle cx="179" cy="79" fill="black" r="0.5" /><circle cx="188" cy="79" fill="black" r="0.5" /><circle cx="192" cy="79" fill="black" r="0.5" /><circle cx="204" cy="79" fill="black" r="0.5" /><circle cx="205" cy="79" fill="black" r="0.5" /><circle cx="207" cy="79" fill="black" r="0.5" /><circle cx="208" cy="79" fill="black" r="0.5" /><circle cx="80" cy="80" fill="black" r="0.5" /><circle cx="84" cy="80" fill="black" r="0.5" /><circle cx="103" cy="80" fill="black" r="0.5" /><circle cx="118" cy="80" fill="black" r="0.5" /><circle cx="125" cy="80" fill="black" r="0.5" /><circle cx="128" cy="80" fill="black" r="0.5" /><circle cx="129" cy="80" fill="black" r="0.5" /><circle cx="138" cy="80" fill="black" r="0.5" /><circle cx="139" cy="80" fill="black" r="0.5" /><circle cx="142" cy="80" fill="black" r="0.5" /><circle cx="149" cy="80" fill="black" r="0.5" /><circle cx="154" cy="80" fill="black" r="0.5" /><circle cx="163" cy="80" fill="black" r="0.5" /><circle cx="167" cy="80" fill="black" r="0.5" /><circle cx="174" cy="80" fill="black" r="0.5" /><circle cx="179" cy="80" fill="black" r="0.5" /><circle cx="180" cy="80" fill="black" r="0.5" /><circle cx="188" cy="80" fill="black" r="0.5" /><circle cx="192" cy="80" fill="black" r="0.5" /><circle cx="204" cy="80" fill="black" r="0.5" /><circle cx="208" cy="80" fill="black" r="0.5" /><circle cx="80" cy="81" fill="black" r="0.5" /><circle cx="84" cy="81" fill="black" r="0.5" /><circle cx="102" cy="81" fill="black" r="0.5" /><circle cx="117" cy="81" fill="black" r="0.5" /><circle cx="125" cy="81" fill="black" r="0.5" /><circle cx="129" cy="81" fill="black" r="0.5" /><circle cx="137" cy="81" fill="black" r="0.5" /><circle cx="138" cy="81" fill="black" r="0.5" /><circle cx="142" cy="81" fill="black" r="0.5" /><circle cx="149" cy="81" fill="black" r="0.5" /><circle cx="154" cy="81" fill="black" r="0.5" /><circle cx="162" cy="81" fill="black" r="0.5" /><circle cx="167" cy="81" fill="black" r="0.5" /><circle cx="174" cy="81" fill="black" r="0.5" /><circle cx="180" cy="81" fill="black" r="0.5" /><circle cx="188" cy="81" fill="black" r="0.5" /><circle cx="192" cy="81" fill="black" r="0.5" /><circle cx="204" cy="81" fill="black" r="0.5" /><circle cx="208" cy="81" fill="black" r="0.5" /><circle cx="80" cy="82" fill="black" r="0.5" /><circle cx="84" cy="82" fill="black" r="0.5" /><circle cx="102" cy="82" fill="black" r="0.5" /><circle cx="110" cy="82" fill="black" r="0.5" /><circle cx="111" cy="82" fill="black" r="0.5" /><circle cx="112" cy="82" fill="black" r="0.5" /><circle cx="113" cy="82" fill="black" r="0.5" /><circle cx="114" cy="82" fill="black" r="0.5" /><circle cx="115" cy="82" fill="black" r="0.5" /><circle cx="116" cy="82" fill="black" r="0.5" /><circle cx="117" cy="82" fill="black" r="0.5" /><circle cx="125" cy="82" fill="black" r="0.5" /><circle cx="129" cy="82" fill="black" r="0.5" /><circle cx="130" cy="82" fill="black" r="0.5" /><circle cx="136" cy="82" fill="black" r="0.5" /><circle cx="137" cy="82" fill="black" r="0.5" /><circle cx="142" cy="82" fill="black" r="0.5" /><circle cx="149" cy="82" fill="black" r="0.5" /><circle cx="154" cy="82" fill="black" r="0.5" /><circle cx="163" cy="82" fill="black" r="0.5" /><circle cx="167" cy="82" fill="black" r="0.5" /><circle cx="174" cy="82" fill="black" r="0.5" /><circle cx="180" cy="82" fill="black" r="0.5" /><circle cx="181" cy="82" fill="black" r="0.5" /><circle cx="188" cy="82" fill="black" r="0.5" /><circle cx="192" cy="82" fill="black" r="0.5" /><circle cx="203" cy="82" fill="black" r="0.5" /><circle cx="204" cy="82" fill="black" r="0.5" /><circle cx="208" cy="82" fill="black" r="0.5" /><circle cx="80" cy="83" fill="black" r="0.5" /><circle cx="84" cy="83" fill="black" r="0.5" /><circle cx="102" cy="83" fill="black" r="0.5" /><circle cx="107" cy="83" fill="black" r="0.5" /><circle cx="108" cy="83" fill="black" r="0.5" /><circle cx="109" cy="83" fill="black" r="0.5" /><circle cx="125" cy="83" fill="black" r="0.5" /><circle cx="130" cy="83" fill="black" r="0.5" /><circle cx="131" cy="83" fill="black" r="0.5" /><circle cx="136" cy="83" fill="black" r="0.5" /><circle cx="142" cy="83" fill="black" r="0.5" /><circle cx="149" cy="83" fill="black" r="0.5" /><circle cx="154" cy="83" fill="black" r="0.5" /><circle cx="162" cy="83" fill="black" r="0.5" /><circle cx="167" cy="83" fill="black" r="0.5" /><circle cx="174" cy="83" fill="black" r="0.5" /><circle cx="181" cy="83" fill="black" r="0.5" /><circle cx="182" cy="83" fill="black" r="0.5" /><circle cx="188" cy="83" fill="black" r="0.5" /><circle cx="192" cy="83" fill="black" r="0.5" /><circle cx="203" cy="83" fill="black" r="0.5" /><circle cx="208" cy="83" fill="black" r="0.5" /><circle cx="80" cy="84" fill="black" r="0.5" /><circle cx="84" cy="84" fill="black" r="0.5" /><circle cx="102" cy="84" fill="black" r="0.5" /><circle cx="107" cy="84" fill="black" r="0.5" /><circle cx="125" cy="84" fill="black" r="0.5" /><circle cx="131" cy="84" fill="black" r="0.5" /><circle cx="132" cy="84" fill="black" r="0.5" /><circle cx="135" cy="84" fill="black" r="0.5" /><circle cx="136" cy="84" fill="black" r="0.5" /><circle cx="142" cy="84" fill="black" r="0.5" /><circle cx="149" cy="84" fill="black" r="0.5" /><circle cx="154" cy="84" fill="black" r="0.5" /><circle cx="162" cy="84" fill="black" r="0.5" /><circle cx="167" cy="84" fill="black" r="0.5" /><circle cx="174" cy="84" fill="black" r="0.5" /><circle cx="182" cy="84" fill="black" r="0.5" /><circle cx="183" cy="84" fill="black" r="0.5" /><circle cx="188" cy="84" fill="black" r="0.5" /><circle cx="192" cy="84" fill="black" r="0.5" /><circle cx="202" cy="84" fill="black" r="0.5" /><circle cx="207" cy="84" fill="black" r="0.5" /><circle cx="80" cy="85" fill="black" r="0.5" /><circle cx="84" cy="85" fill="black" r="0.5" /><circle cx="102" cy="85" fill="black" r="0.5" /><circle cx="107" cy="85" fill="black" r="0.5" /><circle cx="125" cy="85" fill="black" r="0.5" /><circle cx="132" cy="85" fill="black" r="0.5" /><circle cx="133" cy="85" fill="black" r="0.5" /><circle cx="134" cy="85" fill="black" r="0.5" /><circle cx="135" cy="85" fill="black" r="0.5" /><circle cx="142" cy="85" fill="black" r="0.5" /><circle cx="149" cy="85" fill="black" r="0.5" /><circle cx="154" cy="85" fill="black" r="0.5" /><circle cx="162" cy="85" fill="black" r="0.5" /><circle cx="167" cy="85" fill="black" r="0.5" /><circle cx="174" cy="85" fill="black" r="0.5" /><circle cx="183" cy="85" fill="black" r="0.5" /><circle cx="184" cy="85" fill="black" r="0.5" /><circle cx="186" cy="85" fill="black" r="0.5" /><circle cx="187" cy="85" fill="black" r="0.5" /><circle cx="192" cy="85" fill="black" r="0.5" /><circle cx="202" cy="85" fill="black" r="0.5" /><circle cx="207" cy="85" fill="black" r="0.5" /><circle cx="80" cy="86" fill="black" r="0.5" /><circle cx="84" cy="86" fill="black" r="0.5" /><circle cx="102" cy="86" fill="black" r="0.5" /><circle cx="107" cy="86" fill="black" r="0.5" /><circle cx="108" cy="86" fill="black" r="0.5" /><circle cx="109" cy="86" fill="black" r="0.5" /><circle cx="110" cy="86" fill="black" r="0.5" /><circle cx="111" cy="86" fill="black" r="0.5" /><circle cx="112" cy="86" fill="black" r="0.5" /><circle cx="113" cy="86" fill="black" r="0.5" /><circle cx="114" cy="86" fill="black" r="0.5" /><circle cx="115" cy="86" fill="black" r="0.5" /><circle cx="116" cy="86" fill="black" r="0.5" /><circle cx="117" cy="86" fill="black" r="0.5" /><circle cx="125" cy="86" fill="black" r="0.5" /><circle cx="142" cy="86" fill="black" r="0.5" /><circle cx="149" cy="86" fill="black" r="0.5" /><circle cx="154" cy="86" fill="black" r="0.5" /><circle cx="162" cy="86" fill="black" r="0.5" /><circle cx="167" cy="86" fill="black" r="0.5" /><circle cx="174" cy="86" fill="black" r="0.5" /><circle cx="184" cy="86" fill="black" r="0.5" /><circle cx="185" cy="86" fill="black" r="0.5" /><circle cx="187" cy="86" fill="black" r="0.5" /><circle cx="192" cy="86" fill="black" r="0.5" /><circle cx="202" cy="86" fill="black" r="0.5" /><circle cx="207" cy="86" fill="black" r="0.5" /><circle cx="80" cy="87" fill="black" r="0.5" /><circle cx="84" cy="87" fill="black" r="0.5" /><circle cx="102" cy="87" fill="black" r="0.5" /><circle cx="117" cy="87" fill="black" r="0.5" /><circle cx="118" cy="87" fill="black" r="0.5" /><circle cx="125" cy="87" fill="black" r="0.5" /><circle cx="142" cy="87" fill="black" r="0.5" /><circle cx="149" cy="87" fill="black" r="0.5" /><circle cx="153" cy="87" fill="black" r="0.5" /><circle cx="162" cy="87" fill="black" r="0.5" /><circle cx="167" cy="87" fill="black" r="0.5" /><circle cx="174" cy="87" fill="black" r="0.5" /><circle cx="179" cy="87" fill="black" r="0.5" /><circle cx="180" cy="87" fill="black" r="0.5" /><circle cx="181" cy="87" fill="black" r="0.5" /><circle cx="185" cy="87" fill="black" r="0.5" /><circle cx="187" cy="87" fill="black" r="0.5" /><circle cx="192" cy="87" fill="black" r="0.5" /><circle cx="201" cy="87" fill="black" r="0.5" /><circle cx="202" cy="87" fill="black" r="0.5" /><circle cx="207" cy="87" fill="black" r="0.5" /><circle cx="80" cy="88" fill="black" r="0.5" /><circle cx="84" cy="88" fill="black" r="0.5" /><circle cx="103" cy="88" fill="black" r="0.5" /><circle cx="118" cy="88" fill="black" r="0.5" /><circle cx="125" cy="88" fill="black" r="0.5" /><circle cx="142" cy="88" fill="black" r="0.5" /><circle cx="149" cy="88" fill="black" r="0.5" /><circle cx="154" cy="88" fill="black" r="0.5" /><circle cx="162" cy="88" fill="black" r="0.5" /><circle cx="167" cy="88" fill="black" r="0.5" /><circle cx="174" cy="88" fill="black" r="0.5" /><circle cx="178" cy="88" fill="black" r="0.5" /><circle cx="179" cy="88" fill="black" r="0.5" /><circle cx="181" cy="88" fill="black" r="0.5" /><circle cx="185" cy="88" fill="black" r="0.5" /><circle cx="186" cy="88" fill="black" r="0.5" /><circle cx="187" cy="88" fill="black" r="0.5" /><circle cx="192" cy="88" fill="black" r="0.5" /><circle cx="201" cy="88" fill="black" r="0.5" /><circle cx="208" cy="88" fill="black" r="0.5" /><circle cx="209" cy="88" fill="black" r="0.5" /><circle cx="210" cy="88" fill="black" r="0.5" /><circle cx="211" cy="88" fill="black" r="0.5" /><circle cx="80" cy="89" fill="black" r="0.5" /><circle cx="84" cy="89" fill="black" r="0.5" /><circle cx="103" cy="89" fill="black" r="0.5" /><circle cx="118" cy="89" fill="black" r="0.5" /><circle cx="125" cy="89" fill="black" r="0.5" /><circle cx="131" cy="89" fill="black" r="0.5" /><circle cx="136" cy="89" fill="black" r="0.5" /><circle cx="137" cy="89" fill="black" r="0.5" /><circle cx="138" cy="89" fill="black" r="0.5" /><circle cx="142" cy="89" fill="black" r="0.5" /><circle cx="149" cy="89" fill="black" r="0.5" /><circle cx="154" cy="89" fill="black" r="0.5" /><circle cx="162" cy="89" fill="black" r="0.5" /><circle cx="167" cy="89" fill="black" r="0.5" /><circle cx="174" cy="89" fill="black" r="0.5" /><circle cx="178" cy="89" fill="black" r="0.5" /><circle cx="181" cy="89" fill="black" r="0.5" /><circle cx="182" cy="89" fill="black" r="0.5" /><circle cx="192" cy="89" fill="black" r="0.5" /><circle cx="200" cy="89" fill="black" r="0.5" /><circle cx="211" cy="89" fill="black" r="0.5" /><circle cx="80" cy="90" fill="black" r="0.5" /><circle cx="84" cy="90" fill="black" r="0.5" /><circle cx="103" cy="90" fill="black" r="0.5" /><circle cx="110" cy="90" fill="black" r="0.5" /><circle cx="111" cy="90" fill="black" r="0.5" /><circle cx="112" cy="90" fill="black" r="0.5" /><circle cx="113" cy="90" fill="black" r="0.5" /><circle cx="114" cy="90" fill="black" r="0.5" /><circle cx="115" cy="90" fill="black" r="0.5" /><circle cx="116" cy="90" fill="black" r="0.5" /><circle cx="117" cy="90" fill="black" r="0.5" /><circle cx="125" cy="90" fill="black" r="0.5" /><circle cx="129" cy="90" fill="black" r="0.5" /><circle cx="131" cy="90" fill="black" r="0.5" /><circle cx="132" cy="90" fill="black" r="0.5" /><circle cx="135" cy="90" fill="black" r="0.5" /><circle cx="136" cy="90" fill="black" r="0.5" /><circle cx="138" cy="90" fill="black" r="0.5" /><circle cx="142" cy="90" fill="black" r="0.5" /><circle cx="149" cy="90" fill="black" r="0.5" /><circle cx="154" cy="90" fill="black" r="0.5" /><circle cx="162" cy="90" fill="black" r="0.5" /><circle cx="167" cy="90" fill="black" r="0.5" /><circle cx="174" cy="90" fill="black" r="0.5" /><circle cx="178" cy="90" fill="black" r="0.5" /><circle cx="182" cy="90" fill="black" r="0.5" /><circle cx="183" cy="90" fill="black" r="0.5" /><circle cx="192" cy="90" fill="black" r="0.5" /><circle cx="200" cy="90" fill="black" r="0.5" /><circle cx="211" cy="90" fill="black" r="0.5" /><circle cx="80" cy="91" fill="black" r="0.5" /><circle cx="85" cy="91" fill="black" r="0.5" /><circle cx="103" cy="91" fill="black" r="0.5" /><circle cx="107" cy="91" fill="black" r="0.5" /><circle cx="108" cy="91" fill="black" r="0.5" /><circle cx="109" cy="91" fill="black" r="0.5" /><circle cx="125" cy="91" fill="black" r="0.5" /><circle cx="129" cy="91" fill="black" r="0.5" /><circle cx="132" cy="91" fill="black" r="0.5" /><circle cx="135" cy="91" fill="black" r="0.5" /><circle cx="138" cy="91" fill="black" r="0.5" /><circle cx="142" cy="91" fill="black" r="0.5" /><circle cx="149" cy="91" fill="black" r="0.5" /><circle cx="154" cy="91" fill="black" r="0.5" /><circle cx="161" cy="91" fill="black" r="0.5" /><circle cx="162" cy="91" fill="black" r="0.5" /><circle cx="167" cy="91" fill="black" r="0.5" /><circle cx="174" cy="91" fill="black" r="0.5" /><circle cx="178" cy="91" fill="black" r="0.5" /><circle cx="183" cy="91" fill="black" r="0.5" /><circle cx="184" cy="91" fill="black" r="0.5" /><circle cx="192" cy="91" fill="black" r="0.5" /><circle cx="199" cy="91" fill="black" r="0.5" /><circle cx="207" cy="91" fill="black" r="0.5" /><circle cx="210" cy="91" fill="black" r="0.5" /><circle cx="211" cy="91" fill="black" r="0.5" /><circle cx="80" cy="92" fill="black" r="0.5" /><circle cx="85" cy="92" fill="black" r="0.5" /><circle cx="102" cy="92" fill="black" r="0.5" /><circle cx="107" cy="92" fill="black" r="0.5" /><circle cx="125" cy="92" fill="black" r="0.5" /><circle cx="129" cy="92" fill="black" r="0.5" /><circle cx="132" cy="92" fill="black" r="0.5" /><circle cx="133" cy="92" fill="black" r="0.5" /><circle cx="134" cy="92" fill="black" r="0.5" /><circle cx="135" cy="92" fill="black" r="0.5" /><circle cx="138" cy="92" fill="black" r="0.5" /><circle cx="142" cy="92" fill="black" r="0.5" /><circle cx="150" cy="92" fill="black" r="0.5" /><circle cx="154" cy="92" fill="black" r="0.5" /><circle cx="155" cy="92" fill="black" r="0.5" /><circle cx="156" cy="92" fill="black" r="0.5" /><circle cx="160" cy="92" fill="black" r="0.5" /><circle cx="161" cy="92" fill="black" r="0.5" /><circle cx="166" cy="92" fill="black" r="0.5" /><circle cx="174" cy="92" fill="black" r="0.5" /><circle cx="178" cy="92" fill="black" r="0.5" /><circle cx="184" cy="92" fill="black" r="0.5" /><circle cx="185" cy="92" fill="black" r="0.5" /><circle cx="192" cy="92" fill="black" r="0.5" /><circle cx="199" cy="92" fill="black" r="0.5" /><circle cx="204" cy="92" fill="black" r="0.5" /><circle cx="205" cy="92" fill="black" r="0.5" /><circle cx="206" cy="92" fill="black" r="0.5" /><circle cx="208" cy="92" fill="black" r="0.5" /><circle cx="209" cy="92" fill="black" r="0.5" /><circle cx="80" cy="93" fill="black" r="0.5" /><circle cx="85" cy="93" fill="black" r="0.5" /><circle cx="103" cy="93" fill="black" r="0.5" /><circle cx="107" cy="93" fill="black" r="0.5" /><circle cx="108" cy="93" fill="black" r="0.5" /><circle cx="125" cy="93" fill="black" r="0.5" /><circle cx="129" cy="93" fill="black" r="0.5" /><circle cx="138" cy="93" fill="black" r="0.5" /><circle cx="142" cy="93" fill="black" r="0.5" /><circle cx="150" cy="93" fill="black" r="0.5" /><circle cx="157" cy="93" fill="black" r="0.5" /><circle cx="158" cy="93" fill="black" r="0.5" /><circle cx="159" cy="93" fill="black" r="0.5" /><circle cx="160" cy="93" fill="black" r="0.5" /><circle cx="165" cy="93" fill="black" r="0.5" /><circle cx="166" cy="93" fill="black" r="0.5" /><circle cx="174" cy="93" fill="black" r="0.5" /><circle cx="178" cy="93" fill="black" r="0.5" /><circle cx="185" cy="93" fill="black" r="0.5" /><circle cx="186" cy="93" fill="black" r="0.5" /><circle cx="192" cy="93" fill="black" r="0.5" /><circle cx="198" cy="93" fill="black" r="0.5" /><circle cx="199" cy="93" fill="black" r="0.5" /><circle cx="203" cy="93" fill="black" r="0.5" /><circle cx="204" cy="93" fill="black" r="0.5" /><circle cx="80" cy="94" fill="black" r="0.5" /><circle cx="85" cy="94" fill="black" r="0.5" /><circle cx="86" cy="94" fill="black" r="0.5" /><circle cx="88" cy="94" fill="black" r="0.5" /><circle cx="92" cy="94" fill="black" r="0.5" /><circle cx="103" cy="94" fill="black" r="0.5" /><circle cx="108" cy="94" fill="black" r="0.5" /><circle cx="109" cy="94" fill="black" r="0.5" /><circle cx="110" cy="94" fill="black" r="0.5" /><circle cx="111" cy="94" fill="black" r="0.5" /><circle cx="112" cy="94" fill="black" r="0.5" /><circle cx="113" cy="94" fill="black" r="0.5" /><circle cx="114" cy="94" fill="black" r="0.5" /><circle cx="115" cy="94" fill="black" r="0.5" /><circle cx="116" cy="94" fill="black" r="0.5" /><circle cx="117" cy="94" fill="black" r="0.5" /><circle cx="125" cy="94" fill="black" r="0.5" /><circle cx="129" cy="94" fill="black" r="0.5" /><circle cx="138" cy="94" fill="black" r="0.5" /><circle cx="142" cy="94" fill="black" r="0.5" /><circle cx="150" cy="94" fill="black" r="0.5" /><circle cx="151" cy="94" fill="black" r="0.5" /><circle cx="164" cy="94" fill="black" r="0.5" /><circle cx="165" cy="94" fill="black" r="0.5" /><circle cx="174" cy="94" fill="black" r="0.5" /><circle cx="178" cy="94" fill="black" r="0.5" /><circle cx="186" cy="94" fill="black" r="0.5" /><circle cx="187" cy="94" fill="black" r="0.5" /><circle cx="192" cy="94" fill="black" r="0.5" /><circle cx="198" cy="94" fill="black" r="0.5" /><circle cx="203" cy="94" fill="black" r="0.5" /><circle cx="80" cy="95" fill="black" r="0.5" /><circle cx="87" cy="95" fill="black" r="0.5" /><circle cx="89" cy="95" fill="black" r="0.5" /><circle cx="90" cy="95" fill="black" r="0.5" /><circle cx="91" cy="95" fill="black" r="0.5" /><circle cx="93" cy="95" fill="black" r="0.5" /><circle cx="94" cy="95" fill="black" r="0.5" /><circle cx="95" cy="95" fill="black" r="0.5" /><circle cx="96" cy="95" fill="black" r="0.5" /><circle cx="103" cy="95" fill="black" r="0.5" /><circle cx="117" cy="95" fill="black" r="0.5" /><circle cx="118" cy="95" fill="black" r="0.5" /><circle cx="125" cy="95" fill="black" r="0.5" /><circle cx="129" cy="95" fill="black" r="0.5" /><circle cx="138" cy="95" fill="black" r="0.5" /><circle cx="142" cy="95" fill="black" r="0.5" /><circle cx="151" cy="95" fill="black" r="0.5" /><circle cx="152" cy="95" fill="black" r="0.5" /><circle cx="163" cy="95" fill="black" r="0.5" /><circle cx="164" cy="95" fill="black" r="0.5" /><circle cx="174" cy="95" fill="black" r="0.5" /><circle cx="178" cy="95" fill="black" r="0.5" /><circle cx="187" cy="95" fill="black" r="0.5" /><circle cx="198" cy="95" fill="black" r="0.5" /><circle cx="202" cy="95" fill="black" r="0.5" /><circle cx="203" cy="95" fill="black" r="0.5" /><circle cx="81" cy="96" fill="black" r="0.5" /><circle cx="96" cy="96" fill="black" r="0.5" /><circle cx="103" cy="96" fill="black" r="0.5" /><circle cx="118" cy="96" fill="black" r="0.5" /><circle cx="125" cy="96" fill="black" r="0.5" /><circle cx="129" cy="96" fill="black" r="0.5" /><circle cx="138" cy="96" fill="black" r="0.5" /><circle cx="142" cy="96" fill="black" r="0.5" /><circle cx="152" cy="96" fill="black" r="0.5" /><circle cx="153" cy="96" fill="black" r="0.5" /><circle cx="162" cy="96" fill="black" r="0.5" /><circle cx="163" cy="96" fill="black" r="0.5" /><circle cx="174" cy="96" fill="black" r="0.5" /><circle cx="177" cy="96" fill="black" r="0.5" /><circle cx="178" cy="96" fill="black" r="0.5" /><circle cx="187" cy="96" fill="black" r="0.5" /><circle cx="188" cy="96" fill="black" r="0.5" /><circle cx="189" cy="96" fill="black" r="0.5" /><circle cx="190" cy="96" fill="black" r="0.5" /><circle cx="191" cy="96" fill="black" r="0.5" /><circle cx="192" cy="96" fill="black" r="0.5" /><circle cx="198" cy="96" fill="black" r="0.5" /><circle cx="201" cy="96" fill="black" r="0.5" /><circle cx="202" cy="96" fill="black" r="0.5" /><circle cx="81" cy="97" fill="black" r="0.5" /><circle cx="96" cy="97" fill="black" r="0.5" /><circle cx="103" cy="97" fill="black" r="0.5" /><circle cx="117" cy="97" fill="black" r="0.5" /><circle cx="118" cy="97" fill="black" r="0.5" /><circle cx="125" cy="97" fill="black" r="0.5" /><circle cx="126" cy="97" fill="black" r="0.5" /><circle cx="128" cy="97" fill="black" r="0.5" /><circle cx="129" cy="97" fill="black" r="0.5" /><circle cx="138" cy="97" fill="black" r="0.5" /><circle cx="139" cy="97" fill="black" r="0.5" /><circle cx="140" cy="97" fill="black" r="0.5" /><circle cx="141" cy="97" fill="black" r="0.5" /><circle cx="142" cy="97" fill="black" r="0.5" /><circle cx="154" cy="97" fill="black" r="0.5" /><circle cx="155" cy="97" fill="black" r="0.5" /><circle cx="156" cy="97" fill="black" r="0.5" /><circle cx="157" cy="97" fill="black" r="0.5" /><circle cx="158" cy="97" fill="black" r="0.5" /><circle cx="159" cy="97" fill="black" r="0.5" /><circle cx="160" cy="97" fill="black" r="0.5" /><circle cx="161" cy="97" fill="black" r="0.5" /><circle cx="174" cy="97" fill="black" r="0.5" /><circle cx="175" cy="97" fill="black" r="0.5" /><circle cx="176" cy="97" fill="black" r="0.5" /><circle cx="177" cy="97" fill="black" r="0.5" /><circle cx="198" cy="97" fill="black" r="0.5" /><circle cx="199" cy="97" fill="black" r="0.5" /><circle cx="200" cy="97" fill="black" r="0.5" /><circle cx="201" cy="97" fill="black" r="0.5" /><circle cx="81" cy="98" fill="black" r="0.5" /><circle cx="82" cy="98" fill="black" r="0.5" /><circle cx="88" cy="98" fill="black" r="0.5" /><circle cx="90" cy="98" fill="black" r="0.5" /><circle cx="91" cy="98" fill="black" r="0.5" /><circle cx="92" cy="98" fill="black" r="0.5" /><circle cx="93" cy="98" fill="black" r="0.5" /><circle cx="94" cy="98" fill="black" r="0.5" /><circle cx="95" cy="98" fill="black" r="0.5" /><circle cx="96" cy="98" fill="black" r="0.5" /><circle cx="103" cy="98" fill="black" r="0.5" /><circle cx="104" cy="98" fill="black" r="0.5" /><circle cx="105" cy="98" fill="black" r="0.5" /><circle cx="106" cy="98" fill="black" r="0.5" /><circle cx="107" cy="98" fill="black" r="0.5" /><circle cx="108" cy="98" fill="black" r="0.5" /><circle cx="109" cy="98" fill="black" r="0.5" /><circle cx="110" cy="98" fill="black" r="0.5" /><circle cx="111" cy="98" fill="black" r="0.5" /><circle cx="112" cy="98" fill="black" r="0.5" /><circle cx="113" cy="98" fill="black" r="0.5" /><circle cx="114" cy="98" fill="black" r="0.5" /><circle cx="115" cy="98" fill="black" r="0.5" /><circle cx="116" cy="98" fill="black" r="0.5" /><circle cx="117" cy="98" fill="black" r="0.5" /><circle cx="127" cy="98" fill="black" r="0.5" /><circle cx="83" cy="99" fill="black" r="0.5" /><circle cx="84" cy="99" fill="black" r="0.5" /><circle cx="85" cy="99" fill="black" r="0.5" /><circle cx="86" cy="99" fill="black" r="0.5" /><circle cx="87" cy="99" fill="black" r="0.5" /><circle cx="89" cy="99" fill="black" r="0.5" /><circle cx="0" cy="184" fill="black" r="0.5" /><circle cx="1" cy="184" fill="black" r="0.5" /><circle cx="2" cy="184" fill="black" r="0.5" /><circle cx="2" cy="185" fill="black" r="0.5" /><circle cx="3" cy="185" fill="black" r="0.5" /><circle cx="3" cy="186" fill="black" r="0.5" /></svg>