<?xml version="1.0" encoding="utf-8" ?>
<svg baseProfile="tiny" height="625" version="1.2" width="526" xmlns="http://www.w3.org/2000/svg" xmlns:ev="http://www.w3.org/2001/xml-events" xmlns:xlink="http://www.w3.org/1999/xlink"><defs /><polyline fill="none" points="300.0,549.0 298.0,549.0 297.0,550.0 293.0,550.0 292.0,551.0 289.0,551.0 288.0,552.0 282.0,552.0 281.0,553.0 260.0,553.0 259.0,552.0 253.0,552.0 249.0,556.0 249.0,558.0 252.0,558.0 253.0,557.0 253.0,556.0 254.0,555.0 262.0,555.0 263.0,556.0 265.0,556.0 266.0,555.0 287.0,555.0 288.0,554.0 290.0,554.0 291.0,553.0 294.0,553.0 295.0,552.0 299.0,552.0 300.0,551.0" stroke="black" /><polyline fill="none" points="329.0,502.0 330.0,503.0 330.0,509.0 328.0,511.0 328.0,512.0 323.0,517.0 318.0,517.0 317.0,516.0 317.0,512.0 319.0,510.0 320.0,510.0 321.0,509.0 321.0,503.0 322.0,502.0" stroke="black" /><polyline fill="none" points="281.0,503.0 282.0,502.0 294.0,502.0 295.0,503.0 307.0,503.0 308.0,504.0 314.0,504.0 315.0,505.0 315.0,509.0 314.0,510.0 310.0,510.0 309.0,511.0 303.0,511.0 301.0,513.0 295.0,513.0 294.0,514.0 293.0,514.0 291.0,516.0 285.0,516.0 284.0,515.0 284.0,510.0 283.0,510.0 281.0,508.0" stroke="black" /><polyline fill="none" points="203.0,500.0 203.0,502.0 205.0,502.0 206.0,503.0 208.0,503.0 209.0,504.0 212.0,504.0 213.0,505.0 223.0,505.0 224.0,506.0 225.0,506.0 231.0,512.0 231.0,513.0 232.0,514.0 232.0,515.0 233.0,516.0 233.0,517.0 235.0,519.0 237.0,519.0 244.0,526.0 245.0,526.0 248.0,529.0 251.0,529.0 251.0,527.0 249.0,525.0 248.0,525.0 247.0,524.0 246.0,524.0 245.0,523.0 245.0,522.0 242.0,519.0 241.0,519.0 239.0,517.0 238.0,517.0 237.0,516.0 236.0,516.0 235.0,515.0 235.0,513.0 234.0,512.0 234.0,507.0 235.0,506.0 242.0,506.0 243.0,507.0 247.0,507.0 247.0,505.0 245.0,505.0 244.0,504.0 239.0,504.0 238.0,503.0 237.0,503.0 234.0,500.0 233.0,500.0 232.0,499.0 231.0,499.0 230.0,498.0 228.0,498.0 227.0,497.0 224.0,497.0 223.0,496.0 220.0,496.0 219.0,495.0 208.0,495.0 208.0,498.0 207.0,499.0 204.0,499.0" stroke="black" /><polyline fill="none" points="233.0,416.0 229.0,428.0 229.0,433.0 230.0,434.0 231.0,441.0 235.0,444.0 242.0,445.0 246.0,447.0 259.0,457.0 268.0,462.0 268.0,466.0 266.0,468.0 264.0,468.0 262.0,471.0 260.0,471.0 260.0,473.0 263.0,473.0 264.0,474.0 264.0,487.0 265.0,488.0 266.0,498.0 273.0,504.0 275.0,517.0 280.0,519.0 280.0,526.0 278.0,529.0 272.0,529.0 272.0,531.0 276.0,536.0 287.0,535.0 289.0,533.0 294.0,533.0 302.0,527.0 306.0,527.0 307.0,528.0 307.0,531.0 309.0,531.0 311.0,528.0 315.0,527.0 326.0,519.0 332.0,512.0 332.0,509.0 338.0,506.0 352.0,507.0 356.0,509.0 361.0,515.0 364.0,515.0 364.0,513.0 358.0,507.0 354.0,505.0 350.0,505.0 344.0,503.0 344.0,499.0 354.0,496.0 355.0,491.0 350.0,492.0 350.0,494.0 347.0,496.0 343.0,496.0 342.0,497.0 333.0,498.0 327.0,500.0 318.0,499.0 313.0,501.0 297.0,501.0 296.0,500.0 290.0,500.0 289.0,497.0 284.0,497.0 283.0,499.0 280.0,500.0 273.0,500.0 268.0,495.0 268.0,489.0 269.0,488.0 276.0,487.0 277.0,473.0 278.0,472.0 282.0,472.0 283.0,473.0 283.0,478.0 285.0,481.0 285.0,486.0 286.0,487.0 289.0,487.0 291.0,490.0 294.0,490.0 293.0,486.0 287.0,482.0 287.0,479.0 285.0,476.0 285.0,471.0 290.0,465.0 303.0,459.0 305.0,457.0 310.0,457.0 320.0,450.0 326.0,448.0 327.0,447.0 327.0,444.0 325.0,444.0 321.0,447.0 309.0,447.0 306.0,449.0 298.0,450.0 299.0,453.0 299.0,457.0 287.0,463.0 284.0,467.0 279.0,467.0 277.0,465.0 277.0,462.0 265.0,457.0 249.0,445.0 244.0,443.0 237.0,442.0 232.0,436.0 233.0,422.0 236.0,418.0 236.0,416.0" stroke="black" /><polyline fill="none" points="337.0,399.0 335.0,399.0 335.0,400.0 330.0,405.0 330.0,406.0 327.0,409.0 326.0,409.0 325.0,410.0 325.0,413.0 324.0,414.0 324.0,417.0 325.0,418.0 325.0,419.0 328.0,422.0 328.0,429.0 329.0,430.0 329.0,434.0 330.0,435.0 330.0,440.0 332.0,440.0 332.0,433.0 331.0,432.0 331.0,422.0 330.0,421.0 330.0,419.0 328.0,417.0 328.0,412.0 332.0,408.0 332.0,407.0 333.0,406.0 334.0,406.0 335.0,405.0 335.0,404.0 336.0,403.0 340.0,403.0 340.0,401.0 338.0,401.0 337.0,400.0" stroke="black" /><polyline fill="none" points="356.0,310.0 357.0,309.0 363.0,309.0 365.0,311.0 365.0,312.0 368.0,315.0 370.0,315.0 371.0,316.0 376.0,316.0 377.0,317.0 377.0,320.0 378.0,321.0 378.0,325.0 377.0,326.0 369.0,326.0 368.0,325.0 367.0,325.0 366.0,324.0 365.0,324.0 363.0,322.0 362.0,322.0 358.0,318.0 358.0,317.0 357.0,316.0 357.0,315.0 356.0,314.0" stroke="black" /><polyline fill="none" points="288.0,310.0 283.0,310.0 283.0,318.0 282.0,319.0 282.0,321.0 283.0,322.0 283.0,326.0 282.0,327.0 282.0,329.0 281.0,330.0 281.0,333.0 280.0,334.0 276.0,334.0 275.0,333.0 275.0,330.0 274.0,329.0 274.0,325.0 273.0,324.0 273.0,318.0 272.0,317.0 272.0,316.0 270.0,316.0 270.0,321.0 269.0,322.0 269.0,324.0 272.0,327.0 272.0,331.0 273.0,332.0 273.0,335.0 275.0,337.0 275.0,342.0 274.0,343.0 274.0,352.0 277.0,355.0 277.0,356.0 279.0,356.0 281.0,358.0 281.0,359.0 282.0,360.0 282.0,374.0 281.0,375.0 281.0,385.0 280.0,386.0 280.0,394.0 279.0,395.0 279.0,397.0 281.0,397.0 282.0,396.0 282.0,395.0 283.0,394.0 283.0,382.0 284.0,381.0 284.0,380.0 285.0,379.0 285.0,370.0 284.0,369.0 284.0,358.0 283.0,357.0 283.0,356.0 282.0,355.0 280.0,355.0 279.0,354.0 279.0,353.0 278.0,352.0 278.0,347.0 279.0,346.0 282.0,346.0 283.0,345.0 283.0,332.0 284.0,331.0 284.0,329.0 285.0,328.0 285.0,319.0 286.0,318.0 286.0,313.0 287.0,312.0 288.0,312.0" stroke="black" /><polyline fill="none" points="160.0,307.0 165.0,307.0 166.0,308.0 166.0,311.0 167.0,312.0 167.0,314.0 168.0,315.0 168.0,316.0 171.0,319.0 171.0,323.0 170.0,324.0 166.0,324.0 165.0,323.0 163.0,323.0 157.0,317.0 157.0,311.0 159.0,309.0 159.0,308.0" stroke="black" /><polyline fill="none" points="348.0,301.0 349.0,302.0 349.0,304.0 350.0,305.0 350.0,309.0 349.0,310.0 348.0,310.0 347.0,311.0 345.0,311.0 344.0,312.0 344.0,314.0 343.0,315.0 343.0,318.0 342.0,319.0 335.0,319.0 334.0,318.0 334.0,317.0 333.0,316.0 333.0,311.0 343.0,301.0" stroke="black" /><polyline fill="none" points="387.0,298.0 391.0,298.0 392.0,299.0 392.0,312.0 390.0,314.0 390.0,315.0 389.0,316.0 385.0,316.0 384.0,315.0 384.0,314.0 383.0,313.0 382.0,313.0 381.0,312.0 381.0,308.0 382.0,307.0 385.0,307.0 385.0,305.0 386.0,304.0 386.0,299.0" stroke="black" /><polyline fill="none" points="360.0,300.0 361.0,299.0 363.0,299.0 364.0,298.0 367.0,298.0 368.0,297.0 375.0,297.0 376.0,298.0 376.0,307.0 377.0,308.0 377.0,312.0 376.0,313.0 371.0,313.0 367.0,309.0 367.0,308.0 366.0,307.0 366.0,305.0 361.0,305.0 360.0,304.0" stroke="black" /><polyline fill="none" points="156.0,307.0 156.0,314.0 155.0,315.0 155.0,319.0 157.0,321.0 157.0,322.0 159.0,324.0 160.0,324.0 161.0,325.0 163.0,325.0 164.0,326.0 167.0,326.0 170.0,328.0 172.0,328.0 173.0,329.0 173.0,330.0 177.0,330.0 179.0,332.0 179.0,338.0 180.0,338.0 181.0,339.0 185.0,339.0 188.0,336.0 188.0,333.0 187.0,333.0 186.0,332.0 186.0,327.0 187.0,326.0 203.0,326.0 204.0,327.0 204.0,333.0 205.0,334.0 207.0,334.0 208.0,335.0 214.0,335.0 214.0,329.0 215.0,328.0 221.0,328.0 222.0,327.0 227.0,327.0 230.0,329.0 232.0,329.0 232.0,326.0 231.0,326.0 230.0,325.0 220.0,325.0 219.0,324.0 219.0,320.0 221.0,318.0 221.0,316.0 220.0,315.0 220.0,313.0 219.0,313.0 218.0,312.0 218.0,311.0 217.0,311.0 215.0,309.0 215.0,307.0 214.0,307.0 212.0,304.0 210.0,304.0 209.0,303.0 203.0,303.0 202.0,302.0 202.0,300.0 200.0,300.0 197.0,298.0 193.0,298.0 193.0,305.0 205.0,305.0 206.0,306.0 206.0,310.0 205.0,311.0 205.0,312.0 203.0,314.0 199.0,314.0 198.0,313.0 198.0,312.0 197.0,312.0 196.0,311.0 186.0,311.0 181.0,306.0 181.0,305.0 180.0,304.0 180.0,303.0 173.0,303.0 173.0,304.0 172.0,305.0 168.0,305.0 167.0,304.0 167.0,302.0 165.0,302.0 164.0,301.0 162.0,301.0 158.0,305.0 157.0,305.0 157.0,306.0" stroke="black" /><polyline fill="none" points="373.0,289.0 374.0,288.0 378.0,288.0 379.0,287.0 385.0,287.0 386.0,288.0 388.0,288.0 389.0,289.0 389.0,293.0 388.0,294.0 374.0,294.0 373.0,293.0" stroke="black" /><polyline fill="none" points="431.0,300.0 425.0,297.0 422.0,294.0 418.0,292.0 416.0,292.0 413.0,290.0 409.0,290.0 406.0,288.0 402.0,288.0 401.0,287.0 393.0,287.0 392.0,286.0 388.0,286.0 387.0,285.0 377.0,285.0 376.0,286.0 372.0,286.0 371.0,287.0 363.0,287.0 362.0,288.0 355.0,289.0 351.0,291.0 349.0,293.0 346.0,294.0 330.0,309.0 330.0,314.0 329.0,315.0 329.0,317.0 332.0,321.0 332.0,325.0 331.0,326.0 327.0,326.0 326.0,328.0 321.0,328.0 320.0,333.0 324.0,338.0 326.0,338.0 327.0,339.0 328.0,343.0 329.0,344.0 329.0,347.0 331.0,347.0 332.0,348.0 332.0,349.0 335.0,352.0 336.0,355.0 337.0,355.0 347.0,366.0 349.0,366.0 354.0,370.0 360.0,370.0 363.0,375.0 367.0,376.0 369.0,378.0 375.0,378.0 375.0,376.0 372.0,376.0 368.0,373.0 366.0,373.0 363.0,370.0 363.0,368.0 359.0,365.0 353.0,365.0 352.0,364.0 350.0,364.0 341.0,355.0 341.0,354.0 338.0,352.0 334.0,345.0 330.0,341.0 330.0,339.0 329.0,338.0 329.0,333.0 330.0,332.0 337.0,331.0 338.0,329.0 344.0,329.0 347.0,327.0 353.0,327.0 361.0,332.0 367.0,332.0 367.0,329.0 368.0,328.0 376.0,328.0 377.0,329.0 377.0,335.0 381.0,337.0 381.0,344.0 380.0,345.0 369.0,345.0 369.0,347.0 374.0,347.0 375.0,348.0 383.0,350.0 386.0,352.0 388.0,352.0 389.0,334.0 391.0,333.0 392.0,327.0 396.0,324.0 400.0,324.0 401.0,326.0 403.0,326.0 407.0,328.0 407.0,335.0 409.0,335.0 409.0,333.0 410.0,332.0 410.0,327.0 412.0,326.0 412.0,324.0 414.0,322.0 419.0,322.0 419.0,318.0 420.0,317.0 434.0,316.0 434.0,314.0 429.0,314.0 426.0,312.0 426.0,308.0 430.0,305.0" stroke="black" /><polyline fill="none" points="132.0,298.0 132.0,300.0 134.0,300.0 135.0,301.0 137.0,301.0 137.0,300.0 140.0,297.0 141.0,297.0 143.0,295.0 144.0,295.0 145.0,294.0 146.0,294.0 147.0,293.0 149.0,293.0 151.0,291.0 153.0,291.0 154.0,290.0 155.0,290.0 156.0,289.0 159.0,289.0 160.0,288.0 164.0,288.0 165.0,287.0 182.0,287.0 183.0,288.0 197.0,288.0 198.0,289.0 203.0,289.0 204.0,290.0 208.0,290.0 209.0,291.0 210.0,291.0 211.0,292.0 212.0,292.0 213.0,293.0 214.0,293.0 217.0,296.0 218.0,296.0 219.0,297.0 220.0,297.0 232.0,309.0 232.0,310.0 234.0,312.0 236.0,312.0 236.0,309.0 232.0,305.0 232.0,304.0 224.0,296.0 223.0,296.0 221.0,294.0 220.0,294.0 218.0,292.0 217.0,292.0 215.0,290.0 213.0,290.0 212.0,289.0 211.0,289.0 210.0,288.0 206.0,288.0 205.0,287.0 200.0,287.0 199.0,286.0 198.0,286.0 197.0,285.0 181.0,285.0 180.0,284.0 166.0,284.0 165.0,285.0 163.0,285.0 162.0,286.0 158.0,286.0 157.0,287.0 154.0,287.0 153.0,288.0 151.0,288.0 150.0,289.0 149.0,289.0 148.0,290.0 147.0,290.0 146.0,291.0 144.0,291.0 143.0,292.0 142.0,292.0 141.0,293.0 140.0,293.0 138.0,295.0 137.0,295.0 135.0,297.0 134.0,297.0 133.0,298.0" stroke="black" /><polyline fill="none" points="467.0,255.0 471.0,255.0 472.0,256.0 472.0,257.0 473.0,258.0 473.0,278.0 474.0,279.0 474.0,291.0 473.0,292.0 467.0,292.0 466.0,291.0 466.0,274.0 467.0,273.0 467.0,271.0 466.0,270.0 466.0,265.0 467.0,264.0 467.0,261.0 466.0,260.0 466.0,256.0" stroke="black" /><polyline fill="none" points="146.0,247.0 146.0,249.0 148.0,249.0 149.0,248.0 152.0,248.0 153.0,247.0 155.0,247.0 156.0,246.0 166.0,246.0 167.0,245.0 173.0,245.0 174.0,246.0 175.0,246.0 176.0,247.0 177.0,247.0 178.0,248.0 185.0,248.0 186.0,249.0 187.0,249.0 189.0,251.0 194.0,251.0 195.0,252.0 200.0,252.0 202.0,254.0 207.0,254.0 209.0,256.0 210.0,256.0 212.0,258.0 213.0,258.0 214.0,259.0 220.0,259.0 221.0,260.0 222.0,260.0 224.0,262.0 225.0,262.0 226.0,263.0 232.0,263.0 233.0,264.0 233.0,265.0 234.0,265.0 235.0,266.0 235.0,267.0 236.0,268.0 237.0,268.0 240.0,271.0 242.0,271.0 242.0,268.0 240.0,266.0 239.0,266.0 237.0,264.0 237.0,263.0 236.0,263.0 235.0,262.0 235.0,261.0 233.0,261.0 232.0,260.0 227.0,260.0 225.0,258.0 223.0,258.0 221.0,256.0 220.0,256.0 219.0,255.0 214.0,255.0 213.0,254.0 212.0,254.0 210.0,252.0 209.0,252.0 207.0,250.0 205.0,250.0 204.0,249.0 192.0,249.0 190.0,247.0 189.0,247.0 188.0,246.0 186.0,246.0 185.0,245.0 185.0,243.0 165.0,243.0 164.0,244.0 154.0,244.0 153.0,245.0 151.0,245.0 150.0,246.0 147.0,246.0" stroke="black" /><polyline fill="none" points="403.0,104.0 407.0,104.0 408.0,105.0 408.0,108.0 411.0,108.0 413.0,110.0 413.0,111.0 419.0,117.0 419.0,118.0 424.0,123.0 424.0,124.0 426.0,126.0 426.0,127.0 430.0,131.0 430.0,132.0 436.0,138.0 436.0,139.0 438.0,141.0 438.0,142.0 440.0,144.0 440.0,148.0 439.0,149.0 435.0,149.0 428.0,142.0 428.0,141.0 424.0,137.0 424.0,136.0 423.0,135.0 423.0,134.0 421.0,132.0 421.0,131.0 415.0,125.0 415.0,124.0 414.0,123.0 414.0,122.0 412.0,122.0 411.0,121.0 411.0,120.0 409.0,118.0 409.0,117.0 405.0,113.0 405.0,110.0 403.0,110.0 402.0,109.0 402.0,105.0" stroke="black" /><polyline fill="none" points="260.0,64.0 260.0,66.0 268.0,66.0 269.0,67.0 275.0,67.0 276.0,68.0 289.0,68.0 290.0,69.0 293.0,69.0 294.0,70.0 301.0,70.0 302.0,69.0 313.0,69.0 313.0,67.0 312.0,67.0 311.0,66.0 301.0,66.0 300.0,65.0 297.0,65.0 297.0,66.0 296.0,67.0 292.0,67.0 291.0,66.0 289.0,66.0 288.0,65.0 285.0,65.0 284.0,66.0 278.0,66.0 277.0,65.0 274.0,65.0 273.0,64.0 272.0,64.0 271.0,63.0 271.0,62.0 267.0,62.0 266.0,63.0 262.0,63.0 261.0,64.0" stroke="black" /><polyline fill="none" points="443.0,61.0 463.0,133.0 470.0,197.0 469.0,225.0 457.0,209.0 464.0,231.0 459.0,338.0 463.0,360.0 457.0,369.0 452.0,368.0 452.0,202.0 443.0,153.0 451.0,154.0 433.0,130.0 437.0,118.0 424.0,99.0 424.0,91.0 430.0,90.0 442.0,102.0 417.0,71.0 414.0,78.0 420.0,81.0 420.0,91.0 413.0,92.0 395.0,77.0 397.0,98.0 384.0,94.0 368.0,73.0 368.0,82.0 413.0,140.0 420.0,136.0 441.0,162.0 449.0,201.0 449.0,258.0 410.0,237.0 337.0,254.0 333.0,268.0 339.0,273.0 337.0,263.0 345.0,256.0 366.0,257.0 405.0,245.0 428.0,251.0 435.0,262.0 406.0,254.0 373.0,266.0 363.0,278.0 382.0,267.0 408.0,274.0 418.0,264.0 440.0,270.0 450.0,264.0 449.0,370.0 455.0,375.0 448.0,385.0 440.0,438.0 418.0,487.0 338.0,574.0 308.0,593.0 267.0,597.0 221.0,579.0 127.0,472.0 115.0,444.0 89.0,310.0 87.0,222.0 86.0,305.0 117.0,457.0 141.0,498.0 212.0,576.0 236.0,591.0 265.0,599.0 296.0,599.0 323.0,589.0 410.0,503.0 435.0,461.0 456.0,378.0 478.0,326.0 468.0,150.0 457.0,91.0" stroke="black" /><polyline fill="none" points="236.0,71.0 231.0,71.0 230.0,70.0 228.0,70.0 227.0,69.0 221.0,69.0 220.0,68.0 220.0,55.0 219.0,54.0 217.0,54.0 216.0,55.0 214.0,55.0 213.0,56.0 205.0,56.0 204.0,57.0 201.0,57.0 200.0,58.0 197.0,58.0 196.0,59.0 194.0,59.0 193.0,60.0 191.0,60.0 190.0,61.0 189.0,61.0 188.0,62.0 187.0,62.0 185.0,64.0 183.0,64.0 182.0,65.0 180.0,65.0 179.0,66.0 178.0,66.0 177.0,67.0 176.0,67.0 175.0,68.0 174.0,68.0 173.0,69.0 171.0,69.0 170.0,70.0 169.0,70.0 168.0,71.0 167.0,71.0 165.0,73.0 165.0,75.0 168.0,75.0 169.0,76.0 169.0,80.0 165.0,84.0 164.0,84.0 164.0,87.0 166.0,87.0 167.0,86.0 168.0,86.0 176.0,78.0 177.0,78.0 181.0,74.0 182.0,74.0 184.0,72.0 185.0,72.0 186.0,71.0 187.0,71.0 188.0,70.0 190.0,70.0 192.0,68.0 194.0,68.0 195.0,67.0 197.0,67.0 198.0,66.0 200.0,66.0 201.0,65.0 204.0,65.0 205.0,64.0 212.0,64.0 213.0,65.0 213.0,72.0 228.0,72.0 229.0,73.0 230.0,73.0 231.0,74.0 234.0,74.0 235.0,73.0 236.0,73.0" stroke="black" /><polyline fill="none" points="341.0,40.0 340.0,40.0 339.0,39.0 339.0,36.0 337.0,34.0 326.0,34.0 325.0,33.0 325.0,32.0 323.0,32.0 322.0,31.0 321.0,31.0 320.0,30.0 319.0,30.0 318.0,29.0 315.0,29.0 315.0,35.0 313.0,37.0 313.0,41.0 312.0,42.0 311.0,42.0 310.0,43.0 303.0,43.0 302.0,44.0 298.0,44.0 296.0,46.0 294.0,46.0 293.0,47.0 286.0,47.0 285.0,46.0 284.0,46.0 283.0,45.0 271.0,45.0 270.0,44.0 252.0,44.0 251.0,43.0 249.0,43.0 249.0,46.0 253.0,46.0 254.0,47.0 258.0,47.0 259.0,46.0 268.0,46.0 269.0,47.0 270.0,47.0 271.0,48.0 273.0,48.0 274.0,49.0 274.0,55.0 278.0,55.0 280.0,57.0 285.0,57.0 286.0,58.0 299.0,58.0 300.0,57.0 309.0,57.0 309.0,56.0 310.0,55.0 314.0,55.0 314.0,54.0 315.0,53.0 323.0,53.0 324.0,52.0 325.0,52.0 328.0,49.0 331.0,49.0 333.0,47.0 336.0,47.0 336.0,44.0 338.0,42.0 341.0,42.0" stroke="black" /><polyline fill="none" points="391.0,26.0 392.0,25.0 403.0,25.0 405.0,27.0 409.0,27.0 411.0,29.0 411.0,33.0 408.0,36.0 402.0,36.0 401.0,35.0 399.0,35.0 398.0,34.0 395.0,34.0 394.0,33.0 394.0,31.0 392.0,31.0 391.0,30.0" stroke="black" /><polyline fill="none" points="170.0,22.0 168.0,22.0 167.0,23.0 166.0,23.0 166.0,24.0 164.0,26.0 163.0,26.0 161.0,28.0 161.0,29.0 160.0,30.0 159.0,30.0 154.0,35.0 154.0,41.0 160.0,41.0 161.0,40.0 162.0,40.0 163.0,39.0 163.0,38.0 172.0,29.0 172.0,25.0 171.0,25.0 170.0,24.0" stroke="black" /><polyline fill="none" points="393.0,19.0 385.0,27.0 385.0,33.0 391.0,33.0 392.0,34.0 392.0,36.0 396.0,36.0 397.0,37.0 399.0,37.0 400.0,38.0 400.0,40.0 402.0,42.0 402.0,43.0 404.0,43.0 406.0,41.0 407.0,41.0 410.0,38.0 411.0,38.0 412.0,37.0 412.0,36.0 413.0,35.0 413.0,31.0 412.0,30.0 412.0,26.0 410.0,24.0 407.0,24.0 406.0,23.0 402.0,23.0 401.0,22.0 397.0,22.0 396.0,21.0 396.0,19.0" stroke="black" /><polyline fill="none" points="266.0,12.0 256.0,12.0 255.0,13.0 250.0,13.0 249.0,14.0 245.0,14.0 244.0,15.0 242.0,15.0 241.0,16.0 239.0,16.0 238.0,17.0 236.0,17.0 235.0,18.0 234.0,18.0 233.0,19.0 231.0,19.0 230.0,20.0 228.0,20.0 226.0,22.0 224.0,22.0 223.0,23.0 221.0,23.0 220.0,24.0 219.0,24.0 217.0,26.0 216.0,26.0 215.0,27.0 214.0,27.0 213.0,28.0 212.0,28.0 211.0,29.0 210.0,29.0 208.0,31.0 207.0,31.0 205.0,33.0 204.0,33.0 203.0,34.0 202.0,34.0 202.0,36.0 205.0,36.0 206.0,35.0 208.0,35.0 208.0,34.0 209.0,33.0 210.0,33.0 211.0,32.0 212.0,32.0 213.0,31.0 214.0,31.0 216.0,29.0 218.0,29.0 220.0,27.0 221.0,27.0 222.0,26.0 223.0,26.0 224.0,25.0 226.0,25.0 227.0,24.0 228.0,24.0 230.0,22.0 232.0,22.0 233.0,21.0 235.0,21.0 236.0,20.0 238.0,20.0 239.0,19.0 240.0,19.0 241.0,18.0 243.0,18.0 244.0,17.0 246.0,17.0 247.0,16.0 254.0,16.0 255.0,15.0 260.0,15.0 261.0,14.0 266.0,14.0" stroke="black" /><polyline fill="none" points="357.0,0.0 357.0,6.0 358.0,6.0 359.0,7.0 360.0,7.0 361.0,8.0 361.0,17.0 359.0,19.0 358.0,19.0 358.0,22.0 357.0,23.0 353.0,23.0 352.0,22.0 352.0,21.0 346.0,21.0 345.0,20.0 345.0,18.0 343.0,18.0 343.0,25.0 344.0,26.0 344.0,27.0 345.0,28.0 345.0,30.0 346.0,31.0 346.0,32.0 347.0,33.0 347.0,37.0 348.0,38.0 348.0,40.0 350.0,42.0 350.0,45.0 354.0,45.0 355.0,46.0 356.0,46.0 357.0,47.0 357.0,51.0 358.0,51.0 359.0,52.0 360.0,52.0 361.0,53.0 371.0,53.0 373.0,55.0 374.0,55.0 375.0,56.0 380.0,56.0 381.0,57.0 383.0,57.0 383.0,56.0 384.0,55.0 391.0,55.0 392.0,54.0 396.0,54.0 397.0,55.0 399.0,55.0 400.0,56.0 400.0,58.0 401.0,58.0 402.0,59.0 408.0,59.0 408.0,57.0 406.0,57.0 405.0,56.0 405.0,54.0 403.0,54.0 402.0,53.0 400.0,53.0 399.0,52.0 389.0,52.0 388.0,53.0 376.0,53.0 374.0,51.0 373.0,51.0 372.0,50.0 371.0,50.0 370.0,49.0 370.0,48.0 369.0,48.0 367.0,46.0 366.0,46.0 365.0,45.0 363.0,45.0 362.0,44.0 362.0,40.0 363.0,39.0 363.0,35.0 364.0,34.0 368.0,34.0 369.0,35.0 372.0,35.0 372.0,33.0 371.0,33.0 370.0,32.0 369.0,32.0 368.0,31.0 368.0,22.0 367.0,21.0 367.0,18.0 366.0,17.0 366.0,15.0 364.0,13.0 364.0,6.0 363.0,5.0 363.0,0.0" stroke="black" /></svg>