<?xml version="1.0" encoding="utf-8" ?>
<svg baseProfile="tiny" height="409" version="1.2" width="333" xmlns="http://www.w3.org/2000/svg" xmlns:ev="http://www.w3.org/2001/xml-events" xmlns:xlink="http://www.w3.org/1999/xlink"><defs /><polyline fill="none" points="53.0,394.0 53.0,398.0 49.0,402.0 48.0,402.0 46.0,404.0 45.0,404.0 44.0,405.0 43.0,405.0 42.0,406.0 34.0,406.0 33.0,405.0 27.0,405.0 26.0,404.0 25.0,404.0 23.0,402.0 22.0,402.0 19.0,399.0 19.0,395.0 20.0,394.0 20.0,393.0 23.0,390.0 27.0,390.0 28.0,391.0 28.0,393.0 36.0,393.0 37.0,392.0 39.0,392.0 40.0,391.0 41.0,391.0 43.0,389.0 47.0,389.0 48.0,390.0 49.0,390.0" stroke="black" /><polyline fill="none" points="192.0,362.0 197.0,362.0 199.0,364.0 199.0,365.0 202.0,368.0 202.0,375.0 200.0,377.0 187.0,377.0 186.0,376.0 186.0,370.0 187.0,369.0 187.0,367.0" stroke="black" /><polyline fill="none" points="238.0,350.0 242.0,350.0 243.0,351.0 243.0,360.0 242.0,361.0 242.0,363.0 241.0,364.0 241.0,365.0 240.0,366.0 236.0,366.0 235.0,365.0 235.0,362.0 234.0,361.0 234.0,354.0" stroke="black" /><polyline fill="none" points="42.0,334.0 46.0,334.0 47.0,335.0 47.0,352.0 48.0,353.0 48.0,357.0 47.0,358.0 45.0,358.0 44.0,359.0 44.0,364.0 46.0,366.0 46.0,370.0 45.0,371.0 41.0,371.0 36.0,366.0 36.0,365.0 34.0,365.0 33.0,364.0 33.0,360.0 34.0,359.0 34.0,352.0 35.0,351.0 35.0,344.0 36.0,343.0 37.0,343.0 38.0,342.0 38.0,338.0" stroke="black" /><polyline fill="none" points="59.0,329.0 60.0,330.0 60.0,335.0 59.0,336.0 59.0,340.0 58.0,341.0 58.0,343.0 57.0,344.0 57.0,348.0 56.0,349.0 52.0,349.0 49.0,346.0 49.0,338.0 50.0,337.0 50.0,335.0 51.0,334.0 51.0,333.0 55.0,329.0" stroke="black" /><polyline fill="none" points="281.0,327.0 285.0,327.0 289.0,331.0 289.0,332.0 290.0,333.0 290.0,338.0 291.0,339.0 291.0,341.0 293.0,343.0 293.0,347.0 292.0,348.0 292.0,349.0 291.0,350.0 287.0,350.0 285.0,348.0 285.0,347.0 284.0,346.0 284.0,343.0 283.0,342.0 283.0,341.0 281.0,339.0 281.0,338.0 280.0,337.0 280.0,328.0" stroke="black" /><polyline fill="none" points="249.0,324.0 253.0,324.0 254.0,325.0 254.0,330.0 255.0,331.0 255.0,333.0 256.0,334.0 256.0,339.0 255.0,340.0 252.0,340.0 252.0,341.0 251.0,342.0 246.0,342.0 245.0,341.0 245.0,334.0 246.0,333.0 247.0,333.0 247.0,332.0 248.0,331.0 248.0,325.0" stroke="black" /><polyline fill="none" points="258.0,322.0 262.0,322.0 263.0,323.0 265.0,323.0 268.0,326.0 268.0,327.0 269.0,328.0 269.0,334.0 270.0,335.0 270.0,343.0 271.0,343.0 272.0,344.0 272.0,349.0 273.0,350.0 273.0,355.0 271.0,357.0 267.0,357.0 265.0,355.0 265.0,351.0 264.0,350.0 264.0,349.0 263.0,348.0 263.0,342.0 262.0,341.0 262.0,338.0 261.0,337.0 261.0,336.0 258.0,333.0 258.0,332.0 257.0,331.0 257.0,323.0" stroke="black" /><polyline fill="none" points="229.0,320.0 230.0,321.0 230.0,326.0 229.0,327.0 229.0,328.0 228.0,329.0 228.0,330.0 227.0,331.0 226.0,331.0 225.0,332.0 225.0,333.0 224.0,334.0 222.0,334.0 222.0,336.0 221.0,337.0 216.0,337.0 213.0,334.0 213.0,329.0 214.0,328.0 215.0,328.0 223.0,320.0" stroke="black" /><polyline fill="none" points="265.0,314.0 269.0,314.0 271.0,316.0 272.0,316.0 273.0,317.0 273.0,319.0 275.0,319.0 278.0,322.0 278.0,327.0 277.0,328.0 277.0,329.0 276.0,330.0 272.0,330.0 271.0,329.0 271.0,326.0 270.0,325.0 270.0,322.0 268.0,322.0 267.0,321.0 266.0,321.0 264.0,319.0 264.0,315.0" stroke="black" /><polyline fill="none" points="234.0,306.0 238.0,306.0 239.0,307.0 239.0,308.0 240.0,309.0 240.0,310.0 242.0,312.0 242.0,313.0 243.0,314.0 243.0,315.0 244.0,316.0 244.0,319.0 245.0,320.0 245.0,324.0 244.0,325.0 240.0,325.0 239.0,324.0 234.0,324.0 233.0,323.0 233.0,322.0 231.0,322.0 230.0,321.0 230.0,317.0 232.0,315.0 232.0,314.0 233.0,313.0 233.0,307.0" stroke="black" /><polyline fill="none" points="162.0,238.0 163.0,237.0 172.0,237.0 173.0,238.0 175.0,238.0 176.0,239.0 176.0,242.0 177.0,243.0 177.0,247.0 176.0,248.0 174.0,248.0 173.0,249.0 171.0,249.0 170.0,250.0 166.0,250.0 162.0,246.0" stroke="black" /><polyline fill="none" points="61.0,215.0 65.0,215.0 67.0,217.0 67.0,218.0 68.0,219.0 68.0,227.0 67.0,228.0 67.0,230.0 65.0,232.0 65.0,233.0 64.0,234.0 59.0,234.0 57.0,232.0 57.0,231.0 56.0,230.0 56.0,224.0 57.0,223.0 57.0,222.0 58.0,221.0 58.0,220.0 59.0,219.0 59.0,218.0 60.0,217.0 60.0,216.0" stroke="black" /><polyline fill="none" points="51.0,204.0 55.0,204.0 56.0,205.0 56.0,206.0 58.0,208.0 58.0,215.0 57.0,216.0 57.0,217.0 56.0,218.0 52.0,218.0 51.0,217.0 51.0,215.0 50.0,214.0 50.0,213.0 49.0,212.0 49.0,206.0" stroke="black" /><polyline fill="none" points="277.0,171.0 285.0,171.0 286.0,172.0 286.0,177.0 285.0,178.0 285.0,182.0 284.0,183.0 284.0,186.0 283.0,187.0 279.0,187.0 278.0,186.0 278.0,185.0 277.0,184.0 277.0,177.0 276.0,176.0 276.0,172.0" stroke="black" /><polyline fill="none" points="212.0,158.0 213.0,157.0 219.0,157.0 220.0,156.0 228.0,156.0 229.0,157.0 229.0,161.0 228.0,162.0 225.0,162.0 224.0,163.0 213.0,163.0 212.0,162.0" stroke="black" /><polyline fill="none" points="85.0,99.0 92.0,99.0 93.0,100.0 93.0,112.0 92.0,113.0 85.0,113.0 84.0,112.0 84.0,100.0" stroke="black" /><polyline fill="none" points="281.0,79.0 283.0,81.0 283.0,83.0 284.0,84.0 284.0,89.0 283.0,90.0 283.0,94.0 284.0,95.0 284.0,99.0 286.0,99.0 287.0,100.0 287.0,107.0 286.0,108.0 286.0,113.0 285.0,114.0 285.0,117.0 284.0,118.0 284.0,120.0 283.0,121.0 283.0,124.0 282.0,125.0 282.0,127.0 281.0,128.0 281.0,130.0 280.0,131.0 280.0,140.0 279.0,141.0 279.0,144.0 280.0,145.0 280.0,151.0 279.0,152.0 279.0,155.0 278.0,156.0 278.0,158.0 276.0,160.0 276.0,161.0 275.0,162.0 275.0,165.0 274.0,166.0 274.0,170.0 273.0,171.0 272.0,171.0 272.0,172.0 271.0,173.0 266.0,173.0 265.0,172.0 265.0,152.0 262.0,152.0 261.0,151.0 261.0,147.0 262.0,146.0 265.0,146.0 265.0,140.0 264.0,139.0 264.0,132.0 265.0,131.0 265.0,107.0 266.0,106.0 266.0,103.0 267.0,102.0 267.0,100.0 268.0,99.0 274.0,99.0 275.0,100.0 275.0,102.0 276.0,103.0 276.0,108.0 275.0,109.0 274.0,109.0 274.0,112.0 275.0,113.0 278.0,113.0 278.0,100.0 277.0,99.0 277.0,98.0 276.0,97.0 276.0,88.0 275.0,87.0 275.0,80.0 276.0,79.0" stroke="black" /><polyline fill="none" points="174.0,79.0 179.0,79.0 180.0,80.0 180.0,84.0 179.0,85.0 179.0,86.0 178.0,87.0 178.0,103.0 177.0,104.0 173.0,104.0 171.0,102.0 171.0,100.0 170.0,99.0 170.0,98.0 169.0,97.0 169.0,91.0 170.0,90.0 170.0,85.0 171.0,84.0 171.0,83.0 173.0,81.0 173.0,80.0" stroke="black" /><polyline fill="none" points="250.0,76.0 252.0,78.0 252.0,79.0 253.0,80.0 253.0,87.0 252.0,88.0 252.0,92.0 251.0,93.0 248.0,93.0 248.0,95.0 247.0,96.0 243.0,96.0 242.0,95.0 242.0,93.0 240.0,91.0 240.0,90.0 239.0,89.0 239.0,88.0 238.0,87.0 238.0,83.0 239.0,82.0 245.0,82.0 245.0,77.0 246.0,76.0" stroke="black" /><polyline fill="none" points="191.0,69.0 195.0,69.0 196.0,70.0 196.0,76.0 195.0,77.0 195.0,86.0 194.0,87.0 192.0,87.0 192.0,104.0 197.0,109.0 197.0,114.0 196.0,115.0 189.0,115.0 183.0,109.0 183.0,108.0 181.0,106.0 181.0,105.0 180.0,104.0 180.0,94.0 181.0,93.0 185.0,93.0 185.0,86.0 186.0,85.0 186.0,79.0 188.0,77.0 188.0,76.0 190.0,74.0 190.0,70.0" stroke="black" /><polyline fill="none" points="233.0,64.0 237.0,64.0 238.0,65.0 238.0,66.0 239.0,67.0 239.0,71.0 240.0,72.0 240.0,73.0 241.0,74.0 241.0,80.0 240.0,81.0 236.0,81.0 235.0,80.0 235.0,78.0 234.0,77.0 234.0,76.0 233.0,75.0 233.0,74.0 232.0,73.0 232.0,72.0 231.0,71.0 231.0,66.0" stroke="black" /><polyline fill="none" points="167.0,63.0 169.0,65.0 169.0,70.0 168.0,71.0 168.0,72.0 167.0,73.0 167.0,78.0 166.0,79.0 166.0,80.0 165.0,81.0 165.0,82.0 163.0,84.0 163.0,85.0 162.0,86.0 162.0,88.0 160.0,90.0 160.0,91.0 159.0,92.0 159.0,93.0 158.0,94.0 154.0,94.0 153.0,93.0 153.0,88.0 154.0,87.0 154.0,80.0 155.0,79.0 155.0,74.0 156.0,73.0 156.0,70.0 157.0,69.0 160.0,69.0 160.0,67.0 161.0,66.0 161.0,64.0 162.0,63.0" stroke="black" /><polyline fill="none" points="149.0,62.0 153.0,68.0 149.0,98.0 138.0,114.0 123.0,118.0 124.0,122.0 138.0,122.0 162.0,104.0 168.0,104.0 180.0,119.0 202.0,122.0 211.0,131.0 220.0,132.0 222.0,127.0 207.0,111.0 211.0,92.0 218.0,91.0 236.0,106.0 234.0,141.0 245.0,133.0 247.0,142.0 257.0,146.0 259.0,154.0 241.0,151.0 211.0,155.0 206.0,160.0 212.0,161.0 212.0,167.0 189.0,177.0 188.0,187.0 197.0,188.0 210.0,197.0 236.0,192.0 242.0,184.0 250.0,184.0 252.0,180.0 243.0,172.0 231.0,169.0 230.0,162.0 237.0,161.0 238.0,156.0 249.0,155.0 263.0,172.0 260.0,212.0 266.0,211.0 271.0,204.0 275.0,204.0 276.0,209.0 266.0,234.0 261.0,240.0 253.0,239.0 240.0,270.0 225.0,291.0 220.0,291.0 219.0,283.0 209.0,276.0 170.0,263.0 174.0,251.0 185.0,251.0 195.0,245.0 191.0,239.0 154.0,233.0 145.0,236.0 144.0,242.0 137.0,241.0 135.0,233.0 145.0,217.0 141.0,216.0 130.0,239.0 149.0,247.0 158.0,245.0 165.0,255.0 165.0,262.0 123.0,273.0 109.0,283.0 121.0,281.0 125.0,287.0 134.0,278.0 153.0,278.0 153.0,284.0 141.0,284.0 138.0,289.0 158.0,297.0 179.0,296.0 192.0,289.0 187.0,285.0 162.0,286.0 162.0,279.0 196.0,280.0 204.0,291.0 209.0,290.0 210.0,284.0 215.0,284.0 218.0,291.0 181.0,321.0 200.0,313.0 219.0,295.0 224.0,296.0 222.0,315.0 206.0,331.0 201.0,351.0 185.0,364.0 182.0,374.0 164.0,375.0 163.0,379.0 141.0,374.0 140.0,378.0 119.0,378.0 115.0,374.0 108.0,378.0 68.0,375.0 62.0,357.0 58.0,356.0 63.0,328.0 83.0,290.0 90.0,289.0 83.0,315.0 89.0,355.0 86.0,312.0 93.0,298.0 91.0,278.0 82.0,262.0 70.0,222.0 68.0,160.0 78.0,158.0 84.0,166.0 83.0,154.0 97.0,145.0 106.0,144.0 107.0,149.0 100.0,157.0 112.0,158.0 115.0,164.0 95.0,168.0 82.0,177.0 116.0,193.0 150.0,189.0 147.0,172.0 132.0,165.0 131.0,159.0 126.0,157.0 127.0,152.0 150.0,155.0 149.0,152.0 108.0,142.0 92.0,142.0 99.0,127.0 101.0,103.0 117.0,89.0 130.0,86.0 145.0,72.0 141.0,65.0" stroke="black" /><polyline fill="none" points="89.0,63.0 90.0,65.0 92.0,65.0 94.0,67.0 94.0,72.0 90.0,77.0 89.0,80.0 86.0,83.0 82.0,83.0 77.0,88.0 75.0,92.0 75.0,94.0 72.0,99.0 72.0,103.0 71.0,104.0 71.0,106.0 74.0,106.0 74.0,102.0 75.0,101.0 79.0,101.0 80.0,102.0 80.0,107.0 79.0,108.0 79.0,119.0 78.0,120.0 78.0,124.0 77.0,125.0 77.0,128.0 75.0,131.0 75.0,133.0 72.0,137.0 71.0,143.0 70.0,144.0 66.0,144.0 65.0,143.0 66.0,125.0 65.0,124.0 65.0,121.0 63.0,121.0 62.0,122.0 62.0,124.0 64.0,127.0 64.0,131.0 63.0,132.0 63.0,145.0 64.0,146.0 64.0,152.0 66.0,152.0 67.0,153.0 67.0,157.0 66.0,158.0 66.0,164.0 65.0,165.0 65.0,195.0 64.0,196.0 61.0,196.0 60.0,198.0 56.0,198.0 55.0,197.0 55.0,188.0 57.0,186.0 58.0,180.0 57.0,179.0 57.0,175.0 56.0,174.0 56.0,170.0 55.0,169.0 54.0,159.0 53.0,157.0 51.0,157.0 50.0,156.0 50.0,149.0 49.0,148.0 46.0,148.0 45.0,147.0 45.0,135.0 44.0,134.0 44.0,123.0 43.0,122.0 43.0,103.0 44.0,102.0 44.0,96.0 45.0,95.0 46.0,83.0 47.0,82.0 47.0,79.0 48.0,78.0 50.0,78.0 51.0,76.0 51.0,73.0 50.0,72.0 50.0,67.0 51.0,66.0 55.0,66.0 56.0,67.0 56.0,70.0 58.0,71.0 58.0,76.0 56.0,78.0 56.0,85.0 55.0,86.0 55.0,91.0 54.0,92.0 54.0,96.0 53.0,97.0 53.0,100.0 52.0,101.0 52.0,107.0 54.0,107.0 55.0,99.0 56.0,98.0 56.0,94.0 57.0,93.0 57.0,88.0 58.0,87.0 58.0,82.0 60.0,81.0 61.0,79.0 67.0,79.0 68.0,80.0 72.0,80.0 72.0,75.0 73.0,74.0 73.0,67.0 76.0,63.0 78.0,62.0" stroke="black" /><polyline fill="none" points="236.0,42.0 237.0,41.0 242.0,41.0 243.0,42.0 243.0,43.0 244.0,44.0 244.0,46.0 246.0,46.0 247.0,47.0 247.0,51.0 246.0,52.0 243.0,52.0 243.0,53.0 242.0,54.0 237.0,54.0 236.0,53.0" stroke="black" /><polyline fill="none" points="185.0,38.0 190.0,38.0 191.0,39.0 191.0,42.0 193.0,44.0 193.0,52.0 192.0,53.0 192.0,55.0 191.0,56.0 185.0,56.0 184.0,55.0 184.0,39.0" stroke="black" /><polyline fill="none" points="159.0,30.0 160.0,31.0 160.0,33.0 161.0,34.0 161.0,45.0 160.0,46.0 160.0,48.0 159.0,49.0 159.0,50.0 158.0,51.0 158.0,54.0 157.0,55.0 156.0,55.0 156.0,57.0 155.0,58.0 151.0,58.0 150.0,57.0 150.0,51.0 149.0,51.0 148.0,50.0 148.0,45.0 149.0,44.0 149.0,43.0 150.0,42.0 150.0,41.0 151.0,40.0 151.0,35.0 152.0,34.0 152.0,33.0 153.0,32.0 153.0,31.0 154.0,30.0" stroke="black" /><polyline fill="none" points="115.0,12.0 115.0,17.0 114.0,18.0 113.0,18.0 112.0,19.0 111.0,19.0 110.0,20.0 109.0,20.0 107.0,22.0 106.0,22.0 102.0,26.0 101.0,26.0 100.0,27.0 96.0,27.0 95.0,26.0 95.0,19.0 96.0,18.0 97.0,18.0 98.0,17.0 99.0,17.0 101.0,15.0 102.0,15.0 104.0,13.0 105.0,13.0 106.0,12.0 107.0,12.0 108.0,11.0 114.0,11.0" stroke="black" /><polyline fill="none" points="101.0,11.0 76.0,27.0 59.0,45.0 49.0,62.0 41.0,101.0 43.0,153.0 37.0,161.0 40.0,193.0 55.0,235.0 74.0,242.0 85.0,279.0 59.0,313.0 42.0,318.0 31.0,327.0 28.0,336.0 14.0,346.0 19.0,349.0 30.0,339.0 35.0,340.0 35.0,346.0 31.0,355.0 20.0,360.0 11.0,370.0 9.0,382.0 12.0,396.0 22.0,408.0 49.0,408.0 58.0,398.0 62.0,382.0 67.0,381.0 77.0,408.0 80.0,407.0 75.0,396.0 76.0,390.0 143.0,390.0 152.0,394.0 159.0,389.0 183.0,391.0 182.0,408.0 185.0,408.0 188.0,391.0 211.0,390.0 211.0,376.0 216.0,375.0 213.0,347.0 227.0,343.0 234.0,327.0 239.0,327.0 240.0,333.0 236.0,345.0 230.0,346.0 229.0,357.0 232.0,362.0 229.0,394.0 222.0,408.0 225.0,408.0 231.0,392.0 235.0,391.0 240.0,381.0 246.0,382.0 240.0,405.0 243.0,408.0 249.0,389.0 249.0,377.0 257.0,377.0 259.0,363.0 264.0,364.0 269.0,386.0 274.0,386.0 268.0,377.0 266.0,361.0 276.0,357.0 275.0,342.0 279.0,342.0 283.0,351.0 294.0,360.0 295.0,345.0 301.0,343.0 305.0,347.0 302.0,354.0 305.0,357.0 304.0,369.0 290.0,391.0 292.0,395.0 314.0,395.0 316.0,386.0 312.0,386.0 311.0,379.0 306.0,378.0 309.0,360.0 306.0,344.0 298.0,334.0 293.0,333.0 288.0,321.0 294.0,320.0 312.0,329.0 330.0,345.0 332.0,339.0 315.0,327.0 234.0,289.0 251.0,247.0 264.0,242.0 271.0,230.0 289.0,174.0 288.0,162.0 282.0,158.0 282.0,133.0 288.0,115.0 289.0,93.0 278.0,62.0 250.0,26.0 250.0,18.0 236.0,17.0 214.0,0.0 130.0,0.0 129.0,3.0" stroke="black" /></svg>