<?xml version="1.0" encoding="utf-8" ?>
<svg baseProfile="tiny" height="388" version="1.2" width="500" xmlns="http://www.w3.org/2000/svg" xmlns:ev="http://www.w3.org/2001/xml-events" xmlns:xlink="http://www.w3.org/1999/xlink"><defs /><polyline fill="none" points="466.0,376.0 467.0,375.0 473.0,375.0 474.0,376.0 474.0,382.0 473.0,383.0 467.0,383.0 466.0,382.0" stroke="black" /><polyline fill="none" points="81.0,373.0 87.0,373.0 88.0,374.0 88.0,382.0 87.0,383.0 81.0,383.0 80.0,382.0 80.0,374.0" stroke="black" /><polyline fill="none" points="401.0,364.0 407.0,364.0 408.0,365.0 408.0,366.0 410.0,368.0 410.0,369.0 413.0,371.0 413.0,379.0 412.0,380.0 399.0,380.0 398.0,379.0 398.0,369.0 399.0,368.0 400.0,368.0 400.0,365.0" stroke="black" /><polyline fill="none" points="288.0,357.0 289.0,356.0 295.0,356.0 296.0,357.0 296.0,363.0 295.0,364.0 289.0,364.0 288.0,363.0" stroke="black" /><polyline fill="none" points="341.0,354.0 347.0,354.0 348.0,355.0 348.0,364.0 347.0,365.0 341.0,365.0 340.0,364.0 340.0,355.0" stroke="black" /><polyline fill="none" points="207.0,354.0 208.0,353.0 217.0,353.0 218.0,354.0 218.0,360.0 217.0,361.0 208.0,361.0 207.0,360.0" stroke="black" /><polyline fill="none" points="443.0,347.0 449.0,347.0 450.0,348.0 450.0,360.0 449.0,361.0 449.0,363.0 448.0,364.0 442.0,364.0 441.0,363.0 441.0,357.0 442.0,356.0 442.0,348.0" stroke="black" /><polyline fill="none" points="243.0,348.0 244.0,347.0 250.0,347.0 251.0,348.0 255.0,348.0 256.0,347.0 266.0,347.0 267.0,348.0 267.0,355.0 266.0,356.0 265.0,356.0 262.0,359.0 262.0,360.0 261.0,361.0 254.0,361.0 251.0,359.0 244.0,359.0 243.0,358.0" stroke="black" /><polyline fill="none" points="408.0,336.0 409.0,335.0 415.0,335.0 416.0,336.0 416.0,343.0 415.0,344.0 409.0,344.0 408.0,343.0" stroke="black" /><polyline fill="none" points="438.0,332.0 439.0,333.0 439.0,339.0 435.0,344.0 435.0,348.0 433.0,350.0 433.0,351.0 431.0,353.0 430.0,353.0 430.0,358.0 427.0,362.0 426.0,366.0 425.0,367.0 419.0,367.0 418.0,366.0 418.0,354.0 419.0,353.0 421.0,353.0 421.0,352.0 423.0,350.0 424.0,350.0 424.0,343.0 427.0,340.0 427.0,338.0 430.0,335.0 430.0,333.0 431.0,332.0" stroke="black" /><polyline fill="none" points="199.0,330.0 200.0,330.0 201.0,329.0 207.0,329.0 208.0,330.0 208.0,333.0 214.0,333.0 215.0,334.0 215.0,347.0 214.0,348.0 205.0,348.0 204.0,347.0 204.0,338.0 199.0,338.0 198.0,337.0 198.0,331.0" stroke="black" /><polyline fill="none" points="441.0,327.0 447.0,327.0 449.0,330.0 449.0,334.0 452.0,334.0 453.0,335.0 453.0,336.0 455.0,338.0 455.0,345.0 454.0,346.0 446.0,346.0 445.0,345.0 445.0,337.0 441.0,337.0 440.0,336.0 440.0,328.0" stroke="black" /><polyline fill="none" points="396.0,327.0 397.0,328.0 397.0,334.0 396.0,335.0 395.0,335.0 395.0,338.0 396.0,339.0 396.0,342.0 397.0,342.0 398.0,343.0 398.0,351.0 397.0,352.0 389.0,352.0 388.0,351.0 388.0,349.0 386.0,349.0 385.0,350.0 380.0,350.0 380.0,352.0 379.0,353.0 379.0,355.0 378.0,356.0 372.0,356.0 371.0,355.0 371.0,343.0 372.0,342.0 376.0,342.0 377.0,341.0 378.0,341.0 382.0,337.0 383.0,337.0 387.0,333.0 387.0,332.0 388.0,331.0 389.0,331.0 389.0,328.0 390.0,327.0" stroke="black" /><polyline fill="none" points="177.0,324.0 178.0,323.0 185.0,323.0 186.0,324.0 187.0,324.0 188.0,325.0 190.0,325.0 191.0,326.0 191.0,334.0 190.0,335.0 186.0,335.0 185.0,336.0 179.0,336.0 178.0,335.0 178.0,334.0 177.0,333.0" stroke="black" /><polyline fill="none" points="294.0,320.0 295.0,319.0 302.0,319.0 303.0,318.0 310.0,318.0 312.0,320.0 312.0,326.0 311.0,327.0 310.0,327.0 309.0,328.0 298.0,328.0 297.0,327.0 295.0,327.0 294.0,326.0" stroke="black" /><polyline fill="none" points="211.0,318.0 212.0,317.0 218.0,317.0 219.0,318.0 219.0,324.0 218.0,325.0 212.0,325.0 211.0,324.0" stroke="black" /><polyline fill="none" points="409.0,314.0 410.0,313.0 416.0,313.0 417.0,314.0 417.0,319.0 423.0,319.0 424.0,320.0 424.0,326.0 423.0,327.0 413.0,327.0 412.0,326.0 412.0,322.0 410.0,322.0 409.0,321.0" stroke="black" /><polyline fill="none" points="191.0,313.0 192.0,312.0 198.0,312.0 199.0,313.0 200.0,313.0 202.0,315.0 202.0,321.0 201.0,322.0 194.0,322.0 193.0,321.0 193.0,320.0 192.0,320.0 191.0,319.0" stroke="black" /><polyline fill="none" points="109.0,308.0 115.0,308.0 116.0,309.0 116.0,310.0 118.0,312.0 118.0,321.0 117.0,322.0 111.0,322.0 108.0,319.0 108.0,309.0" stroke="black" /><polyline fill="none" points="55.0,347.0 56.0,346.0 58.0,346.0 58.0,340.0 60.0,337.0 60.0,335.0 61.0,334.0 61.0,333.0 62.0,332.0 64.0,327.0 66.0,325.0 66.0,324.0 68.0,322.0 68.0,321.0 70.0,319.0 73.0,319.0 73.0,315.0 78.0,310.0 78.0,309.0 80.0,307.0 80.0,306.0 81.0,305.0 87.0,305.0 88.0,306.0 88.0,308.0 90.0,308.0 91.0,309.0 91.0,311.0 94.0,311.0 95.0,312.0 95.0,316.0 96.0,317.0 97.0,320.0 99.0,322.0 101.0,322.0 102.0,323.0 103.0,323.0 105.0,325.0 105.0,330.0 107.0,330.0 112.0,335.0 112.0,338.0 118.0,338.0 119.0,339.0 119.0,340.0 121.0,340.0 122.0,341.0 122.0,348.0 123.0,349.0 123.0,350.0 135.0,350.0 138.0,352.0 138.0,361.0 137.0,362.0 131.0,362.0 129.0,365.0 119.0,365.0 116.0,367.0 102.0,367.0 101.0,366.0 101.0,356.0 100.0,355.0 100.0,349.0 102.0,346.0 102.0,342.0 100.0,340.0 100.0,332.0 97.0,332.0 96.0,331.0 96.0,330.0 86.0,330.0 85.0,329.0 85.0,324.0 84.0,324.0 83.0,323.0 83.0,322.0 77.0,322.0 77.0,326.0 78.0,326.0 79.0,327.0 79.0,329.0 83.0,329.0 84.0,330.0 84.0,339.0 83.0,340.0 77.0,340.0 77.0,345.0 78.0,345.0 79.0,346.0 79.0,348.0 80.0,349.0 80.0,352.0 82.0,352.0 85.0,355.0 85.0,356.0 87.0,356.0 88.0,357.0 88.0,366.0 87.0,367.0 81.0,367.0 76.0,362.0 76.0,360.0 75.0,359.0 75.0,356.0 72.0,356.0 71.0,355.0 71.0,350.0 70.0,350.0 69.0,349.0 69.0,347.0 63.0,347.0 63.0,353.0 62.0,354.0 56.0,354.0 55.0,353.0" stroke="black" /><polyline fill="none" points="125.0,304.0 131.0,304.0 136.0,309.0 137.0,309.0 140.0,312.0 140.0,316.0 144.0,316.0 150.0,322.0 152.0,322.0 153.0,323.0 153.0,326.0 163.0,326.0 164.0,327.0 164.0,331.0 166.0,333.0 167.0,336.0 168.0,336.0 169.0,337.0 169.0,347.0 170.0,348.0 170.0,354.0 175.0,354.0 176.0,355.0 176.0,361.0 175.0,362.0 169.0,362.0 168.0,361.0 168.0,356.0 162.0,356.0 161.0,355.0 155.0,355.0 155.0,359.0 156.0,360.0 157.0,360.0 158.0,361.0 158.0,362.0 174.0,362.0 175.0,363.0 175.0,369.0 174.0,370.0 168.0,370.0 167.0,371.0 149.0,371.0 148.0,370.0 148.0,366.0 143.0,366.0 142.0,365.0 142.0,352.0 143.0,351.0 153.0,351.0 153.0,345.0 151.0,345.0 150.0,344.0 136.0,344.0 135.0,343.0 135.0,336.0 128.0,336.0 127.0,335.0 127.0,333.0 118.0,333.0 117.0,332.0 117.0,323.0 118.0,322.0 130.0,322.0 131.0,323.0 131.0,325.0 135.0,325.0 135.0,324.0 136.0,323.0 137.0,323.0 137.0,319.0 129.0,319.0 127.0,316.0 127.0,314.0 125.0,314.0 124.0,313.0 124.0,305.0" stroke="black" /><polyline fill="none" points="172.0,305.0 174.0,303.0 181.0,303.0 182.0,304.0 183.0,304.0 184.0,305.0 184.0,311.0 183.0,312.0 173.0,312.0 172.0,311.0" stroke="black" /><polyline fill="none" points="94.0,297.0 101.0,297.0 102.0,298.0 102.0,304.0 103.0,304.0 104.0,305.0 104.0,311.0 103.0,312.0 96.0,312.0 95.0,311.0 95.0,309.0 94.0,308.0 94.0,305.0 93.0,304.0 93.0,298.0" stroke="black" /><polyline fill="none" points="394.0,294.0 395.0,293.0 402.0,293.0 403.0,294.0 403.0,300.0 402.0,301.0 395.0,301.0 394.0,300.0" stroke="black" /><polyline fill="none" points="141.0,289.0 144.0,289.0 145.0,288.0 151.0,288.0 152.0,289.0 152.0,291.0 153.0,292.0 153.0,293.0 155.0,295.0 156.0,298.0 158.0,300.0 158.0,310.0 157.0,311.0 151.0,311.0 149.0,309.0 149.0,308.0 148.0,308.0 142.0,302.0 142.0,301.0 141.0,301.0 140.0,300.0 140.0,290.0" stroke="black" /><polyline fill="none" points="310.0,282.0 312.0,280.0 312.0,279.0 313.0,278.0 313.0,271.0 314.0,270.0 325.0,270.0 326.0,271.0 328.0,271.0 329.0,272.0 330.0,272.0 331.0,273.0 332.0,273.0 333.0,274.0 334.0,274.0 337.0,276.0 341.0,276.0 342.0,277.0 348.0,277.0 349.0,278.0 351.0,278.0 354.0,280.0 354.0,291.0 353.0,292.0 347.0,292.0 347.0,295.0 348.0,295.0 350.0,297.0 350.0,298.0 354.0,298.0 354.0,290.0 355.0,289.0 358.0,289.0 358.0,284.0 359.0,283.0 366.0,283.0 369.0,285.0 373.0,285.0 374.0,286.0 382.0,286.0 383.0,287.0 385.0,287.0 388.0,289.0 390.0,289.0 392.0,291.0 392.0,297.0 390.0,299.0 387.0,299.0 385.0,301.0 384.0,301.0 384.0,303.0 383.0,304.0 383.0,305.0 382.0,306.0 382.0,307.0 381.0,308.0 379.0,308.0 378.0,309.0 360.0,309.0 359.0,308.0 342.0,308.0 341.0,307.0 341.0,297.0 338.0,297.0 337.0,298.0 327.0,298.0 327.0,302.0 330.0,302.0 331.0,303.0 331.0,309.0 330.0,310.0 324.0,310.0 323.0,309.0 323.0,303.0 320.0,303.0 319.0,302.0 319.0,293.0 311.0,293.0 310.0,292.0" stroke="black" /><polyline fill="none" points="242.0,219.0 243.0,218.0 250.0,218.0 251.0,219.0 251.0,225.0 250.0,226.0 243.0,226.0 242.0,225.0" stroke="black" /><polyline fill="none" points="333.0,212.0 332.0,213.0 332.0,215.0 334.0,217.0 335.0,217.0 336.0,218.0 336.0,227.0 340.0,227.0 340.0,223.0 339.0,223.0 338.0,222.0 338.0,213.0 337.0,212.0" stroke="black" /><polyline fill="none" points="205.0,200.0 204.0,201.0 202.0,201.0 202.0,206.0 204.0,206.0 205.0,207.0 205.0,214.0 207.0,214.0 208.0,213.0 210.0,213.0 210.0,211.0 209.0,210.0 209.0,208.0 208.0,207.0 208.0,200.0" stroke="black" /><polyline fill="none" points="255.0,191.0 256.0,190.0 262.0,190.0 263.0,191.0 263.0,197.0 262.0,198.0 256.0,198.0 255.0,197.0" stroke="black" /><polyline fill="none" points="168.0,188.0 169.0,189.0 169.0,193.0 170.0,194.0 170.0,195.0 172.0,195.0 175.0,198.0 176.0,198.0 179.0,200.0 179.0,201.0 180.0,202.0 181.0,205.0 183.0,207.0 183.0,208.0 184.0,209.0 184.0,213.0 186.0,215.0 186.0,222.0 185.0,223.0 176.0,223.0 176.0,227.0 177.0,228.0 177.0,231.0 181.0,231.0 181.0,230.0 182.0,229.0 182.0,226.0 183.0,225.0 190.0,225.0 191.0,226.0 192.0,229.0 196.0,233.0 196.0,234.0 198.0,236.0 198.0,237.0 199.0,238.0 199.0,255.0 197.0,257.0 194.0,258.0 191.0,261.0 189.0,261.0 188.0,262.0 187.0,262.0 186.0,263.0 185.0,263.0 184.0,264.0 183.0,264.0 178.0,267.0 168.0,267.0 167.0,266.0 165.0,266.0 162.0,264.0 159.0,264.0 157.0,266.0 156.0,266.0 151.0,270.0 141.0,270.0 140.0,271.0 140.0,274.0 139.0,275.0 132.0,275.0 132.0,280.0 131.0,281.0 129.0,281.0 128.0,282.0 122.0,282.0 121.0,281.0 121.0,275.0 122.0,274.0 123.0,274.0 123.0,273.0 125.0,270.0 127.0,270.0 127.0,268.0 129.0,266.0 129.0,264.0 130.0,263.0 131.0,263.0 131.0,260.0 135.0,255.0 135.0,254.0 136.0,253.0 136.0,250.0 138.0,248.0 138.0,246.0 139.0,245.0 139.0,241.0 140.0,240.0 140.0,239.0 142.0,237.0 152.0,237.0 152.0,228.0 153.0,227.0 156.0,227.0 156.0,221.0 157.0,220.0 164.0,220.0 165.0,221.0 165.0,222.0 169.0,222.0 169.0,217.0 168.0,217.0 167.0,216.0 163.0,216.0 162.0,215.0 162.0,207.0 161.0,206.0 161.0,189.0 162.0,188.0" stroke="black" /><polyline fill="none" points="226.0,183.0 232.0,183.0 234.0,185.0 235.0,185.0 238.0,187.0 238.0,198.0 237.0,199.0 236.0,199.0 233.0,201.0 226.0,201.0 225.0,200.0 225.0,184.0" stroke="black" /><polyline fill="none" points="244.0,127.0 252.0,127.0 253.0,128.0 253.0,138.0 254.0,139.0 254.0,140.0 255.0,141.0 255.0,143.0 256.0,144.0 256.0,158.0 257.0,159.0 257.0,160.0 258.0,161.0 258.0,162.0 259.0,162.0 260.0,163.0 260.0,170.0 259.0,171.0 256.0,171.0 256.0,172.0 255.0,173.0 255.0,174.0 254.0,175.0 254.0,176.0 253.0,177.0 247.0,177.0 245.0,175.0 245.0,174.0 244.0,174.0 243.0,173.0 243.0,166.0 245.0,164.0 246.0,164.0 247.0,163.0 247.0,159.0 246.0,159.0 245.0,158.0 236.0,158.0 235.0,157.0 235.0,151.0 236.0,150.0 236.0,149.0 237.0,148.0 237.0,145.0 238.0,144.0 242.0,144.0 243.0,143.0 243.0,128.0" stroke="black" /><polyline fill="none" points="188.0,127.0 194.0,127.0 195.0,128.0 195.0,135.0 192.0,140.0 192.0,145.0 194.0,147.0 194.0,148.0 201.0,148.0 202.0,149.0 202.0,154.0 203.0,154.0 204.0,155.0 206.0,155.0 207.0,156.0 209.0,156.0 210.0,157.0 213.0,157.0 214.0,158.0 214.0,162.0 222.0,162.0 227.0,158.0 233.0,158.0 234.0,159.0 234.0,165.0 231.0,168.0 230.0,171.0 228.0,173.0 228.0,175.0 225.0,178.0 225.0,183.0 224.0,184.0 220.0,184.0 217.0,186.0 209.0,186.0 209.0,189.0 208.0,190.0 208.0,192.0 209.0,193.0 209.0,198.0 214.0,198.0 215.0,197.0 223.0,197.0 224.0,198.0 224.0,204.0 222.0,207.0 222.0,212.0 221.0,213.0 221.0,215.0 223.0,215.0 225.0,213.0 227.0,213.0 228.0,212.0 231.0,212.0 232.0,211.0 238.0,211.0 239.0,212.0 239.0,219.0 238.0,220.0 234.0,220.0 233.0,221.0 232.0,221.0 232.0,224.0 233.0,225.0 233.0,232.0 245.0,232.0 246.0,233.0 246.0,239.0 244.0,241.0 241.0,242.0 239.0,244.0 239.0,246.0 238.0,247.0 231.0,247.0 228.0,244.0 227.0,244.0 223.0,241.0 221.0,241.0 215.0,236.0 207.0,236.0 206.0,235.0 206.0,233.0 205.0,232.0 205.0,231.0 201.0,227.0 201.0,226.0 197.0,221.0 197.0,220.0 194.0,215.0 194.0,213.0 192.0,210.0 192.0,207.0 191.0,206.0 191.0,204.0 189.0,201.0 189.0,182.0 188.0,181.0 188.0,176.0 185.0,172.0 185.0,171.0 183.0,168.0 183.0,165.0 182.0,164.0 182.0,143.0 183.0,142.0 183.0,139.0 184.0,138.0 184.0,136.0 185.0,135.0 185.0,133.0 186.0,132.0 186.0,129.0" stroke="black" /><polyline fill="none" points="162.0,126.0 163.0,127.0 163.0,132.0 164.0,133.0 164.0,139.0 162.0,141.0 162.0,143.0 160.0,145.0 160.0,150.0 159.0,151.0 159.0,161.0 160.0,162.0 160.0,172.0 159.0,173.0 159.0,176.0 158.0,177.0 158.0,182.0 157.0,183.0 157.0,188.0 156.0,189.0 152.0,189.0 152.0,193.0 155.0,193.0 156.0,194.0 156.0,205.0 157.0,206.0 157.0,213.0 156.0,214.0 155.0,214.0 154.0,215.0 154.0,218.0 153.0,219.0 151.0,219.0 151.0,222.0 150.0,223.0 150.0,228.0 148.0,230.0 142.0,230.0 141.0,229.0 141.0,218.0 142.0,217.0 142.0,216.0 143.0,215.0 143.0,175.0 144.0,174.0 144.0,172.0 145.0,171.0 145.0,162.0 146.0,161.0 146.0,160.0 147.0,159.0 147.0,155.0 148.0,154.0 148.0,153.0 149.0,152.0 149.0,150.0 150.0,149.0 150.0,145.0 152.0,143.0 152.0,140.0 153.0,139.0 153.0,136.0 154.0,135.0 154.0,134.0 155.0,133.0 155.0,127.0 156.0,126.0" stroke="black" /><polyline fill="none" points="216.0,124.0 217.0,123.0 235.0,123.0 237.0,125.0 237.0,131.0 236.0,132.0 225.0,132.0 223.0,134.0 217.0,134.0 216.0,133.0" stroke="black" /><polyline fill="none" points="314.0,121.0 317.0,127.0 320.0,141.0 320.0,164.0 318.0,172.0 322.0,173.0 322.0,179.0 320.0,182.0 320.0,188.0 315.0,193.0 310.0,214.0 299.0,231.0 300.0,250.0 302.0,259.0 307.0,267.0 306.0,275.0 296.0,287.0 279.0,299.0 261.0,301.0 260.0,297.0 256.0,297.0 254.0,292.0 248.0,291.0 246.0,294.0 239.0,294.0 237.0,289.0 230.0,286.0 225.0,286.0 224.0,284.0 219.0,284.0 218.0,276.0 222.0,275.0 222.0,271.0 220.0,270.0 220.0,268.0 215.0,268.0 215.0,278.0 213.0,286.0 219.0,287.0 220.0,291.0 223.0,291.0 226.0,294.0 230.0,295.0 235.0,300.0 235.0,306.0 227.0,307.0 217.0,304.0 213.0,301.0 194.0,302.0 186.0,298.0 176.0,286.0 175.0,277.0 178.0,275.0 185.0,275.0 186.0,280.0 192.0,286.0 195.0,286.0 196.0,282.0 205.0,283.0 206.0,278.0 203.0,275.0 196.0,275.0 195.0,268.0 205.0,262.0 207.0,245.0 214.0,245.0 218.0,249.0 230.0,256.0 236.0,257.0 242.0,261.0 254.0,262.0 255.0,265.0 259.0,265.0 259.0,262.0 264.0,258.0 274.0,256.0 277.0,254.0 278.0,251.0 281.0,251.0 283.0,248.0 286.0,248.0 289.0,245.0 291.0,245.0 291.0,241.0 287.0,241.0 276.0,248.0 270.0,248.0 269.0,237.0 265.0,237.0 265.0,244.0 269.0,245.0 269.0,251.0 267.0,254.0 257.0,254.0 256.0,252.0 251.0,252.0 250.0,245.0 255.0,241.0 255.0,231.0 259.0,230.0 261.0,227.0 266.0,226.0 270.0,218.0 270.0,211.0 282.0,210.0 283.0,205.0 292.0,205.0 292.0,200.0 294.0,199.0 294.0,195.0 292.0,194.0 291.0,190.0 286.0,191.0 288.0,196.0 287.0,203.0 273.0,202.0 269.0,199.0 269.0,190.0 274.0,184.0 278.0,184.0 279.0,177.0 278.0,168.0 275.0,161.0 273.0,160.0 273.0,152.0 282.0,151.0 284.0,159.0 292.0,159.0 292.0,153.0 295.0,151.0 299.0,151.0 302.0,149.0 303.0,143.0 310.0,141.0 310.0,137.0 302.0,132.0 302.0,122.0" stroke="black" /><polyline fill="none" points="298.0,120.0 298.0,129.0 297.0,130.0 291.0,130.0 290.0,131.0 276.0,131.0 273.0,133.0 267.0,133.0 266.0,132.0 266.0,130.0 264.0,130.0 263.0,129.0 263.0,123.0 264.0,122.0 270.0,122.0 271.0,123.0 275.0,123.0 276.0,122.0 280.0,122.0 281.0,121.0 283.0,121.0 284.0,120.0 288.0,120.0 289.0,119.0 297.0,119.0" stroke="black" /><polyline fill="none" points="325.0,96.0 331.0,96.0 332.0,97.0 332.0,102.0 333.0,103.0 333.0,104.0 334.0,105.0 334.0,108.0 335.0,109.0 335.0,111.0 336.0,112.0 336.0,115.0 337.0,116.0 337.0,118.0 338.0,119.0 338.0,121.0 339.0,122.0 339.0,129.0 338.0,130.0 327.0,130.0 326.0,129.0 326.0,123.0 327.0,122.0 327.0,116.0 326.0,115.0 326.0,113.0 325.0,113.0 324.0,112.0 324.0,108.0 320.0,108.0 319.0,107.0 319.0,101.0 320.0,100.0 324.0,100.0 324.0,97.0" stroke="black" /><polyline fill="none" points="298.0,65.0 299.0,64.0 305.0,64.0 306.0,65.0 306.0,71.0 305.0,72.0 299.0,72.0 298.0,71.0" stroke="black" /><polyline fill="none" points="206.0,63.0 207.0,64.0 207.0,76.0 205.0,78.0 204.0,78.0 200.0,82.0 199.0,82.0 199.0,89.0 198.0,90.0 195.0,90.0 195.0,95.0 194.0,96.0 194.0,97.0 189.0,102.0 189.0,103.0 186.0,106.0 186.0,107.0 184.0,109.0 184.0,110.0 182.0,112.0 182.0,113.0 181.0,114.0 181.0,116.0 180.0,117.0 180.0,118.0 179.0,119.0 178.0,119.0 178.0,125.0 177.0,126.0 171.0,126.0 170.0,125.0 170.0,119.0 171.0,118.0 172.0,118.0 172.0,114.0 171.0,113.0 171.0,104.0 172.0,103.0 173.0,103.0 173.0,92.0 174.0,91.0 178.0,91.0 178.0,87.0 176.0,87.0 175.0,86.0 175.0,80.0 176.0,79.0 176.0,78.0 177.0,77.0 177.0,76.0 178.0,75.0 178.0,74.0 179.0,73.0 179.0,72.0 181.0,70.0 181.0,69.0 184.0,66.0 184.0,65.0 186.0,63.0" stroke="black" /><polyline fill="none" points="282.0,57.0 283.0,56.0 289.0,56.0 290.0,57.0 290.0,64.0 289.0,65.0 283.0,65.0 282.0,64.0" stroke="black" /><polyline fill="none" points="247.0,38.0 247.0,44.0 246.0,45.0 240.0,45.0 240.0,46.0 239.0,47.0 238.0,47.0 236.0,49.0 235.0,49.0 235.0,50.0 234.0,51.0 233.0,51.0 231.0,53.0 230.0,53.0 230.0,54.0 229.0,55.0 223.0,55.0 222.0,54.0 222.0,47.0 223.0,46.0 223.0,42.0 227.0,38.0 230.0,38.0 231.0,37.0 232.0,37.0 233.0,36.0 235.0,36.0 236.0,35.0 244.0,35.0 245.0,36.0 245.0,37.0 246.0,37.0" stroke="black" /><polyline fill="none" points="201.0,105.0 206.0,99.0 211.0,99.0 211.0,90.0 212.0,89.0 216.0,89.0 216.0,87.0 217.0,86.0 217.0,80.0 221.0,74.0 235.0,73.0 235.0,70.0 236.0,69.0 245.0,69.0 247.0,71.0 251.0,71.0 252.0,72.0 252.0,78.0 246.0,81.0 246.0,89.0 245.0,90.0 242.0,90.0 241.0,92.0 241.0,94.0 244.0,94.0 245.0,95.0 245.0,105.0 252.0,105.0 253.0,100.0 252.0,99.0 250.0,99.0 249.0,97.0 247.0,96.0 247.0,87.0 254.0,84.0 254.0,76.0 255.0,75.0 260.0,75.0 262.0,73.0 265.0,73.0 265.0,69.0 260.0,69.0 258.0,67.0 258.0,63.0 256.0,63.0 255.0,64.0 249.0,64.0 248.0,63.0 248.0,49.0 249.0,48.0 257.0,48.0 257.0,46.0 258.0,45.0 262.0,45.0 262.0,41.0 254.0,41.0 253.0,40.0 253.0,33.0 254.0,32.0 262.0,32.0 263.0,33.0 267.0,33.0 271.0,36.0 274.0,36.0 277.0,39.0 281.0,41.0 281.0,45.0 287.0,45.0 289.0,47.0 289.0,53.0 287.0,55.0 281.0,55.0 280.0,54.0 280.0,48.0 266.0,48.0 266.0,52.0 268.0,52.0 269.0,53.0 277.0,53.0 278.0,54.0 278.0,59.0 281.0,59.0 282.0,60.0 282.0,69.0 284.0,70.0 284.0,72.0 290.0,72.0 292.0,76.0 295.0,78.0 299.0,78.0 300.0,79.0 300.0,82.0 302.0,86.0 302.0,91.0 306.0,93.0 307.0,100.0 309.0,103.0 309.0,109.0 308.0,110.0 302.0,110.0 301.0,109.0 298.0,109.0 297.0,110.0 278.0,110.0 277.0,111.0 270.0,112.0 268.0,114.0 266.0,114.0 264.0,118.0 259.0,118.0 256.0,123.0 250.0,123.0 249.0,122.0 249.0,120.0 246.0,116.0 246.0,114.0 243.0,112.0 235.0,112.0 231.0,109.0 229.0,109.0 225.0,112.0 202.0,112.0 201.0,111.0" stroke="black" /><polyline fill="none" points="202.0,31.0 170.0,68.0 150.0,114.0 147.0,134.0 136.0,165.0 135.0,228.0 129.0,251.0 122.0,254.0 121.0,261.0 116.0,264.0 115.0,269.0 111.0,269.0 111.0,277.0 106.0,279.0 105.0,283.0 78.0,292.0 58.0,317.0 47.0,338.0 33.0,387.0 44.0,387.0 49.0,366.0 57.0,367.0 63.0,387.0 118.0,387.0 118.0,383.0 110.0,379.0 110.0,373.0 121.0,369.0 132.0,369.0 134.0,378.0 146.0,382.0 147.0,387.0 151.0,387.0 152.0,378.0 161.0,378.0 162.0,387.0 173.0,387.0 173.0,370.0 184.0,371.0 181.0,387.0 185.0,387.0 189.0,381.0 195.0,381.0 197.0,387.0 221.0,387.0 218.0,374.0 214.0,373.0 215.0,365.0 229.0,367.0 231.0,387.0 235.0,387.0 236.0,383.0 245.0,383.0 246.0,380.0 254.0,380.0 255.0,387.0 285.0,387.0 286.0,383.0 300.0,381.0 301.0,387.0 324.0,387.0 316.0,385.0 315.0,381.0 306.0,381.0 305.0,377.0 296.0,376.0 297.0,369.0 307.0,368.0 308.0,372.0 316.0,369.0 317.0,356.0 313.0,355.0 313.0,349.0 316.0,344.0 322.0,344.0 323.0,340.0 331.0,341.0 331.0,347.0 324.0,348.0 324.0,354.0 328.0,355.0 325.0,383.0 331.0,383.0 332.0,387.0 431.0,387.0 434.0,375.0 447.0,375.0 449.0,387.0 487.0,387.0 484.0,372.0 489.0,371.0 489.0,367.0 479.0,366.0 477.0,356.0 461.0,330.0 461.0,324.0 466.0,323.0 466.0,319.0 457.0,318.0 457.0,309.0 446.0,310.0 434.0,301.0 435.0,290.0 427.0,289.0 424.0,279.0 406.0,284.0 402.0,282.0 402.0,272.0 398.0,272.0 397.0,278.0 388.0,277.0 388.0,262.0 384.0,262.0 383.0,277.0 373.0,278.0 368.0,268.0 355.0,271.0 312.0,258.0 308.0,247.0 308.0,234.0 320.0,215.0 339.0,161.0 337.0,140.0 345.0,139.0 346.0,143.0 350.0,143.0 336.0,88.0 319.0,52.0 294.0,28.0 261.0,12.0 237.0,13.0 236.0,16.0 227.0,16.0" stroke="black" /></svg>